<?xml version="1.0" encoding="UTF-8" standalone="no"?>
<!DOCTYPE svg PUBLIC "-//W3C//DTD SVG 1.1//EN" "http://www.w3.org/Graphics/SVG/1.1/DTD/svg11.dtd">
<svg width="100%" height="100%" viewBox="0 0 562 77" version="1.1" xmlns="http://www.w3.org/2000/svg" xmlns:xlink="http://www.w3.org/1999/xlink" xml:space="preserve" xmlns:serif="http://www.serif.com/" style="fill-rule:evenodd;clip-rule:evenodd;stroke-linejoin:round;stroke-miterlimit:2;">
    <g transform="matrix(1,0,0,1,159.89,37.865)">
        <path d="M0,3.559C0,11.18 -5.472,14.66 -11.501,14.66C-17.581,14.66 -23.026,11.18 -23.026,3.559L-23.026,-11.101L-18.67,-11.101L-18.67,3.159C-18.67,8.312 -15.617,10.596 -11.501,10.596C-7.41,10.596 -4.356,8.312 -4.356,3.159L-4.356,-11.101L0,-11.101L0,3.559Z" style="fill:rgb(165,179,183);fill-rule:nonzero;"/>
    </g>
    <g transform="matrix(1,0,0,1,190.04,41.9)">
        <path d="M0,-5.575L0,10.093L-4.356,10.093L-4.356,-4.167C-4.356,-8.815 -6.904,-11.553 -11.288,-11.553C-15.352,-11.553 -18.751,-8.763 -18.751,-4.062L-18.751,10.093L-23.081,10.093L-23.081,-15.136L-18.778,-15.136L-18.778,-11.844C-16.706,-14.684 -13.438,-15.668 -10.518,-15.668C-4.302,-15.668 0,-11.631 0,-5.575" style="fill:rgb(165,179,183);fill-rule:nonzero;"/>
    </g>
    <g transform="matrix(-1,0,0,1,398.665,-10.555)">
        <rect x="197.168" y="24.305" width="4.329" height="38.243" style="fill:rgb(165,179,183);"/>
    </g>
    <g transform="matrix(1,0,0,1,211.558,39.38)">
        <path d="M0,0C0,5.286 3.824,9.082 8.896,9.082C13.944,9.082 17.794,5.286 17.794,0C17.794,-5.286 13.944,-9.058 8.896,-9.058C3.824,-9.058 0,-5.286 0,0M22.256,0C22.256,7.488 16.546,13.146 8.896,13.146C1.249,13.146 -4.435,7.488 -4.435,0C-4.435,-7.491 1.249,-13.146 8.896,-13.146C16.546,-13.146 22.256,-7.491 22.256,0" style="fill:rgb(165,179,183);fill-rule:nonzero;"/>
    </g>
    <g transform="matrix(1,0,0,1,260.17,48.542)">
        <path d="M0,-18.327L-2.789,-15.379C-4.648,-17.184 -6.8,-18.222 -9.48,-18.222C-14.342,-18.222 -18.033,-14.449 -18.033,-9.163C-18.033,-3.878 -14.342,-0.081 -9.48,-0.081C-6.8,-0.081 -4.435,-1.276 -2.681,-2.975L0,0.024C-2.284,2.602 -5.629,3.983 -9.375,3.983C-17.185,3.983 -22.467,-1.676 -22.467,-9.163C-22.467,-16.654 -17.185,-22.31 -9.375,-22.31C-5.629,-22.31 -2.257,-20.929 0,-18.327" style="fill:rgb(165,179,183);fill-rule:nonzero;"/>
    </g>
    <g transform="matrix(1,0,0,1,269.244,28.89)">
        <path d="M0,7.966L3.453,7.966L12.827,-2.124L18.3,-2.124L7.039,9.774L18.459,23.104L12.96,23.104L3.426,11.898L0,11.898L0,23.104L-4.329,23.104L-4.329,-15.138L0,-15.138L0,7.966Z" style="fill:rgb(165,179,183);fill-rule:nonzero;"/>
    </g>
    <g transform="matrix(1,0,0,1,321.836,40.655)">
        <path d="M0,-9.934L-10.596,-9.934L-10.596,2.361C-10.596,6.161 -8.577,7.806 -5.843,7.806C-3.983,7.806 -2.124,7.09 -0.689,6.107L1.356,9.374C-0.584,10.782 -3.105,11.871 -6.213,11.871C-11.685,11.871 -14.952,8.868 -14.952,2.442L-14.952,-9.934L-20.343,-9.934L-20.343,-13.89L-14.952,-13.89L-14.952,-21.805L-10.596,-21.805L-10.596,-13.89L0,-13.89L0,-9.934Z" style="fill:rgb(165,179,183);fill-rule:nonzero;"/>
    </g>
    <g transform="matrix(1,0,0,1,328.853,39.38)">
        <path d="M0,0C0,5.286 3.823,9.082 8.896,9.082C13.943,9.082 17.795,5.286 17.795,0C17.795,-5.286 13.943,-9.058 8.896,-9.058C3.823,-9.058 0,-5.286 0,0M22.256,0C22.256,7.488 16.546,13.146 8.896,13.146C1.248,13.146 -4.435,7.488 -4.435,0C-4.435,-7.491 1.248,-13.146 8.896,-13.146C16.546,-13.146 22.256,-7.491 22.256,0" style="fill:rgb(165,179,183);fill-rule:nonzero;"/>
    </g>
    <g transform="matrix(1,0,0,1,398.58,41.9)">
        <path d="M0,-5.575L0,10.093L-4.355,10.093L-4.355,-4.167C-4.355,-8.815 -6.906,-11.553 -11.287,-11.553C-15.457,-11.553 -18.724,-8.656 -18.724,-4.062L-18.724,10.093L-23.08,10.093L-23.08,-4.167C-23.08,-8.815 -25.628,-11.553 -30.011,-11.553C-34.075,-11.553 -37.475,-8.763 -37.475,-4.062L-37.475,10.093L-41.804,10.093L-41.804,-15.136L-37.502,-15.136L-37.502,-11.844C-35.43,-14.684 -32.162,-15.668 -29.241,-15.668C-24.966,-15.668 -21.594,-13.755 -19.918,-10.596C-17.848,-14.42 -13.943,-15.668 -10.517,-15.668C-4.277,-15.668 0,-11.631 0,-5.575" style="fill:rgb(165,179,183);fill-rule:nonzero;"/>
    </g>
    <g transform="matrix(1,0,0,1,408.354,39.38)">
        <path d="M0,0C0,5.286 3.824,9.082 8.896,9.082C13.944,9.082 17.795,5.286 17.795,0C17.795,-5.286 13.944,-9.058 8.896,-9.058C3.824,-9.058 0,-5.286 0,0M22.256,0C22.256,7.488 16.546,13.146 8.896,13.146C1.249,13.146 -4.435,7.488 -4.435,0C-4.435,-7.491 1.249,-13.146 8.896,-13.146C16.546,-13.146 22.256,-7.491 22.256,0" style="fill:rgb(165,179,183);fill-rule:nonzero;"/>
    </g>
    <g transform="matrix(1,0,0,1,452.558,51.17)">
        <path d="M0,-24.113L-1.062,-19.838C-2.256,-20.475 -3.956,-20.821 -5.391,-20.821C-9.242,-20.821 -11.952,-17.873 -11.952,-13.225L-11.952,0.824L-16.281,0.824L-16.281,-24.405L-12.004,-24.405L-12.004,-21.086C-10.252,-23.556 -7.623,-24.937 -4.621,-24.937C-2.815,-24.937 -1.354,-24.699 0,-24.113" style="fill:rgb(165,179,183);fill-rule:nonzero;"/>
    </g>
    <g transform="matrix(1,0,0,1,472.982,51.17)">
        <path d="M0,-24.113L-1.062,-19.838C-2.256,-20.475 -3.956,-20.821 -5.391,-20.821C-9.242,-20.821 -11.952,-17.873 -11.952,-13.225L-11.952,0.824L-16.281,0.824L-16.281,-24.405L-12.004,-24.405L-12.004,-21.086C-10.252,-23.556 -7.623,-24.937 -4.621,-24.937C-2.815,-24.937 -1.354,-24.699 0,-24.113" style="fill:rgb(165,179,183);fill-rule:nonzero;"/>
    </g>
    <g transform="matrix(1,0,0,1,479.027,39.38)">
        <path d="M0,0C0,5.286 3.824,9.082 8.896,9.082C13.944,9.082 17.795,5.286 17.795,0C17.795,-5.286 13.944,-9.058 8.896,-9.058C3.824,-9.058 0,-5.286 0,0M22.256,0C22.256,7.488 16.546,13.146 8.896,13.146C1.249,13.146 -4.435,7.488 -4.435,0C-4.435,-7.491 1.249,-13.146 8.896,-13.146C16.546,-13.146 22.256,-7.491 22.256,0" style="fill:rgb(165,179,183);fill-rule:nonzero;"/>
    </g>
    <g transform="matrix(1,0,0,1,533.975,31.305)">
        <path d="M0,16.148L7.172,-4.54L11.712,-4.54L2.63,20.688L-2.548,20.688L-9.774,0.159L-16.97,20.688L-22.069,20.688L-31.151,-4.54L-26.504,-4.54L-19.361,16.094L-12.163,-4.54L-7.25,-4.54L0,16.148Z" style="fill:rgb(165,179,183);fill-rule:nonzero;"/>
    </g>
    <g transform="matrix(-1,0,0,1,235,-37.208)">
        <rect x="113.591" y="52.844" width="7.818" height="7.818" style="fill:rgb(219,50,60);"/>
    </g>
    <g transform="matrix(-1,0,0,1,235,37.208)">
        <rect x="113.591" y="15.636" width="7.818" height="7.818" style="fill:rgb(219,50,60);"/>
    </g>
    <g transform="matrix(1,0,0,1,22.305,41.062)">
        <path d="M0,-5.866C0.924,-9.647 3.594,-11.871 7.295,-11.871C10.848,-11.871 13.429,-9.596 14.207,-5.866L0,-5.866ZM16.267,2.513L15.58,3.107C13.343,5.04 10.702,6.061 7.94,6.061C3.682,6.061 0.737,3.649 -0.096,-0.448L20.626,-0.448L20.671,-1.262L20.698,-1.69C20.726,-2.099 20.756,-2.562 20.756,-3.017L20.756,-3.023C20.697,-11.637 15.196,-17.654 7.38,-17.654C-0.777,-17.654 -6.697,-11.463 -6.697,-2.933C-6.697,5.734 -0.793,11.788 7.66,11.788C12.39,11.788 16.046,10.433 19.166,7.525L19.742,6.988L16.267,2.513Z" style="fill-rule:nonzero;"/>
    </g>
    <g transform="matrix(1,0,0,1,72.134,52.289)">
        <path d="M0,-28.321L-7.603,-28.321L-14.88,-19.032L-22.105,-28.321L-29.9,-28.321L-18.971,-14.436L-30.133,0L-22.607,0L-15.13,-9.678L-7.546,0L0.254,0L-10.934,-14.49L0,-28.321Z" style="fill-rule:nonzero;"/>
    </g>
    <g transform="matrix(1,0,0,1,84.723,47.067)">
        <path d="M0,-17.876C3.552,-17.876 6.133,-15.602 6.912,-11.871L-7.296,-11.871C-6.372,-15.652 -3.702,-17.876 0,-17.876M0.083,-23.659C-8.073,-23.659 -13.993,-17.468 -13.993,-8.938C-13.993,-0.271 -8.089,5.783 0.364,5.783C5.094,5.783 8.751,4.428 11.871,1.52L12.447,0.983L8.971,-3.492L8.284,-2.898C6.048,-0.965 3.406,0.056 0.644,0.056C-3.614,0.056 -6.559,-2.356 -7.392,-6.453L13.33,-6.453L13.375,-7.267L13.402,-7.695C13.43,-8.104 13.46,-8.567 13.46,-9.022L13.46,-9.028C13.401,-17.642 7.901,-23.659 0.083,-23.659" style="fill-rule:nonzero;"/>
    </g>
</svg>
