<?xml version="1.0" encoding="UTF-8" standalone="no"?>
<!DOCTYPE svg PUBLIC "-//W3C//DTD SVG 1.1//EN" "http://www.w3.org/Graphics/SVG/1.1/DTD/svg11.dtd">
<svg width="100%" height="100%" viewBox="0 0 64 64" version="1.1" xmlns="http://www.w3.org/2000/svg" xmlns:xlink="http://www.w3.org/1999/xlink" xml:space="preserve" xmlns:serif="http://www.serif.com/" style="fill-rule:evenodd;clip-rule:evenodd;stroke-linejoin:round;stroke-miterlimit:2;">
    <g transform="matrix(-0.563348,0,0,0.563348,125.793,-10.4522)">
        <rect x="113.591" y="52.844" width="7.818" height="7.818" style="fill:rgb(219,50,60);"/>
    </g>
    <g transform="matrix(-0.563348,0,0,0.563348,125.793,31.4699)">
        <rect x="113.591" y="15.636" width="7.818" height="7.818" style="fill:rgb(219,50,60);"/>
    </g>
    <g transform="matrix(0.563348,0,0,0.563348,5.97136,33.641)">
        <path d="M0,-5.866C0.924,-9.647 3.594,-11.871 7.295,-11.871C10.848,-11.871 13.429,-9.596 14.207,-5.866L0,-5.866ZM16.267,2.513L15.58,3.107C13.343,5.04 10.702,6.061 7.94,6.061C3.682,6.061 0.737,3.649 -0.096,-0.448L20.626,-0.448L20.671,-1.262L20.698,-1.69C20.726,-2.099 20.756,-2.562 20.756,-3.017L20.756,-3.023C20.697,-11.637 15.196,-17.654 7.38,-17.654C-0.777,-17.654 -6.697,-11.463 -6.697,-2.933C-6.697,5.734 -0.793,11.788 7.66,11.788C12.39,11.788 16.046,10.433 19.166,7.525L19.742,6.988L16.267,2.513Z" style="fill:white;fill-rule:nonzero;"/>
    </g>
    <g transform="matrix(0.563348,0,0,0.563348,34.0424,39.9657)">
        <path d="M0,-28.321L-7.603,-28.321L-14.88,-19.032L-22.105,-28.321L-29.9,-28.321L-18.971,-14.436L-30.133,0L-22.607,0L-15.13,-9.678L-7.546,0L0.254,0L-10.934,-14.49L0,-28.321Z" style="fill:white;fill-rule:nonzero;"/>
    </g>
    <g transform="matrix(0.563348,0,0,0.563348,41.1344,37.0239)">
        <path d="M0,-17.876C3.552,-17.876 6.133,-15.602 6.912,-11.871L-7.296,-11.871C-6.372,-15.652 -3.702,-17.876 0,-17.876M0.083,-23.659C-8.073,-23.659 -13.993,-17.468 -13.993,-8.938C-13.993,-0.271 -8.089,5.783 0.364,5.783C5.094,5.783 8.751,4.428 11.871,1.52L12.447,0.983L8.971,-3.492L8.284,-2.898C6.048,-0.965 3.406,0.056 0.644,0.056C-3.614,0.056 -6.559,-2.356 -7.392,-6.453L13.33,-6.453L13.375,-7.267L13.402,-7.695C13.43,-8.104 13.46,-8.567 13.46,-9.022L13.46,-9.028C13.401,-17.642 7.901,-23.659 0.083,-23.659" style="fill:white;fill-rule:nonzero;"/>
    </g>
</svg>
