<svg id="Layer_1" data-name="Layer 1" xmlns="http://www.w3.org/2000/svg" viewBox="0 0 284 122"><defs><style>.cls-1{fill:#d9323a;}.cls-2{fill:#090300;}</style></defs><rect class="cls-1" x="263.11" y="-0.01" width="20.99" height="20.99"/><rect class="cls-1" x="263.11" y="101.01" width="20.99" height="20.99"/><path class="cls-2" d="M61.66,75.62l-1.84,1.6A31.15,31.15,0,0,1,39.3,85.15c-11.43,0-19.34-6.48-21.57-17.48H73.37l.12-2.18c0-.37.05-.75.07-1.16.08-1.09.16-2.34.16-3.56h0C73.56,37.62,58.79,21.47,37.8,21.47,15.9,21.47,0,38.09,0,61c0,23.27,15.85,39.53,38.55,39.53,12.7,0,22.52-3.64,30.9-11.45L71,87.64ZM18,53.12C20.46,43,27.63,37,37.57,37,47.11,37,54,43.1,56.13,53.12Z"/><polygon class="cls-2" points="151.79 22.97 131.37 22.97 111.83 47.92 92.43 22.97 71.5 22.97 100.84 60.26 70.87 99.02 91.08 99.02 111.16 73.03 131.52 99.02 152.47 99.02 122.43 60.11 151.79 22.97"/><path class="cls-2" d="M185.82,21.47C163.92,21.47,148,38.09,148,61c0,23.27,15.85,39.53,38.55,39.53,12.7,0,22.52-3.64,30.9-11.45L219,87.64l-9.34-12-1.84,1.6a31.15,31.15,0,0,1-20.52,7.93c-11.43,0-19.34-6.48-21.58-17.48h55.65l.12-2.18c0-.37.05-.75.07-1.16.08-1.09.16-2.34.16-3.56h0C221.58,37.62,206.81,21.47,185.82,21.47ZM185.59,37c9.54,0,16.47,6.1,18.56,16.12H166C168.48,43,175.65,37,185.59,37Z"/></svg>