<svg viewBox="0 0 64 64" xmlns="http://www.w3.org/2000/svg" xml:space="preserve" style="fill-rule:evenodd;clip-rule:evenodd;stroke-linejoin:round;stroke-miterlimit:2"><circle cx="32" cy="9.963" r="6.416" style="fill:#9cebff" transform="translate(0 -.205)"/><circle cx="32" cy="9.963" r="6.416" style="fill:#32bedd" transform="translate(20.199 33.2)"/><circle cx="32" cy="9.963" r="6.416" style="fill:#32bedd" transform="translate(-20.255 33.2)"/><circle cx="32" cy="9.963" r="6.416" style="fill:#f04049" transform="matrix(.83477 0 0 .80868 5.287 33.209)"/><path d="m.737 60.848 21.964.045-.412-2.102-.822-2.537-.983-1.554-1.326-1.486-2.354-1.577-2.102-1.12-2.957-.64-2.094.48-3.497 1.303-2.057 1.417-1.691 2.125-.754 2.309-.915 3.337Z" style="fill:#0f7ed8"/><path d="m.737 60.848 21.964.045-.412-2.102-.822-2.537-.983-1.554-1.326-1.486-2.354-1.577-2.102-1.12-2.957-.64-2.094.48-3.497 1.303-2.057 1.417-1.691 2.125-.754 2.309-.915 3.337Z" style="fill:#32bedd" transform="translate(40.48)"/><path d="m.737 60.848 21.964.045-.412-2.102-.822-2.537-.983-1.554-1.326-1.486-2.354-1.577-2.102-1.12-2.957-.64-2.094.48-3.497 1.303-2.057 1.417-1.691 2.125-.754 2.309-.915 3.337Z" style="fill:#50e6ff" transform="translate(20.281 -33.295)"/><path d="M99.828 115.989a1.193 1.193 0 0 1 .839 1.143c0 .04-.033.072-.072.072h-2.251a.072.072 0 0 1-.072-.072 1.193 1.193 0 0 1 .838-1.142.762.762 0 0 1 .359-1.438.761.761 0 0 1 .359 1.437Zm-.43 1.429c0-.04.032-.072.072-.072.04 0 .072.032.072.072v.486a.618.618 0 0 1 .364.176v.001a.613.613 0 0 1 .073.785l.39.394a.071.071 0 0 1 0 .101.072.072 0 0 1-.102 0l-.383-.386a.615.615 0 0 1-.817.011l-.376.375a.072.072 0 0 1-.102 0 .072.072 0 0 1 0-.102l.38-.379a.62.62 0 0 1 .063-.8.623.623 0 0 1 .366-.176v-.486Zm-.282 1.415.001.001.005.006.013.013a.47.47 0 0 0 .669-.001.474.474 0 0 0-.334-.808h-.001a.472.472 0 0 0-.353.789Zm-1.703-.882a.761.761 0 0 0-.763.763.761.761 0 0 0 .405.675 1.196 1.196 0 0 0-.838 1.142c0 .04.032.072.072.072h2.25c.04 0 .072-.032.072-.072a1.193 1.193 0 0 0-.839-1.143.762.762 0 0 0-.359-1.437Zm.438.325a.618.618 0 0 1-.437 1.058h-.001a.618.618 0 0 1-.438-1.058.617.617 0 0 1 .876 0Zm.307 1.51c.175.175.289.411.306.673h-2.101a1.052 1.052 0 0 1 1.05-.981h.001c.29 0 .554.118.744.308Zm3.367-1.835a.761.761 0 0 0-.764.763.762.762 0 0 0 .405.675 1.192 1.192 0 0 0-.838 1.142c0 .04.032.072.072.072h2.251c.04 0 .072-.032.072-.072a1.193 1.193 0 0 0-.839-1.143.762.762 0 0 0-.359-1.437Zm.438.325a.618.618 0 0 1-.437 1.058h-.001a.618.618 0 0 1-.438-1.058.617.617 0 0 1 .876 0Zm.307 1.51c.175.175.288.411.306.673h-2.101a1.049 1.049 0 0 1 1.05-.981h.001c.29 0 .554.118.744.308Zm-2.801-3.851a.618.618 0 0 0 .438-1.058.617.617 0 0 0-.876 0 .62.62 0 0 0 .438 1.058Zm.745.452a1.053 1.053 0 0 0-1.796.673h2.102a1.052 1.052 0 0 0-.306-.673Z" style="fill:#30383b" transform="translate(-946.487 -1124.61) scale(9.83701)"/></svg>