<?xml version="1.0" encoding="UTF-8" standalone="no"?>
<!DOCTYPE svg PUBLIC "-//W3C//DTD SVG 1.1//EN" "http://www.w3.org/Graphics/SVG/1.1/DTD/svg11.dtd">
<svg width="100%" height="100%" viewBox="0 0 64 64" version="1.1" xmlns="http://www.w3.org/2000/svg" xmlns:xlink="http://www.w3.org/1999/xlink" xml:space="preserve" xmlns:serif="http://www.serif.com/" style="fill-rule:evenodd;clip-rule:evenodd;stroke-linejoin:round;stroke-miterlimit:2;">
    <g transform="matrix(3.32159,0,0,3.32159,-4848.28,-4218.53)">
        <path d="M1473.16,1286.44L1466.05,1279.2C1466.14,1279.29 1466.19,1279.41 1466.18,1279.54C1466.18,1279.66 1466.13,1279.79 1466.04,1279.88L1473.15,1272.9C1473.34,1272.71 1473.34,1272.41 1473.16,1272.22C1472.97,1272.03 1472.67,1272.03 1472.48,1272.21L1465.37,1279.19C1465.28,1279.28 1465.23,1279.4 1465.23,1279.53C1465.22,1279.66 1465.27,1279.78 1465.36,1279.87L1472.48,1287.12C1472.66,1287.31 1472.96,1287.31 1473.15,1287.12C1473.34,1286.94 1473.34,1286.63 1473.16,1286.44Z" style="fill:rgb(1,1,1);fill-rule:nonzero;"/>
    </g>
</svg>
