<?xml version="1.0" encoding="UTF-8" standalone="no"?>
<!DOCTYPE svg PUBLIC "-//W3C//DTD SVG 1.1//EN" "http://www.w3.org/Graphics/SVG/1.1/DTD/svg11.dtd">
<svg width="100%" height="100%" viewBox="0 0 16 16" version="1.1" xmlns="http://www.w3.org/2000/svg"
     xml:space="preserve"
     style="fill-rule:evenodd;clip-rule:evenodd;stroke-linejoin:round;stroke-miterlimit:2;">
    <path d="M7.364,12.5C7.364,12.774 7.59,13 7.864,13L14.5,13C15.323,13 16,12.323 16,11.5L16,1.5C16,0.677 15.323,0 14.5,0L4.5,0C3.677,0 3,0.677 3,1.5L3,8.136C3,8.41 3.226,8.636 3.5,8.636C3.774,8.636 4,8.41 4,8.136L4,1.5C4,1.226 4.226,1 4.5,1L14.5,1C14.774,1 15,1.226 15,1.5L15,11.5C15,11.774 14.774,12 14.5,12L7.864,12C7.59,12 7.364,12.226 7.364,12.5Z" style="fill:white;"/>
    <path d="M0,15.5C0,15.774 0.226,16 0.5,16L5.5,16C5.774,16 6,15.774 6,15.5C6,15.226 5.774,15 5.5,15L1.707,15L9.854,6.854C9.948,6.76 10.001,6.633 10.001,6.5C10.001,6.225 9.775,5.999 9.5,5.999C9.367,5.999 9.24,6.052 9.146,6.146L1,14.293L1,10.5C1,10.226 0.774,10 0.5,10C0.226,10 0,10.226 0,10.5L0,15.5Z" style="fill:white;"/>
</svg>
