<?xml version="1.0" encoding="UTF-8" standalone="no"?>
<!DOCTYPE svg PUBLIC "-//W3C//DTD SVG 1.1//EN" "http://www.w3.org/Graphics/SVG/1.1/DTD/svg11.dtd">
<svg width="100%" height="100%" viewBox="0 0 16 16" version="1.1" xmlns="http://www.w3.org/2000/svg"
     xml:space="preserve"
     style="fill-rule:evenodd;clip-rule:evenodd;stroke-linejoin:round;stroke-miterlimit:2;">
    <path d="M6.364,13.5C6.364,13.774 6.59,14 6.864,14L13.5,14C14.323,14 15,13.323 15,12.5L15,2.5C15,1.677 14.323,1 13.5,1L3.5,1C2.677,1 2,1.677 2,2.5L2,9.136C2,9.41 2.226,9.636 2.5,9.636C2.774,9.636 3,9.41 3,9.136L3,2.5C3,2.226 3.226,2 3.5,2L13.5,2C13.774,2 14,2.226 14,2.5L14,12.5C14,12.774 13.774,13 13.5,13L6.864,13C6.59,13 6.364,13.226 6.364,13.5Z" style="fill:white;"/>
    <path d="M11,5.5C11,5.226 10.774,5 10.5,5L5.5,5C5.226,5 5,5.226 5,5.5C5,5.774 5.226,6 5.5,6L9.293,6L1.146,14.146C1.052,14.24 0.999,14.367 0.999,14.5C0.999,14.775 1.225,15.001 1.5,15.001C1.633,15.001 1.76,14.948 1.854,14.854L10,6.707L10,10.5C10,10.774 10.226,11 10.5,11C10.774,11 11,10.774 11,10.5L11,5.5Z" style="fill:white;"/>
</svg>
