<?xml version="1.0" encoding="UTF-8" standalone="no"?>
<!DOCTYPE svg PUBLIC "-//W3C//DTD SVG 1.1//EN" "http://www.w3.org/Graphics/SVG/1.1/DTD/svg11.dtd">
<svg width="100%" height="100%" viewBox="0 0 64 64" version="1.1" xmlns="http://www.w3.org/2000/svg" xmlns:xlink="http://www.w3.org/1999/xlink" xml:space="preserve" xmlns:serif="http://www.serif.com/" style="fill-rule:evenodd;clip-rule:evenodd;stroke-linejoin:round;stroke-miterlimit:2;">
    <rect x="5.456" y="51.921" width="53.114" height="6.194" style="fill:url(#_Linear1);"/>
    <path d="M53.283,51.787L10.898,51.921L10.943,32.465L12.19,31.441L23.543,31.307L24.878,32L24.967,7.8L26.303,6.153L37.79,6.064L39.125,7.533L39.17,22.715L40.639,22.002L51.769,21.913L53.239,23.605L53.283,51.787Z" style="fill:url(#_Linear2);"/>
    <g transform="matrix(4.13079,0,0,4.13079,-888.399,-270.211)">
        <path d="M224.686,70.647C224.76,70.612 224.843,70.592 224.931,70.592L227.524,70.592C227.682,70.592 227.825,70.657 227.929,70.761L227.93,70.761C228.034,70.865 228.098,71.008 228.098,71.166L228.098,77.8L229.242,77.8C229.333,77.8 229.407,77.874 229.407,77.965L229.407,79.416C229.407,79.507 229.333,79.581 229.242,79.581L216.386,79.581C216.295,79.581 216.221,79.507 216.221,79.416L216.221,77.965C216.221,77.874 216.295,77.8 216.386,77.8L217.531,77.8L217.531,73.409C217.531,73.256 217.592,73.116 217.69,73.013L217.7,73.002C217.804,72.898 217.947,72.834 218.105,72.834L220.697,72.834C220.785,72.834 220.868,72.854 220.943,72.89L220.943,67.315C220.943,67.156 221.007,67.013 221.111,66.908C221.215,66.804 221.359,66.74 221.518,66.74L224.111,66.74C224.269,66.74 224.413,66.804 224.517,66.908L224.527,66.919C224.625,67.023 224.686,67.162 224.686,67.315L224.686,70.647ZM224.525,78.129L224.521,78.13L217.694,78.13L217.684,78.129L216.551,78.129L216.551,79.251L229.078,79.251L229.078,78.129L224.525,78.129ZM224.686,77.8L227.77,77.8L227.77,71.166C227.77,71.099 227.742,71.037 227.698,70.993L227.698,70.992C227.653,70.948 227.592,70.92 227.524,70.92L224.931,70.92C224.864,70.92 224.802,70.948 224.758,70.993L224.757,70.992L224.757,70.993C224.717,71.033 224.69,71.087 224.686,71.148L224.686,77.8ZM220.943,77.8L220.943,73.382C220.936,73.325 220.911,73.274 220.872,73.236C220.828,73.192 220.766,73.164 220.697,73.164L218.105,73.164C218.036,73.164 217.974,73.192 217.929,73.237L217.923,73.243C217.882,73.287 217.858,73.345 217.858,73.409L217.858,77.8L220.943,77.8ZM221.272,67.315L221.272,77.8L224.356,77.8L224.356,67.315C224.356,67.251 224.331,67.192 224.291,67.148L224.284,67.142C224.24,67.097 224.178,67.07 224.111,67.07L221.518,67.07C221.45,67.07 221.389,67.097 221.344,67.142C221.3,67.186 221.272,67.247 221.272,67.315Z" style="fill:rgb(124,19,22);"/>
    </g>
    <defs>
        <linearGradient id="_Linear1" x1="0" y1="0" x2="1" y2="0" gradientUnits="userSpaceOnUse" gradientTransform="matrix(53.1144,0,0,6.19374,5.45635,55.0179)"><stop offset="0" style="stop-color:rgb(248,194,28);stop-opacity:1"/><stop offset="1" style="stop-color:rgb(238,142,42);stop-opacity:1"/></linearGradient>
        <linearGradient id="_Linear2" x1="0" y1="0" x2="1" y2="0" gradientUnits="userSpaceOnUse" gradientTransform="matrix(42.3847,0,0,45.8574,10.8984,28.9923)"><stop offset="0" style="stop-color:rgb(220,41,45);stop-opacity:1"/><stop offset="1" style="stop-color:rgb(246,164,40);stop-opacity:1"/></linearGradient>
    </defs>
</svg>
