<svg xmlns="http://www.w3.org/2000/svg" viewBox="0 0 307.432 307.432" style="enable-background:new 0 0 307.432 307.432" xml:space="preserve"><path style="fill:#010002" d="M153.708 0C68.951 0 0 68.951 0 153.708c0 84.762 68.951 153.724 153.708 153.724 84.762 0 153.724-68.962 153.724-153.724C307.432 68.951 238.47 0 153.708 0zm0 289.244c-74.727 0-135.531-60.798-135.531-135.536 0-74.727 60.803-135.531 135.531-135.531 74.738 0 135.536 60.803 135.536 135.531 0 74.738-60.798 135.536-135.536 135.536z"/><path style="fill:#010002" d="m151.445 61.276-43.806 171.967a2.337 2.337 0 0 0 1.343 2.73 2.352 2.352 0 0 0 2.921-.892l42.349-66.019 41.283 66.008a2.363 2.363 0 0 0 1.991 1.099c.305 0 .609-.06.919-.179a2.369 2.369 0 0 0 1.36-2.747L155.998 61.276c-.533-2.083-4.036-2.083-4.553 0zm4.814 102.152a2.34 2.34 0 0 0-1.974-1.088h-.005c-.805 0-1.556.397-1.985 1.071l-36.512 56.92L153.71 71.382l37.801 148.416-35.252-56.37z"/><path style="fill:#010002" d="M197.52 236.909c-1.055 0-2.072-.555-2.622-1.441l-40.657-65.024-41.718 65.035c-.794 1.246-2.464 1.762-3.829 1.186a3.08 3.08 0 0 1-1.762-3.601l43.801-171.972c.315-1.256 1.518-2.116 2.986-2.116 1.463 0 2.676.848 2.997 2.116l43.79 171.972a3.066 3.066 0 0 1-2.986 3.845zm-43.274-69.223.631.995 41.277 66.003c.397.647 1.246.925 2.007.615a1.609 1.609 0 0 0 .919-1.871l-43.8-171.972c-.19-.745-.957-1.012-1.566-1.012-.609 0-1.371.267-1.561 1.012l-43.795 171.972a1.586 1.586 0 0 0 .908 1.871c.696.277 1.588.033 2.002-.615l42.978-66.998zm-40.303 56.871 39.765-156.172 39.705 155.818-37.78-60.379c-.604-.968-2.138-.919-2.714-.016l-38.976 60.749z"/></svg>