<svg viewBox="0 0 64 64" xmlns="http://www.w3.org/2000/svg" xml:space="preserve" style="fill-rule:evenodd;clip-rule:evenodd;stroke-linejoin:round;stroke-miterlimit:2"><path d="m19.745 34.146 12.503 8.747 11.569-8.747L63.329 48.39l-1.204 2.759-1.651.937-5.134.045-42.451-.134-8.258.179-2.499-.625L.837 48.39l18.908-14.244Z" style="fill:#f78d1e"/><path d="m43.817 34.263 19.455-14.36.057 28.487-19.512-14.127ZM.775 20.136.496 48.39l19.249-14.256L.775 20.136Z" style="fill:#f8921e"/><path d="m.496 18.695.137-2.926.366-2.057 1.577-1.234 4.753-.526 52.844-.038 1.964 1.072L64 14.914l-1.006 2.821-.036 1.964-2.75 1.679L32 42.893 1.125 19.815l-.629-1.12Z" style="fill:#f99e1d"/><path d="m253.518 107.138-1.865-1.41-1.149.869a.072.072 0 0 1-.087 0l-1.15-.869-1.865 1.41a.29.29 0 0 0 .285.244h5.547a.287.287 0 0 0 .284-.244Zm-1.908-1.557-1.15.869-1.149-.869-.002-.002-1.91-1.444v-.358a.289.289 0 0 1 .288-.288h5.547c.079 0 .151.032.203.084h.001a.293.293 0 0 1 .084.204v.358l-1.91 1.444-.002.002Zm.163.057 1.749-1.322v2.644l-1.749-1.322Zm-4.374-1.322 1.749 1.322-1.749 1.322v-2.644Zm.288-.972h5.547c.118 0 .227.049.305.127v.001a.43.43 0 0 1 .127.305v3.316a.433.433 0 0 1-.432.433h-5.547a.438.438 0 0 1-.305-.126v-.001h-.001a.435.435 0 0 1-.127-.306v-3.316a.435.435 0 0 1 .433-.433Z" style="fill:#ffc500" transform="translate(-2467.92 -1020.38) scale(9.9813)"/></svg>