<?xml version="1.0" encoding="UTF-8" standalone="no"?>
<!DOCTYPE svg PUBLIC "-//W3C//DTD SVG 1.1//EN" "http://www.w3.org/Graphics/SVG/1.1/DTD/svg11.dtd">
<svg width="100%" height="100%" viewBox="0 0 64 64" version="1.1" xmlns="http://www.w3.org/2000/svg" xmlns:xlink="http://www.w3.org/1999/xlink" xml:space="preserve" xmlns:serif="http://www.serif.com/" style="fill-rule:evenodd;clip-rule:evenodd;stroke-linejoin:round;stroke-miterlimit:2;">
    <path d="M11.028,8.403L13.653,5.937L50.528,5.817L52.915,8.403L52.756,56.854L51.085,59.28L13.414,59.439L11.067,57.172" style="fill:url(#_Linear1);"/>
    <rect x="15.571" y="9.853" width="32.864" height="45.684" style="fill:url(#_Linear2);"/>
    <rect x="23.961" y="4.484" width="16.27" height="7.797" style="fill:url(#_Linear3);"/>
    <g transform="matrix(8.1155,0,0,8.1155,-477.536,-822.96)">
        <path d="M60.58,102.058L61.717,102.058L61.717,101.972C61.717,101.932 61.749,101.9 61.789,101.9L63.782,101.9C63.821,101.9 63.854,101.932 63.854,101.972L63.854,102.058L64.99,102.058C65.109,102.058 65.217,102.107 65.296,102.185C65.374,102.264 65.423,102.372 65.423,102.49L65.423,108.366C65.423,108.485 65.374,108.593 65.296,108.672C65.218,108.75 65.109,108.798 64.99,108.798L60.58,108.798C60.462,108.798 60.353,108.75 60.275,108.672L60.275,108.671L60.274,108.671C60.196,108.592 60.148,108.485 60.148,108.366L60.148,102.49C60.148,102.372 60.196,102.263 60.275,102.185C60.353,102.107 60.461,102.058 60.58,102.058ZM61.494,106.291L61.267,106.291C61.227,106.291 61.195,106.324 61.195,106.363C61.195,106.403 61.227,106.435 61.267,106.435L61.494,106.435C61.533,106.435 61.566,106.403 61.566,106.363C61.566,106.324 61.533,106.291 61.494,106.291ZM61.494,105.465L61.267,105.465C61.227,105.465 61.195,105.498 61.195,105.537C61.195,105.577 61.227,105.61 61.267,105.61L61.494,105.61C61.533,105.61 61.566,105.577 61.566,105.537C61.566,105.498 61.533,105.465 61.494,105.465ZM61.494,104.688L61.267,104.688C61.227,104.688 61.195,104.72 61.195,104.76C61.195,104.8 61.227,104.832 61.267,104.832L61.494,104.832C61.533,104.832 61.566,104.8 61.566,104.76C61.566,104.72 61.533,104.688 61.494,104.688ZM61.494,103.91L61.267,103.91C61.227,103.91 61.195,103.943 61.195,103.983C61.195,104.022 61.227,104.055 61.267,104.055L61.494,104.055C61.533,104.055 61.566,104.022 61.566,103.983C61.566,103.943 61.533,103.91 61.494,103.91ZM64.247,103.91L61.992,103.91C61.952,103.91 61.92,103.943 61.92,103.983C61.92,104.022 61.952,104.055 61.992,104.055L64.247,104.055C64.286,104.055 64.319,104.022 64.319,103.983C64.319,103.943 64.286,103.91 64.247,103.91ZM64.247,104.688L61.992,104.688C61.952,104.688 61.92,104.72 61.92,104.76C61.92,104.8 61.952,104.832 61.992,104.832L64.247,104.832C64.286,104.832 64.319,104.8 64.319,104.76C64.319,104.72 64.286,104.688 64.247,104.688ZM63.731,106.291L61.992,106.291C61.952,106.291 61.92,106.324 61.92,106.364C61.92,106.403 61.952,106.435 61.992,106.435L63.731,106.435C63.771,106.435 63.803,106.403 63.803,106.364C63.803,106.324 63.771,106.291 63.731,106.291ZM64.247,105.466L61.992,105.466C61.952,105.466 61.92,105.498 61.92,105.537C61.92,105.577 61.952,105.61 61.992,105.61L64.247,105.61C64.286,105.61 64.319,105.577 64.319,105.537C64.319,105.498 64.286,105.466 64.247,105.466ZM61.861,102.044L61.861,102.854L63.709,102.854L63.709,102.044L61.861,102.044ZM60.757,102.537L61.717,102.537L61.717,102.202L60.58,102.202C60.501,102.202 60.429,102.235 60.377,102.287C60.325,102.339 60.292,102.411 60.292,102.49L60.292,108.366C60.292,108.445 60.324,108.517 60.376,108.57L60.377,108.57C60.429,108.622 60.501,108.654 60.58,108.654L64.99,108.654C65.07,108.654 65.142,108.622 65.194,108.57C65.246,108.517 65.279,108.445 65.279,108.366L65.279,102.49C65.279,102.411 65.246,102.339 65.194,102.287C65.142,102.234 65.07,102.202 64.99,102.202L63.854,102.202L63.854,102.537L64.813,102.537C64.853,102.537 64.885,102.569 64.885,102.609L64.885,108.248C64.885,108.288 64.853,108.32 64.813,108.32L60.757,108.32C60.717,108.32 60.685,108.288 60.685,108.248L60.685,102.609C60.685,102.569 60.717,102.537 60.757,102.537ZM61.717,102.681L60.829,102.681L60.829,108.176L64.741,108.176L64.741,102.681L63.854,102.681L63.854,102.926C63.854,102.966 63.821,102.998 63.782,102.998L61.789,102.998C61.749,102.998 61.717,102.966 61.717,102.926L61.717,102.681Z" style="fill:rgb(48,56,59);"/>
    </g>
    <defs>
        <linearGradient id="_Linear1" x1="0" y1="0" x2="1" y2="0" gradientUnits="userSpaceOnUse" gradientTransform="matrix(41.8873,0,0,53.6222,11.0277,32.6283)"><stop offset="0" style="stop-color:rgb(242,144,53);stop-opacity:1"/><stop offset="1" style="stop-color:rgb(204,93,28);stop-opacity:1"/></linearGradient>
        <linearGradient id="_Linear2" x1="0" y1="0" x2="1" y2="0" gradientUnits="userSpaceOnUse" gradientTransform="matrix(32.8643,0,0,45.6838,15.5706,32.6948)"><stop offset="0" style="stop-color:rgb(242,242,242);stop-opacity:1"/><stop offset="1" style="stop-color:rgb(175,174,175);stop-opacity:1"/></linearGradient>
        <linearGradient id="_Linear3" x1="0" y1="0" x2="1" y2="0" gradientUnits="userSpaceOnUse" gradientTransform="matrix(16.2696,0,0,7.79669,23.9614,8.38235)"><stop offset="0" style="stop-color:rgb(253,212,57);stop-opacity:1"/><stop offset="1" style="stop-color:rgb(249,167,55);stop-opacity:1"/></linearGradient>
    </defs>
</svg>
