<?xml version="1.0" encoding="UTF-8" standalone="no"?>
<!DOCTYPE svg PUBLIC "-//W3C//DTD SVG 1.1//EN" "http://www.w3.org/Graphics/SVG/1.1/DTD/svg11.dtd">
<svg width="100%" height="100%" viewBox="0 0 64 64" version="1.1" xmlns="http://www.w3.org/2000/svg" xmlns:xlink="http://www.w3.org/1999/xlink" xml:space="preserve" xmlns:serif="http://www.serif.com/" style="fill-rule:evenodd;clip-rule:evenodd;stroke-linejoin:round;stroke-miterlimit:2;">
    <path d="M13.469,36.396L58.113,36.396L60.821,38.664L61.067,53.75L13.56,53.75L13.469,36.396Z" style="fill:url(#_Linear1);"/>
    <rect x="2.93" y="8.027" width="10.215" height="45.723" style="fill:url(#_Linear2);"/>
    <g transform="matrix(1,0,0,0.530283,15.1384,7.89351)">
        <rect x="2.93" y="8.027" width="10.215" height="45.723" style="fill:url(#_Linear3);"/>
    </g>
    <g transform="matrix(1,0,0,0.40646,30.0922,14.549)">
        <rect x="2.93" y="8.027" width="10.215" height="45.723" style="fill:url(#_Linear4);"/>
    </g>
    <g transform="matrix(6.09036,0,0,0.0767161,-16.9451,53.9957)">
        <rect x="2.93" y="8.027" width="10.215" height="45.723" style="fill:url(#_Linear5);"/>
    </g>
    <g transform="matrix(9.62261,0,0,9.62261,-3201.74,-1217.07)">
        <path d="M337.268,127.481C337.213,127.461 337.152,127.457 337.093,127.467C337.035,127.478 336.979,127.504 336.935,127.542C336.911,127.563 336.877,127.565 336.851,127.55C336.81,127.526 336.766,127.515 336.722,127.514C336.659,127.512 336.596,127.531 336.541,127.564C336.485,127.597 336.438,127.644 336.407,127.698C336.385,127.738 336.371,127.781 336.37,127.826C336.37,127.842 336.371,127.86 336.373,127.876C336.375,127.893 336.378,127.91 336.383,127.926L336.383,127.927L336.384,127.927L338.104,127.927C338.139,127.887 338.167,127.842 338.186,127.792C338.205,127.745 338.216,127.693 338.217,127.639C338.22,127.497 338.158,127.379 338.064,127.297C338.004,127.245 337.931,127.208 337.855,127.189C337.779,127.171 337.7,127.171 337.626,127.193C337.518,127.224 337.42,127.304 337.358,127.443C337.342,127.477 337.303,127.494 337.268,127.481ZM337.451,131.249C337.411,131.249 337.379,131.216 337.379,131.177C337.379,131.137 337.411,131.104 337.451,131.104L338.535,131.104C338.574,131.104 338.606,131.137 338.606,131.177C338.606,131.216 338.574,131.249 338.535,131.249L337.451,131.249ZM332.803,132.035L332.975,132.035L332.975,127.295C332.975,127.255 333.007,127.222 333.047,127.222L334.089,127.222C334.129,127.222 334.161,127.255 334.161,127.295L334.161,130.174L334.54,130.174L334.54,127.757C334.54,127.717 334.573,127.684 334.613,127.684L335.655,127.684C335.695,127.684 335.727,127.717 335.727,127.757L335.727,130.174L336.107,130.174L336.107,128.264C336.107,128.225 336.139,128.192 336.179,128.192L337.221,128.192C337.26,128.192 337.293,128.225 337.293,128.264L337.293,130.174L338.706,130.174C338.825,130.174 338.933,130.222 339.011,130.301L339.012,130.301C339.09,130.379 339.138,130.487 339.138,130.606L339.138,132.035L339.311,132.035C339.35,132.035 339.382,132.067 339.382,132.107L339.382,132.507C339.382,132.547 339.35,132.579 339.311,132.579L332.803,132.579C332.763,132.579 332.731,132.547 332.731,132.507L332.731,132.107C332.731,132.067 332.763,132.035 332.803,132.035ZM339.238,132.179L332.875,132.179L332.875,132.435L339.238,132.435L339.238,132.179ZM333.119,132.035L334.017,132.035L334.017,127.367L333.119,127.367L333.119,132.035ZM335.583,130.174L335.583,127.829L334.685,127.829L334.685,130.174L335.583,130.174ZM337.149,130.174L337.149,128.336L336.251,128.336L336.251,130.174L337.149,130.174ZM334.161,132.035L338.994,132.035L338.994,130.606C338.994,130.527 338.962,130.455 338.91,130.402C338.857,130.35 338.785,130.318 338.706,130.318L334.161,130.318L334.161,132.035ZM334.621,131.249L335.705,131.249C335.744,131.249 335.777,131.216 335.777,131.177C335.777,131.137 335.744,131.104 335.705,131.104L334.621,131.104C334.581,131.104 334.549,131.137 334.549,131.177C334.549,131.216 334.581,131.249 334.621,131.249ZM336.036,131.249L337.119,131.249C337.159,131.249 337.192,131.216 337.192,131.177C337.192,131.137 337.159,131.104 337.119,131.104L336.036,131.104C335.996,131.104 335.964,131.137 335.964,131.177C335.964,131.216 335.996,131.249 336.036,131.249ZM337.067,127.326C337.129,127.315 337.193,127.315 337.255,127.328C337.336,127.181 337.455,127.093 337.585,127.055C337.684,127.025 337.789,127.025 337.888,127.05C337.987,127.073 338.081,127.121 338.158,127.188C338.282,127.296 338.365,127.454 338.36,127.642C338.359,127.714 338.344,127.782 338.32,127.845C338.294,127.91 338.258,127.97 338.212,128.021L338.212,128.022C338.198,128.037 338.182,128.05 338.163,128.058C338.145,128.066 338.125,128.071 338.104,128.071L336.384,128.071C336.352,128.071 336.322,128.06 336.297,128.042C336.273,128.024 336.254,127.997 336.245,127.967L336.245,127.966C336.238,127.943 336.233,127.919 336.23,127.895C336.227,127.872 336.226,127.847 336.227,127.822C336.228,127.753 336.249,127.687 336.282,127.627C336.326,127.551 336.391,127.486 336.468,127.44C336.545,127.395 336.634,127.368 336.725,127.37C336.777,127.372 336.829,127.382 336.879,127.404C336.935,127.364 337,127.338 337.067,127.326ZM336.852,127.55L336.851,127.55L336.852,127.55Z" style="fill:rgb(230,230,230);"/>
    </g>
    <path d="M34.722,14.508L51.635,14.735L53.425,12.441L53.147,8.862L50.702,6.543L47.501,6.165L45.031,7.072L43.972,8.736L41.678,9.013L39.712,9.643L37.822,9.416L35.73,10.248L34.772,11.357L34.722,14.508Z" style="fill:url(#_Linear6);"/>
    <defs>
        <linearGradient id="_Linear1" x1="0" y1="0" x2="1" y2="0" gradientUnits="userSpaceOnUse" gradientTransform="matrix(47.5981,0,0,17.3538,13.469,45.0731)"><stop offset="0" style="stop-color:rgb(49,209,242);stop-opacity:1"/><stop offset="1" style="stop-color:rgb(25,138,179);stop-opacity:1"/></linearGradient>
        <linearGradient id="_Linear2" x1="0" y1="0" x2="1" y2="0" gradientUnits="userSpaceOnUse" gradientTransform="matrix(10.2153,0,0,45.7229,2.92992,30.8885)"><stop offset="0" style="stop-color:rgb(0,91,161);stop-opacity:1"/><stop offset="1" style="stop-color:rgb(0,115,203);stop-opacity:1"/></linearGradient>
        <linearGradient id="_Linear3" x1="0" y1="0" x2="1" y2="0" gradientUnits="userSpaceOnUse" gradientTransform="matrix(10.2153,0,0,45.7229,2.92992,30.8885)"><stop offset="0" style="stop-color:rgb(0,91,161);stop-opacity:1"/><stop offset="1" style="stop-color:rgb(0,115,203);stop-opacity:1"/></linearGradient>
        <linearGradient id="_Linear4" x1="0" y1="0" x2="1" y2="0" gradientUnits="userSpaceOnUse" gradientTransform="matrix(10.2153,0,0,45.7229,2.92992,30.8885)"><stop offset="0" style="stop-color:rgb(0,91,161);stop-opacity:1"/><stop offset="1" style="stop-color:rgb(0,115,203);stop-opacity:1"/></linearGradient>
        <linearGradient id="_Linear5" x1="0" y1="0" x2="1" y2="0" gradientUnits="userSpaceOnUse" gradientTransform="matrix(10.2153,0,0,45.7229,2.92992,30.8885)"><stop offset="0" style="stop-color:rgb(0,91,161);stop-opacity:1"/><stop offset="1" style="stop-color:rgb(0,115,203);stop-opacity:1"/></linearGradient>
        <linearGradient id="_Linear6" x1="0" y1="0" x2="1" y2="0" gradientUnits="userSpaceOnUse" gradientTransform="matrix(18.7029,0,0,8.57006,34.7216,10.4498)"><stop offset="0" style="stop-color:rgb(80,230,255);stop-opacity:1"/><stop offset="1" style="stop-color:rgb(26,131,219);stop-opacity:1"/></linearGradient>
    </defs>
</svg>
