<?xml version="1.0" encoding="UTF-8" standalone="no"?>
<!DOCTYPE svg PUBLIC "-//W3C//DTD SVG 1.1//EN" "http://www.w3.org/Graphics/SVG/1.1/DTD/svg11.dtd">
<svg width="100%" height="100%" viewBox="0 0 64 64" version="1.1" xmlns="http://www.w3.org/2000/svg" xmlns:xlink="http://www.w3.org/1999/xlink" xml:space="preserve" xmlns:serif="http://www.serif.com/" style="fill-rule:evenodd;clip-rule:evenodd;stroke-linejoin:round;stroke-miterlimit:2;">
    <rect x="10.909" y="34.086" width="6.101" height="27.415" style="fill:rgb(251,228,86);"/>
    <g transform="matrix(1,0,0,1,36.036,0)">
        <rect x="10.909" y="34.086" width="6.101" height="27.415" style="fill:rgb(251,228,86);"/>
    </g>
    <path d="M10.357,59.07L2.233,58.475L0.567,55.469L1.043,38.805L3.126,36.751L4.584,36.454L4.971,27.169L6.459,20.295L11.19,12.17L14.791,8.778L21.398,4.671L28.48,2.915L36.932,2.945L43.509,5.147L49.46,8.897L55.055,15.444L57.733,20.979L59.31,28.24L59.251,36.424L62.078,37.406L63.328,41.036L63.09,56.541L61.215,58.773L53.597,59.1L53.567,36.335L54.37,33.597L53.805,26.99L52.644,22.169L49.995,17.2L46.484,13.123L40.265,9.641L32.647,7.915L23.54,9.522L17.009,13.599L12.619,19.342L10.06,26.961L9.911,33.24L10.417,37.257L10.357,59.07Z" style="fill:url(#_Linear1);"/>
    <g transform="matrix(9.88113,0,0,9.88113,-588.392,-1949.34)">
        <path d="M62.785,197.478C63.566,197.478 64.273,197.794 64.784,198.306C65.296,198.817 65.613,199.525 65.613,200.305L65.613,200.902C65.723,200.907 65.823,200.955 65.897,201.028C65.975,201.107 66.024,201.215 66.024,201.334L66.024,202.885C66.024,203.003 65.975,203.112 65.897,203.19C65.818,203.268 65.71,203.317 65.591,203.317L65.005,203.317L65.005,203.484C65.005,203.524 64.972,203.556 64.932,203.556L64.295,203.556C64.255,203.556 64.222,203.524 64.222,203.484L64.222,200.734C64.222,200.695 64.255,200.662 64.295,200.662L64.932,200.662C64.938,200.662 64.945,200.663 64.95,200.664L64.95,200.305C64.95,199.707 64.708,199.166 64.316,198.774C63.925,198.383 63.383,198.14 62.785,198.14C62.187,198.14 61.646,198.383 61.254,198.774C60.863,199.166 60.62,199.707 60.62,200.305L60.62,200.664C60.626,200.663 60.632,200.662 60.638,200.662L61.276,200.662C61.316,200.662 61.348,200.695 61.348,200.734L61.348,203.484C61.348,203.524 61.316,203.556 61.276,203.556L60.638,203.556C60.598,203.556 60.566,203.524 60.566,203.484L60.566,203.317L59.98,203.317C59.86,203.317 59.752,203.268 59.674,203.19C59.595,203.112 59.547,203.004 59.547,202.885L59.547,201.334C59.547,201.216 59.595,201.108 59.673,201.03L59.674,201.029L59.674,201.028C59.748,200.955 59.847,200.907 59.958,200.902L59.958,200.305C59.958,199.525 60.274,198.817 60.786,198.306C61.298,197.794 62.005,197.478 62.785,197.478ZM60.71,200.807L60.71,203.412L61.204,203.412L61.204,200.807L60.71,200.807ZM60.566,201.046L59.98,201.046C59.9,201.046 59.828,201.078 59.776,201.13L59.775,201.13C59.723,201.182 59.691,201.255 59.691,201.334L59.691,202.885C59.691,202.964 59.724,203.036 59.776,203.088C59.828,203.141 59.9,203.173 59.98,203.173L60.566,203.173L60.566,201.046ZM64.86,203.412L64.86,200.807L64.367,200.807L64.367,203.412L64.86,203.412ZM65.591,201.046L65.005,201.046L65.005,203.173L65.591,203.173C65.671,203.173 65.743,203.141 65.795,203.088C65.847,203.036 65.88,202.964 65.88,202.885L65.88,201.334C65.88,201.255 65.847,201.182 65.795,201.13C65.743,201.078 65.671,201.046 65.591,201.046ZM64.683,198.408C64.197,197.922 63.526,197.622 62.785,197.622C62.045,197.622 61.374,197.922 60.888,198.408C60.402,198.893 60.102,199.564 60.102,200.305L60.102,200.901L60.476,200.901L60.476,200.305C60.476,199.668 60.735,199.09 61.153,198.672C61.57,198.254 62.147,197.996 62.785,197.996C63.423,197.996 64,198.254 64.418,198.672C64.836,199.09 65.094,199.668 65.094,200.305L65.094,200.901L65.469,200.901L65.469,200.305C65.469,199.564 65.168,198.893 64.683,198.408Z" style="fill:white;"/>
    </g>
    <defs>
        <linearGradient id="_Linear1" x1="0" y1="0" x2="1" y2="0" gradientUnits="userSpaceOnUse" gradientTransform="matrix(62.7613,0,0,56.1846,0.566605,31.0077)"><stop offset="0" style="stop-color:rgb(246,207,32);stop-opacity:1"/><stop offset="1" style="stop-color:rgb(217,149,25);stop-opacity:1"/></linearGradient>
    </defs>
</svg>
