<?xml version="1.0" encoding="UTF-8" standalone="no"?>
<!DOCTYPE svg PUBLIC "-//W3C//DTD SVG 1.1//EN" "http://www.w3.org/Graphics/SVG/1.1/DTD/svg11.dtd">
<svg width="100%" height="100%" viewBox="0 0 64 64" version="1.1" xmlns="http://www.w3.org/2000/svg" xmlns:xlink="http://www.w3.org/1999/xlink" xml:space="preserve" xmlns:serif="http://www.serif.com/" style="fill-rule:evenodd;clip-rule:evenodd;stroke-linejoin:round;stroke-miterlimit:2;">
    <g transform="matrix(1.30384,0,0,1.30384,-17.4957,0.225536)">
        <path d="M29.008,16.4L27.748,22.111L28.26,26.286L21.281,33.217L21.092,36.809L23.108,40.243L26.731,41.567L30.166,40.559L36.058,34.698L41.162,28.05L40.91,24.543L39.303,22.599L34.608,21.276L35.428,19.007L39.272,15.195L43.462,17.274L46.455,20.614L48.031,25.277L47.968,30.003L46.266,34.32L33.978,46.419L29.095,48.467L21.407,47.27L15.924,42.354L14.097,36.746L15.168,30.382L19.516,24.962L28.141,16.51L29.008,16.4Z" style="fill:url(#_Linear1);"/>
    </g>
    <g transform="matrix(1.30384,0,0,1.30384,-17.4957,0.00505501)">
        <path d="M36.454,34.348L40.834,29.464L41.117,27.889L38.628,27.668L36.328,26.03L34.879,23.761L34.595,21.335L35.761,18.531L41.086,12.954L45.781,8.606L49.782,7.755L53.626,9.803L55.138,13.553L53.878,17.176L47.576,23.194L48.031,26.691L48.031,29.243L47.041,32.835L59.738,20.61L61.881,15.364L61.408,9.583L59.014,5.298L55.201,2.304L51.452,0.918L45.56,1.013L40.582,3.817L34.879,9.835L29.491,15.364L28.073,19.823L27.916,22.942L28.514,26.849L30.184,29.464L33.65,32.646L36.454,34.348Z" style="fill:url(#_Linear2);"/>
    </g>
    <g transform="matrix(11.7777,0,0,11.7777,-4069.99,-1352.79)">
        <path d="M349.927,116.753C349.983,116.697 350.024,116.634 350.052,116.566C350.081,116.495 350.096,116.42 350.096,116.343C350.096,116.267 350.081,116.192 350.052,116.121C350.024,116.053 349.983,115.989 349.928,115.934L349.924,115.93C349.87,115.877 349.807,115.837 349.741,115.809C349.67,115.78 349.594,115.765 349.518,115.765C349.441,115.765 349.365,115.78 349.294,115.809C349.227,115.837 349.163,115.878 349.109,115.932L348.56,116.481C348.634,116.511 348.706,116.546 348.775,116.588C348.875,116.649 348.969,116.722 349.055,116.808C349.196,116.949 349.303,117.113 349.376,117.289L349.38,117.3L349.927,116.753L349.928,116.753L349.927,116.753ZM347.987,117.28L348.005,117.28C348.082,117.28 348.157,117.294 348.228,117.323C348.296,117.351 348.36,117.393 348.415,117.448C348.47,117.503 348.512,117.567 348.539,117.635C348.569,117.705 348.583,117.781 348.583,117.857L348.583,117.875L348.564,117.875C348.488,117.875 348.412,117.86 348.341,117.831C348.273,117.803 348.209,117.762 348.155,117.707L348.154,117.707C348.099,117.652 348.058,117.588 348.03,117.52C348.001,117.449 347.986,117.373 347.986,117.297L347.987,117.28ZM348.01,118.674C347.936,118.644 347.864,118.608 347.795,118.567C347.695,118.506 347.6,118.433 347.514,118.347C347.373,118.205 347.266,118.042 347.194,117.866L347.189,117.854L346.642,118.402C346.587,118.457 346.545,118.521 346.517,118.589C346.488,118.659 346.474,118.735 346.474,118.812C346.474,118.887 346.488,118.963 346.517,119.034C346.545,119.102 346.587,119.166 346.642,119.221L346.645,119.224C346.7,119.278 346.762,119.318 346.829,119.346C346.9,119.375 346.976,119.389 347.051,119.389C347.128,119.389 347.204,119.375 347.275,119.346C347.343,119.318 347.406,119.277 347.461,119.222L348.01,118.674ZM347.081,117.297C347.081,117.373 347.087,117.449 347.098,117.523C347.107,117.584 347.12,117.643 347.137,117.703L346.54,118.3C346.472,118.369 346.42,118.448 346.384,118.534C346.348,118.623 346.329,118.717 346.329,118.812L346.33,118.812C346.33,118.906 346.348,119 346.384,119.089C346.42,119.174 346.472,119.254 346.54,119.323L346.544,119.327C346.612,119.393 346.691,119.444 346.774,119.478C346.862,119.515 346.957,119.533 347.051,119.533C347.146,119.533 347.241,119.515 347.329,119.479C347.415,119.444 347.495,119.393 347.563,119.324L348.518,118.369C348.586,118.3 348.638,118.221 348.673,118.135L348.675,118.129C348.71,118.042 348.727,117.95 348.727,117.857C348.727,117.763 348.709,117.669 348.672,117.58C348.637,117.495 348.585,117.415 348.517,117.347L348.516,117.346C348.448,117.277 348.368,117.226 348.283,117.19C348.195,117.154 348.102,117.136 348.009,117.136C348.018,117.103 348.03,117.071 348.045,117.041C348.072,116.986 348.109,116.934 348.155,116.888L348.158,116.884L348.448,116.593C348.535,116.623 348.62,116.663 348.7,116.712C348.79,116.766 348.875,116.832 348.953,116.91C349.081,117.038 349.178,117.186 349.243,117.343C349.257,117.378 349.27,117.413 349.282,117.449L349.282,117.453C349.303,117.518 349.318,117.585 349.329,117.653C349.339,117.72 349.344,117.789 349.344,117.857C349.344,118.032 349.31,118.207 349.242,118.371C349.177,118.528 349.081,118.676 348.952,118.804L347.998,119.758L347.995,119.762C347.867,119.888 347.72,119.984 347.564,120.049C347.401,120.116 347.226,120.15 347.051,120.15L347.051,120.151C346.876,120.151 346.701,120.117 346.537,120.049C346.38,119.984 346.232,119.887 346.104,119.759C345.976,119.631 345.879,119.483 345.814,119.326C345.746,119.162 345.713,118.987 345.713,118.812L345.712,118.812C345.712,118.637 345.746,118.461 345.814,118.297C345.879,118.14 345.976,117.992 346.104,117.864L346.108,117.86L347.059,116.91C347.091,116.877 347.125,116.847 347.16,116.819C347.147,116.856 347.136,116.893 347.127,116.93C347.116,116.973 347.107,117.017 347.1,117.061L347.1,117.063L347.099,117.066L347.097,117.078L347.097,117.084L347.096,117.089L347.096,117.09L347.095,117.095C347.086,117.162 347.081,117.23 347.081,117.297ZM347.273,116.568C347.338,116.453 347.418,116.346 347.515,116.249L348.473,115.291C348.614,115.151 348.777,115.045 348.95,114.973C349.132,114.898 349.325,114.86 349.518,114.86L349.518,114.861C349.712,114.861 349.905,114.898 350.087,114.973C350.262,115.045 350.426,115.152 350.568,115.294C350.709,115.435 350.816,115.599 350.888,115.774C350.963,115.956 351.001,116.15 351.001,116.343C351.001,116.537 350.963,116.731 350.888,116.912C350.816,117.087 350.709,117.251 350.568,117.393L350.563,117.397L349.612,118.347C349.562,118.396 349.509,118.442 349.454,118.484C349.403,118.522 349.35,118.557 349.297,118.587C349.232,118.702 349.151,118.809 349.054,118.906L348.096,119.864C347.955,120.004 347.792,120.11 347.619,120.181C347.437,120.257 347.244,120.294 347.051,120.294C346.858,120.294 346.664,120.257 346.482,120.182C346.307,120.109 346.143,120.002 346.002,119.861C345.86,119.719 345.754,119.556 345.681,119.38C345.606,119.198 345.568,119.005 345.568,118.812L345.569,118.812C345.569,118.618 345.606,118.424 345.681,118.242C345.754,118.067 345.86,117.903 346.002,117.762L346.006,117.758L346.958,116.808C347.007,116.758 347.06,116.713 347.115,116.671C347.166,116.633 347.219,116.598 347.273,116.568ZM349.488,117.857C349.488,117.782 349.482,117.706 349.471,117.631C349.462,117.571 349.449,117.511 349.432,117.452L350.029,116.854L350.029,116.855C350.098,116.786 350.149,116.706 350.185,116.621C350.221,116.532 350.24,116.437 350.24,116.343C350.24,116.249 350.221,116.154 350.185,116.066C350.15,115.98 350.098,115.9 350.029,115.832L350.025,115.828C349.957,115.761 349.879,115.711 349.795,115.676C349.707,115.64 349.612,115.622 349.518,115.622C349.423,115.622 349.329,115.64 349.24,115.676C349.155,115.71 349.075,115.762 349.006,115.83L348.051,116.786C347.983,116.854 347.931,116.934 347.896,117.019L347.894,117.025C347.859,117.112 347.842,117.205 347.842,117.297C347.842,117.391 347.86,117.486 347.897,117.574C347.932,117.66 347.984,117.739 348.053,117.808L348.053,117.809C348.122,117.877 348.202,117.929 348.287,117.965C348.374,118 348.468,118.019 348.561,118.019C348.552,118.052 348.539,118.084 348.524,118.114C348.497,118.169 348.461,118.22 348.415,118.267L348.121,118.561C348.034,118.531 347.949,118.492 347.869,118.443C347.779,118.389 347.694,118.323 347.616,118.245C347.488,118.117 347.392,117.969 347.327,117.811C347.312,117.777 347.299,117.741 347.288,117.705L347.287,117.701C347.266,117.637 347.251,117.57 347.241,117.502C347.231,117.434 347.225,117.366 347.225,117.297C347.225,117.123 347.259,116.948 347.327,116.784C347.392,116.627 347.489,116.479 347.617,116.35L348.571,115.396L348.575,115.393C348.702,115.266 348.849,115.171 349.005,115.106C349.169,115.038 349.343,115.004 349.518,115.004C349.693,115.004 349.868,115.038 350.032,115.106C350.189,115.171 350.337,115.267 350.465,115.396C350.594,115.524 350.69,115.672 350.755,115.829C350.823,115.993 350.857,116.168 350.857,116.343C350.857,116.518 350.823,116.693 350.755,116.858C350.69,117.015 350.594,117.163 350.465,117.291L350.462,117.295L349.51,118.245C349.478,118.277 349.444,118.308 349.41,118.336C349.422,118.299 349.433,118.262 349.443,118.224C349.454,118.178 349.464,118.13 349.471,118.083L349.472,118.077L349.473,118.074L349.473,118.071L349.474,118.066L349.474,118.065L349.475,118.06C349.484,117.993 349.488,117.925 349.488,117.857Z" style="fill:rgb(230,230,230);"/>
    </g>
    <defs>
        <linearGradient id="_Linear1" x1="0" y1="0" x2="1" y2="0" gradientUnits="userSpaceOnUse" gradientTransform="matrix(33.9337,0,0,33.9337,14.0969,31.8309)"><stop offset="0" style="stop-color:rgb(181,181,181);stop-opacity:1"/><stop offset="1" style="stop-color:rgb(118,118,118);stop-opacity:1"/></linearGradient>
        <linearGradient id="_Linear2" x1="0" y1="0" x2="1" y2="0" gradientUnits="userSpaceOnUse" gradientTransform="matrix(33.9652,0,0,33.9652,27.9157,17.6328)"><stop offset="0" style="stop-color:rgb(171,171,171);stop-opacity:1"/><stop offset="1" style="stop-color:rgb(124,124,124);stop-opacity:1"/></linearGradient>
    </defs>
</svg>
