<?xml version="1.0" encoding="UTF-8" standalone="no"?>
<!DOCTYPE svg PUBLIC "-//W3C//DTD SVG 1.1//EN" "http://www.w3.org/Graphics/SVG/1.1/DTD/svg11.dtd">
<svg width="100%" height="100%" viewBox="0 0 64 64" version="1.1" xmlns="http://www.w3.org/2000/svg" xmlns:xlink="http://www.w3.org/1999/xlink" xml:space="preserve" xmlns:serif="http://www.serif.com/" style="fill-rule:evenodd;clip-rule:evenodd;stroke-linejoin:round;stroke-miterlimit:2;">
    <g transform="matrix(1.48098,0,0,1.48098,-15.3855,-23.6433)">
        <path d="M25.374,48.119L38.652,48.119L38.492,54.53L37.144,55.627L34.767,55.765L34.607,58.187L29.51,58.233L29.419,55.925L26.791,55.696L25.442,54.096L25.374,48.119" style="fill:url(#_Linear1);"/>
    </g>
    <g transform="matrix(1.48098,0,0,1.48098,-15.3855,-23.6433)">
        <path d="M24.95,48.119L23.487,46.177L23.487,41.56L20.882,38.909L18.482,33.218L18.528,28.098L20.196,23.733L23.899,19.574L29.247,17.334L33.178,17.105L36.971,17.951L40.583,20.008L43.142,22.75L44.696,25.379L45.702,29.607L45.336,34.292L43.668,38.086L41.84,40.44L40.537,41.628L40.628,45.879L39.188,48.005L24.95,48.119Z" style="fill:url(#_Linear2);"/>
    </g>
    <g transform="matrix(11.3742,0,0,11.3742,-682.128,-1447.78)">
        <path d="M62.785,127.363C63.298,127.363 63.762,127.571 64.098,127.907C64.434,128.243 64.641,128.707 64.641,129.219C64.641,129.507 64.576,129.78 64.458,130.024C64.341,130.267 64.172,130.481 63.966,130.651L63.966,131.155C63.966,131.26 63.923,131.357 63.854,131.426C63.817,131.463 63.774,131.491 63.725,131.511L63.725,132.147C63.725,132.253 63.682,132.349 63.612,132.418C63.543,132.488 63.447,132.531 63.341,132.531L63.194,132.531L63.194,132.773C63.194,132.808 63.165,132.837 63.13,132.837L62.441,132.837C62.406,132.837 62.377,132.808 62.377,132.773L62.377,132.531L62.23,132.531C62.124,132.531 62.028,132.488 61.958,132.418C61.888,132.348 61.846,132.252 61.846,132.147L61.846,131.511C61.797,131.491 61.754,131.462 61.717,131.426L61.717,131.425C61.647,131.355 61.604,131.26 61.604,131.155L61.604,130.651C61.398,130.481 61.23,130.267 61.112,130.024C60.995,129.78 60.929,129.507 60.929,129.219C60.929,128.707 61.137,128.243 61.473,127.907C61.809,127.571 62.273,127.363 62.785,127.363ZM61.973,131.915L63.597,131.915L63.597,131.539L61.973,131.539L61.973,131.915ZM63.597,132.043L61.973,132.043L61.973,132.147C61.973,132.218 62.002,132.282 62.049,132.328C62.095,132.374 62.159,132.403 62.23,132.403L63.341,132.403C63.411,132.403 63.476,132.374 63.522,132.328C63.568,132.282 63.597,132.217 63.597,132.147L63.597,132.043ZM63.282,131.411L63.282,129.599L62.849,129.599L62.849,129.932C62.849,129.967 62.821,129.996 62.785,129.996C62.75,129.996 62.722,129.967 62.722,129.932L62.722,129.599L62.288,129.599L62.288,131.411L63.282,131.411ZM63.282,129.471L63.282,129.138C63.282,129.103 63.311,129.074 63.346,129.074C63.381,129.074 63.41,129.103 63.41,129.138L63.41,131.411L63.582,131.411C63.653,131.411 63.717,131.382 63.763,131.336C63.809,131.289 63.838,131.225 63.838,131.155L63.838,130.621C63.838,130.602 63.847,130.584 63.862,130.571C64.065,130.41 64.23,130.204 64.343,129.969C64.452,129.742 64.514,129.488 64.514,129.219C64.514,128.742 64.32,128.31 64.007,127.997C63.695,127.685 63.263,127.491 62.785,127.491C62.308,127.491 61.876,127.685 61.563,127.997C61.251,128.31 61.057,128.742 61.057,129.219C61.057,129.488 61.119,129.742 61.227,129.968C61.34,130.203 61.505,130.407 61.706,130.568C61.722,130.58 61.732,130.599 61.732,130.621L61.732,131.155C61.732,131.225 61.761,131.289 61.807,131.336L61.808,131.336C61.854,131.382 61.918,131.411 61.988,131.411L62.16,131.411L62.16,129.138C62.16,129.103 62.189,129.074 62.225,129.074C62.26,129.074 62.288,129.103 62.288,129.138L62.288,129.471L62.722,129.471L62.722,129.138C62.722,129.103 62.75,129.074 62.785,129.074C62.821,129.074 62.849,129.103 62.849,129.138L62.849,129.471L63.282,129.471ZM63.066,132.531L62.505,132.531L62.505,132.709L63.066,132.709L63.066,132.531Z" style="fill:rgb(201,90,21);"/>
    </g>
    <defs>
        <linearGradient id="_Linear1" x1="0" y1="0" x2="1" y2="0" gradientUnits="userSpaceOnUse" gradientTransform="matrix(13.2786,0,0,10.1138,25.3735,53.1761)"><stop offset="0" style="stop-color:rgb(204,204,203);stop-opacity:1"/><stop offset="1" style="stop-color:rgb(137,138,138);stop-opacity:1"/></linearGradient>
        <linearGradient id="_Linear2" x1="0" y1="0" x2="1" y2="0" gradientUnits="userSpaceOnUse" gradientTransform="matrix(27.22,0,0,31.0139,18.482,32.6122)"><stop offset="0" style="stop-color:rgb(238,142,42);stop-opacity:1"/><stop offset="1" style="stop-color:rgb(245,197,27);stop-opacity:1"/></linearGradient>
    </defs>
</svg>
