<?xml version="1.0" encoding="UTF-8" standalone="no"?>
<!DOCTYPE svg PUBLIC "-//W3C//DTD SVG 1.1//EN" "http://www.w3.org/Graphics/SVG/1.1/DTD/svg11.dtd">
<svg width="100%" height="100%" viewBox="0 0 64 64" version="1.1" xmlns="http://www.w3.org/2000/svg" xmlns:xlink="http://www.w3.org/1999/xlink" xml:space="preserve" xmlns:serif="http://www.serif.com/" style="fill-rule:evenodd;clip-rule:evenodd;stroke-linejoin:round;stroke-miterlimit:2;">
    <path d="M46.93,53.492L54.735,53.197L56.655,50.44L56.458,14.256L42.87,0.717L19.043,0.865L16.926,3.08L17.123,10.862L32.729,10.862L46.93,24.594L46.93,53.492Z" style="fill:url(#_Linear1);"/>
    <path d="M9.318,63.538L44.912,63.391L46.93,60.929L46.93,24.597L33.49,10.862L9.86,10.862L7.3,13.52L7.398,60.88L9.318,63.538Z" style="fill:url(#_Linear2);"/>
    <g transform="matrix(9.03734,0,0,9.03734,-203.889,-2111.66)">
        <path d="M23.741,234.771L24.354,234.771L24.354,234.093C24.354,233.973 24.402,233.865 24.481,233.787C24.559,233.709 24.667,233.66 24.786,233.66L27.294,233.66C27.316,233.66 27.336,233.67 27.349,233.685L28.869,235.206C28.884,235.219 28.894,235.239 28.894,235.261L28.893,235.267L28.892,239.198C28.892,239.318 28.843,239.426 28.765,239.504C28.687,239.582 28.578,239.631 28.46,239.631L27.847,239.631L27.847,240.31C27.847,240.429 27.798,240.537 27.72,240.615C27.641,240.693 27.533,240.742 27.414,240.742L23.741,240.742C23.622,240.742 23.514,240.693 23.435,240.615C23.357,240.537 23.309,240.429 23.309,240.31L23.309,235.204C23.309,235.085 23.357,234.977 23.435,234.898C23.514,234.82 23.622,234.771 23.741,234.771ZM28.75,235.333L27.655,235.333C27.536,235.333 27.427,235.284 27.349,235.206C27.271,235.128 27.222,235.02 27.222,234.9L27.222,233.804L24.786,233.804C24.707,233.804 24.635,233.836 24.583,233.889C24.53,233.941 24.498,234.013 24.498,234.093L24.498,234.771L26.176,234.772L26.243,234.772L26.249,234.771C26.271,234.771 26.291,234.781 26.304,234.797L27.039,235.532L27.823,236.317C27.839,236.331 27.849,236.35 27.849,236.372L27.848,236.378L27.847,239.487L28.46,239.487C28.539,239.487 28.611,239.454 28.664,239.402C28.716,239.35 28.748,239.278 28.748,239.198L28.75,235.333ZM27.366,233.906L27.366,234.9C27.366,234.98 27.399,235.052 27.451,235.104C27.503,235.156 27.576,235.189 27.655,235.189L28.648,235.189L27.366,233.906ZM27.703,240.31L27.703,239.552L27.705,236.444L26.61,236.444C26.49,236.444 26.382,236.395 26.304,236.317C26.226,236.239 26.177,236.131 26.177,236.012L26.177,234.915L23.741,234.915C23.662,234.915 23.59,234.948 23.537,235C23.485,235.052 23.453,235.124 23.453,235.204L23.453,240.31C23.453,240.389 23.485,240.461 23.537,240.513C23.59,240.565 23.662,240.598 23.741,240.598L27.414,240.598C27.494,240.598 27.566,240.565 27.618,240.513C27.671,240.461 27.703,240.389 27.703,240.31ZM26.321,235.017L26.321,236.012C26.321,236.091 26.354,236.163 26.406,236.215C26.458,236.267 26.53,236.3 26.61,236.3L27.603,236.3L26.964,235.661L26.321,235.017Z" style="fill:rgb(239,113,0);"/>
    </g>
    <defs>
        <linearGradient id="_Linear1" x1="0" y1="0" x2="1" y2="0" gradientUnits="userSpaceOnUse" gradientTransform="matrix(39.7291,0,0,52.7752,16.9257,27.1047)"><stop offset="0" style="stop-color:rgb(242,122,9);stop-opacity:1"/><stop offset="1" style="stop-color:rgb(223,165,0);stop-opacity:1"/></linearGradient>
        <linearGradient id="_Linear2" x1="0" y1="0" x2="1" y2="0" gradientUnits="userSpaceOnUse" gradientTransform="matrix(39.6306,0,0,52.6768,7.29955,37.2001)"><stop offset="0" style="stop-color:rgb(255,210,0);stop-opacity:1"/><stop offset="1" style="stop-color:rgb(255,191,1);stop-opacity:1"/></linearGradient>
    </defs>
</svg>
