<?xml version="1.0" encoding="UTF-8" standalone="no"?>
<!DOCTYPE svg PUBLIC "-//W3C//DTD SVG 1.1//EN" "http://www.w3.org/Graphics/SVG/1.1/DTD/svg11.dtd">
<svg width="100%" height="100%" viewBox="0 0 64 64" version="1.1" xmlns="http://www.w3.org/2000/svg" xmlns:xlink="http://www.w3.org/1999/xlink" xml:space="preserve" xmlns:serif="http://www.serif.com/" style="fill-rule:evenodd;clip-rule:evenodd;stroke-linejoin:round;stroke-miterlimit:2;">
    <path d="M0.724,12.312L1.611,9.752L4.121,8.324L60.244,8.361L62.526,9.981L63.274,11.989L63.077,51.925L61.856,54.997L56.461,55.864L3.883,55.431L1.323,53.776L0.929,51.492L0.724,12.312Z" style="fill:url(#_Linear1);"/>
    <path d="M23.14,21.22L23.09,42.143L44.9,32L23.14,21.22Z" style="fill:rgb(247,140,30);"/>
    <g transform="matrix(10.5097,0,0,10.5097,-4614.55,-1204.6)">
        <path d="M439.221,119.122L440.261,119.122L440.261,118.242L439.221,118.242L439.221,119.122ZM440.406,119.829L443.838,119.829L443.838,115.498L440.406,115.498L440.406,119.829ZM444.735,119.973L439.487,119.973L439.482,119.972L439.477,119.972L439.471,119.971L439.466,119.971L439.455,119.969L439.449,119.969L439.434,119.966L439.433,119.966L439.418,119.963L439.417,119.963L439.407,119.961L439.402,119.959L439.392,119.957L439.387,119.955L439.386,119.955L439.382,119.954L439.377,119.952L439.376,119.952L439.372,119.95L439.371,119.95L439.367,119.949L439.366,119.948L439.362,119.947L439.357,119.945L439.356,119.945L439.348,119.941L439.347,119.941L439.337,119.937L439.333,119.935L439.332,119.935L439.328,119.933L439.327,119.933L439.323,119.931L439.323,119.93L439.314,119.926L439.313,119.926L439.309,119.923L439.304,119.921L439.3,119.918L439.299,119.918L439.295,119.916L439.291,119.913L439.29,119.913L439.286,119.911L439.286,119.91L439.282,119.908L439.282,119.907L439.278,119.905L439.277,119.905L439.269,119.899L439.268,119.899L439.256,119.89L439.255,119.89L439.252,119.888L439.252,119.887L439.248,119.884L439.247,119.884L439.243,119.88L439.24,119.878L439.236,119.874L439.235,119.874L439.232,119.871L439.231,119.871L439.227,119.867L439.224,119.865L439.22,119.861L439.219,119.861L439.216,119.857L439.212,119.854L439.2,119.842L439.2,119.841L439.197,119.838L439.196,119.838L439.189,119.831L439.189,119.83L439.185,119.826L439.183,119.823L439.179,119.819L439.179,119.818L439.175,119.814L439.173,119.811L439.172,119.81L439.17,119.807L439.166,119.803L439.166,119.802L439.162,119.798L439.16,119.795L439.16,119.794L439.157,119.79L439.156,119.79L439.154,119.786L439.154,119.785L439.151,119.782L439.151,119.781L439.145,119.773L439.145,119.772L439.143,119.769L439.142,119.768L439.14,119.764L439.139,119.763L439.137,119.76L439.137,119.759L439.134,119.755L439.132,119.751L439.132,119.75L439.129,119.746L439.127,119.741L439.124,119.737L439.124,119.736L439.122,119.732L439.12,119.727L439.119,119.727L439.118,119.723L439.117,119.722L439.115,119.718L439.115,119.717L439.107,119.699L439.107,119.698L439.105,119.694L439.105,119.693L439.103,119.689L439.103,119.688L439.102,119.684L439.101,119.683L439.1,119.679L439.1,119.678L439.098,119.674L439.098,119.673L439.096,119.668L439.095,119.664L439.095,119.663L439.093,119.658L439.091,119.648L439.089,119.643L439.087,119.633L439.087,119.632L439.084,119.617L439.084,119.616L439.081,119.601L439.081,119.595L439.079,119.585L439.079,119.579L439.078,119.573L439.078,119.568L439.077,119.563L439.077,115.786C439.077,115.667 439.126,115.559 439.204,115.48C439.282,115.402 439.39,115.354 439.51,115.354L444.735,115.354C444.854,115.354 444.962,115.402 445.04,115.48L445.04,115.481C445.118,115.559 445.167,115.667 445.167,115.786L445.167,119.54C445.167,119.66 445.118,119.768 445.04,119.846C444.962,119.924 444.854,119.973 444.735,119.973ZM441.301,116.537L443.379,117.561C443.414,117.579 443.429,117.622 443.411,117.657C443.404,117.672 443.392,117.684 443.378,117.69L441.297,118.716C441.261,118.734 441.218,118.719 441.201,118.683C441.196,118.673 441.193,118.662 441.193,118.652L441.193,116.6C441.193,116.56 441.225,116.528 441.265,116.528C441.278,116.528 441.291,116.531 441.301,116.537ZM443.184,117.625L441.337,118.536L441.337,116.715L443.184,117.625ZM444.735,115.498L443.983,115.498L443.983,116.064L445.023,116.064L445.023,115.786C445.023,115.707 444.991,115.634 444.938,115.582C444.886,115.53 444.814,115.498 444.735,115.498ZM443.983,116.209L443.983,117.084L445.023,117.084L445.023,116.209L443.983,116.209ZM443.983,117.228L443.983,118.098L445.023,118.098L445.023,117.228L443.983,117.228ZM443.983,118.242L443.983,119.122L445.023,119.122L445.023,118.242L443.983,118.242ZM443.983,119.267L443.983,119.829L444.735,119.829C444.814,119.829 444.886,119.796 444.938,119.744C444.99,119.692 445.023,119.62 445.023,119.54L445.023,119.267L443.983,119.267ZM440.261,119.267L439.221,119.267L439.221,119.54C439.221,119.62 439.253,119.692 439.306,119.744C439.358,119.797 439.43,119.829 439.51,119.829L440.261,119.829L440.261,119.267ZM440.261,115.498L439.51,115.498C439.43,115.498 439.358,115.53 439.306,115.582C439.254,115.634 439.221,115.707 439.221,115.786L439.221,116.064L440.261,116.064L440.261,115.498ZM439.221,116.209L439.221,117.084L440.261,117.084L440.261,116.209L439.221,116.209ZM439.221,117.228L439.221,118.098L440.261,118.098L440.261,117.228L439.221,117.228Z" style="fill:rgb(0,66,127);"/>
    </g>
    <defs>
        <linearGradient id="_Linear1" x1="0" y1="0" x2="1" y2="0" gradientUnits="userSpaceOnUse" gradientTransform="matrix(62.55,0,0,47.5395,0.724385,32.094)"><stop offset="0" style="stop-color:rgb(80,230,255);stop-opacity:1"/><stop offset="1" style="stop-color:rgb(25,138,179);stop-opacity:1"/></linearGradient>
    </defs>
</svg>
