<?xml version="1.0" encoding="UTF-8" standalone="no"?>
<!DOCTYPE svg PUBLIC "-//W3C//DTD SVG 1.1//EN" "http://www.w3.org/Graphics/SVG/1.1/DTD/svg11.dtd">
<svg width="100%" height="100%" viewBox="0 0 64 64" version="1.1" xmlns="http://www.w3.org/2000/svg" xmlns:xlink="http://www.w3.org/1999/xlink" xml:space="preserve" xmlns:serif="http://www.serif.com/" style="fill-rule:evenodd;clip-rule:evenodd;stroke-linejoin:round;stroke-miterlimit:2;">
    <path d="M12.809,63.395L10.21,60.401L10.052,11.919L7.689,11.683L7.335,4.869L27.657,4.515L27.539,0.931L36.125,0.891L36.637,4.79L56.622,4.82L56.499,11.897L53.976,11.958L53.914,59.897L51.945,63.035L12.809,63.395Z" style="fill:url(#_Linear1);"/>
    <g transform="matrix(10.4427,0,0,10.4427,-1006.73,-2189.64)">
        <path d="M101.745,210.208L97.194,210.208L97.194,210.737L101.745,210.737L101.745,210.208ZM100.79,210.881L100.79,215.665L101.203,215.665C101.361,215.665 101.491,215.535 101.491,215.377C101.491,215.377 101.491,215.376 101.491,215.376L101.491,210.881L100.79,210.881ZM100.646,215.665L100.646,210.881L99.545,210.881L99.545,215.665L100.646,215.665ZM99.401,215.665L99.401,210.881L98.297,210.881L98.297,215.665L99.401,215.665ZM98.153,215.665L98.153,210.881L97.448,210.881L97.448,215.376C97.449,215.534 97.579,215.664 97.737,215.665L98.153,215.665ZM98.997,210.064L98.997,209.753C98.997,209.713 99.03,209.681 99.07,209.681L99.87,209.681C99.91,209.681 99.942,209.713 99.942,209.753L99.942,210.064L101.817,210.064C101.857,210.064 101.889,210.096 101.889,210.136L101.889,210.809C101.889,210.849 101.857,210.881 101.817,210.881L101.635,210.881L101.635,215.376C101.635,215.49 101.589,215.6 101.508,215.681L101.508,215.682C101.427,215.763 101.317,215.809 101.202,215.809L97.737,215.809C97.499,215.809 97.304,215.614 97.304,215.376L97.304,210.881L97.122,210.881C97.083,210.881 97.05,210.848 97.05,210.809L97.05,210.136C97.05,210.096 97.083,210.064 97.122,210.064L98.997,210.064ZM99.798,210.064L99.798,209.825L99.142,209.825L99.142,210.064L99.798,210.064Z" style="fill:rgb(221,167,0);"/>
    </g>
    <defs>
        <linearGradient id="_Linear1" x1="0" y1="0" x2="1" y2="0" gradientUnits="userSpaceOnUse" gradientTransform="matrix(49.2873,0,0,62.5033,7.33461,32.1429)"><stop offset="0" style="stop-color:rgb(130,16,16);stop-opacity:1"/><stop offset="1" style="stop-color:rgb(230,35,35);stop-opacity:1"/></linearGradient>
    </defs>
</svg>
