<?xml version="1.0" encoding="UTF-8" standalone="no"?>
<!DOCTYPE svg PUBLIC "-//W3C//DTD SVG 1.1//EN" "http://www.w3.org/Graphics/SVG/1.1/DTD/svg11.dtd">
<svg width="100%" height="100%" viewBox="0 0 64 64" version="1.1" xmlns="http://www.w3.org/2000/svg" xmlns:xlink="http://www.w3.org/1999/xlink" xml:space="preserve" xmlns:serif="http://www.serif.com/" style="fill-rule:evenodd;clip-rule:evenodd;stroke-linejoin:round;stroke-miterlimit:2;">
    <path d="M27.588,46.393L27.588,55.659L14.618,55.659L14.618,46.425L5.336,46.425L5.336,55.659L2.771,55.659L2.771,58.705L61.045,58.705L61.045,55.659L58.608,55.659L58.608,46.393L60.917,46.393L60.917,43.347L2.643,43.347L2.643,46.393L27.588,46.393ZM36.87,46.393L36.87,55.659L49.326,55.659L49.326,46.393L36.87,46.393Z" style="fill:url(#_Linear1);"/>
    <g transform="matrix(0.991634,0,0,1,-0.431895,-0.436052)">
        <path d="M57.218,9.339C57.218,7.702 55.878,6.373 54.227,6.373L11.152,6.373C9.502,6.373 8.162,7.702 8.162,9.339L8.162,40.473C8.162,42.109 9.502,43.438 11.152,43.438L54.227,43.438C55.878,43.438 57.218,42.109 57.218,40.473L57.218,9.339Z" style="fill:url(#_Linear2);"/>
    </g>
    <g transform="matrix(8.6177,0,0,8.6177,-3672.7,-1906.75)">
        <path d="M426.539,226.547L433.249,226.547L433.249,226.362L432.37,226.362C432.364,226.362 432.359,226.363 432.353,226.363L427.435,226.363C427.429,226.363 427.424,226.362 427.418,226.362L426.539,226.362L426.539,226.547ZM430.521,221.991L430.521,223.504C430.521,223.52 430.516,223.534 430.508,223.546L430.324,223.824C430.302,223.856 430.258,223.865 430.225,223.844C430.216,223.838 430.209,223.831 430.204,223.824L430.079,223.635L429.954,223.824C429.933,223.856 429.888,223.865 429.855,223.844C429.846,223.838 429.839,223.831 429.834,223.824L429.709,223.635L429.584,223.824C429.562,223.856 429.518,223.865 429.484,223.844C429.476,223.838 429.469,223.831 429.464,223.824L429.279,223.543C429.271,223.531 429.267,223.518 429.267,223.504L429.267,221.991L427.435,221.991C427.356,221.991 427.284,222.023 427.232,222.075L427.231,222.076C427.18,222.128 427.147,222.2 427.147,222.279L427.147,225.93C427.147,226.009 427.18,226.081 427.232,226.133C427.284,226.185 427.356,226.218 427.435,226.218L432.353,226.218C432.432,226.218 432.504,226.185 432.557,226.133C432.608,226.081 432.641,226.009 432.641,225.93L432.641,222.279C432.641,222.2 432.608,222.128 432.556,222.076C432.504,222.024 432.432,221.991 432.353,221.991L430.521,221.991ZM429.411,221.991L430.377,221.991L430.377,223.483L430.264,223.654L430.139,223.465C430.117,223.432 430.073,223.423 430.039,223.445C430.031,223.45 430.024,223.457 430.019,223.465L429.894,223.654L429.769,223.465C429.747,223.432 429.703,223.423 429.67,223.445C429.661,223.45 429.654,223.457 429.649,223.465L429.524,223.654L429.411,223.483L429.411,221.991ZM432.04,225.52C432.04,225.56 432.008,225.592 431.968,225.592C431.928,225.592 431.896,225.56 431.896,225.52L431.896,224.507L431.847,224.632C431.833,224.669 431.792,224.688 431.754,224.673C431.717,224.659 431.699,224.617 431.713,224.58L431.897,224.104C431.903,224.07 431.932,224.044 431.968,224.044L431.972,224.045L431.977,224.045C432.003,224.048 432.027,224.065 432.037,224.091L432.223,224.58C432.237,224.618 432.218,224.659 432.181,224.674C432.144,224.688 432.102,224.669 432.088,224.632L432.04,224.506L432.04,225.52ZM431.471,225.52C431.471,225.56 431.438,225.592 431.398,225.592C431.359,225.592 431.326,225.56 431.326,225.52L431.326,224.507L431.278,224.632C431.264,224.669 431.222,224.688 431.185,224.673C431.148,224.659 431.129,224.617 431.144,224.58L431.327,224.104C431.333,224.07 431.363,224.044 431.398,224.044C431.403,224.044 431.409,224.045 431.413,224.046L431.415,224.046L431.416,224.047C431.42,224.047 431.422,224.048 431.426,224.049C431.445,224.057 431.46,224.073 431.467,224.091L431.653,224.58C431.668,224.618 431.649,224.659 431.612,224.674C431.575,224.688 431.533,224.669 431.519,224.632L431.471,224.506L431.471,225.52ZM432.156,225.759C432.196,225.759 432.228,225.791 432.228,225.831C432.228,225.871 432.196,225.903 432.156,225.903L431.211,225.903C431.171,225.903 431.139,225.871 431.139,225.831C431.139,225.791 431.171,225.759 431.211,225.759L432.156,225.759ZM432.786,222.279L432.786,225.93C432.786,226.04 432.744,226.141 432.675,226.218L433.321,226.218C433.361,226.218 433.393,226.251 433.393,226.29L433.393,226.619C433.393,226.659 433.361,226.691 433.321,226.691L433.053,226.691L433.053,227.626L433.321,227.626C433.361,227.626 433.393,227.658 433.393,227.698L433.393,228.027C433.393,228.067 433.361,228.099 433.321,228.099L426.467,228.099C426.427,228.099 426.395,228.067 426.395,228.027L426.395,227.698C426.395,227.658 426.427,227.626 426.467,227.626L426.735,227.626L426.735,226.691L426.467,226.691C426.427,226.691 426.395,226.659 426.395,226.619L426.395,226.29C426.395,226.251 426.427,226.218 426.467,226.218L427.113,226.218C427.044,226.141 427.002,226.04 427.002,225.93L427.002,222.279C427.002,222.16 427.051,222.052 427.129,221.974L427.129,221.973L427.13,221.973C427.208,221.895 427.316,221.846 427.435,221.846L432.353,221.846C432.472,221.846 432.58,221.895 432.659,221.973C432.737,222.052 432.786,222.16 432.786,222.279ZM427.961,226.691L427.961,227.626L429.281,227.626L429.281,226.691L427.961,226.691ZM426.879,226.691L426.879,227.626L427.817,227.626L427.817,226.691L426.879,226.691ZM431.827,227.626L431.827,226.691L430.507,226.691L430.507,227.626L431.827,227.626ZM431.971,226.691L431.971,227.626L432.909,227.626L432.909,226.691L431.971,226.691ZM433.249,227.77L426.539,227.77L426.539,227.955L433.249,227.955L433.249,227.77ZM430.363,226.691L429.425,226.691L429.425,227.626L430.363,227.626L430.363,226.691Z" style="fill:rgb(201,90,21);"/>
    </g>
    <defs>
        <linearGradient id="_Linear1" x1="0" y1="0" x2="1" y2="0" gradientUnits="userSpaceOnUse" gradientTransform="matrix(58.4021,0,0,15.358,2.64303,51.0262)"><stop offset="0" style="stop-color:rgb(238,142,42);stop-opacity:1"/><stop offset="1" style="stop-color:rgb(218,108,28);stop-opacity:1"/></linearGradient>
        <linearGradient id="_Linear2" x1="0" y1="0" x2="1" y2="0" gradientUnits="userSpaceOnUse" gradientTransform="matrix(49.0558,0,0,37.0644,8.16181,24.9055)"><stop offset="0" style="stop-color:rgb(246,207,33);stop-opacity:1"/><stop offset="1" style="stop-color:rgb(215,146,24);stop-opacity:1"/></linearGradient>
    </defs>
</svg>
