<?xml version="1.0" encoding="UTF-8" standalone="no"?>
<!DOCTYPE svg PUBLIC "-//W3C//DTD SVG 1.1//EN" "http://www.w3.org/Graphics/SVG/1.1/DTD/svg11.dtd">
<svg width="100%" height="100%" viewBox="0 0 64 64" version="1.1" xmlns="http://www.w3.org/2000/svg" xmlns:xlink="http://www.w3.org/1999/xlink" xml:space="preserve" xmlns:serif="http://www.serif.com/" style="fill-rule:evenodd;clip-rule:evenodd;stroke-linejoin:round;stroke-miterlimit:2;">
    <path d="M4.875,51.287L6.104,53.871L10.767,54.753L13.116,59.164L24.914,55.484L21.795,49.649L11.964,45.332L8.908,39.251L4.875,51.287Z" style="fill:rgb(255,240,189);"/>
    <path d="M2.12,60.141L3.695,61.685L13.116,59.385L10.564,54.659L6.247,54.249L4.672,51.981L2.12,60.141Z"/>
    <path d="M8.57,38.365L44.311,3.066L48.348,2.574L61.247,15.325L61.371,19.561L25.569,55.484L22.073,49.724L12.473,45.293L8.57,38.365Z" style="fill:url(#_Linear1);"/>
    <g transform="matrix(7.84453,7.84453,-7.84453,7.84453,2046.94,-2967.98)">
        <path d="M62.254,321.674L62.254,316.778L62.071,316.778C61.991,316.778 61.92,316.81 61.867,316.863C61.815,316.915 61.783,316.987 61.783,317.067L61.783,321.508L62.254,321.674ZM62.398,316.778L62.398,321.669L63.162,321.357L63.172,321.353L63.172,316.778L62.398,316.778ZM63.316,316.778L63.316,321.346L63.32,321.346L63.787,321.466L63.788,317.066C63.788,316.987 63.755,316.915 63.703,316.863C63.651,316.81 63.579,316.778 63.5,316.778L63.316,316.778ZM63.93,321.545C63.932,321.555 63.932,321.566 63.93,321.577C63.927,321.587 63.922,321.596 63.916,321.604L63.008,323.31C62.985,323.352 62.953,323.385 62.915,323.408C62.877,323.431 62.833,323.443 62.785,323.443L62.785,323.444C62.738,323.444 62.694,323.432 62.655,323.408C62.617,323.385 62.585,323.352 62.563,323.31L61.649,321.597C61.642,321.585 61.639,321.572 61.639,321.559L61.639,317.067C61.639,316.948 61.687,316.84 61.765,316.761L61.766,316.761L61.767,316.76C61.845,316.682 61.953,316.634 62.071,316.634L63.5,316.634C63.619,316.634 63.727,316.683 63.805,316.761C63.883,316.84 63.932,316.948 63.932,317.066L63.932,317.067L63.93,321.545ZM63.752,321.605L63.27,322.512L62.898,322.359C62.873,322.35 62.844,322.354 62.823,322.372L62.538,322.625L62.318,322.547L61.861,321.688L62.238,321.821C62.267,321.832 62.297,321.836 62.327,321.836C62.358,321.835 62.387,321.829 62.416,321.816L62.417,321.817L63.216,321.49C63.228,321.486 63.239,321.483 63.25,321.482C63.261,321.481 63.273,321.482 63.284,321.486L63.752,321.605ZM62.419,322.736L62.689,323.242C62.699,323.261 62.713,323.275 62.729,323.285C62.745,323.295 62.764,323.3 62.785,323.3C62.806,323.3 62.825,323.295 62.841,323.285C62.858,323.275 62.871,323.261 62.881,323.242L63.202,322.64L62.885,322.509L62.606,322.757C62.587,322.777 62.557,322.785 62.53,322.775L62.419,322.736Z" style="fill:rgb(178,178,178);"/>
    </g>
    <defs>
        <linearGradient id="_Linear1" x1="0" y1="0" x2="1" y2="0" gradientUnits="userSpaceOnUse" gradientTransform="matrix(52.8009,0,0,52.9099,8.56979,29.0291)"><stop offset="0" style="stop-color:rgb(255,209,0);stop-opacity:1"/><stop offset="1" style="stop-color:rgb(223,165,0);stop-opacity:1"/></linearGradient>
    </defs>
</svg>
