<?xml version="1.0" encoding="UTF-8" standalone="no"?>
<!DOCTYPE svg PUBLIC "-//W3C//DTD SVG 1.1//EN" "http://www.w3.org/Graphics/SVG/1.1/DTD/svg11.dtd">
<svg width="100%" height="100%" viewBox="0 0 64 64" version="1.1" xmlns="http://www.w3.org/2000/svg"
     xml:space="preserve"
     style="fill-rule:evenodd;clip-rule:evenodd;stroke-linejoin:round;stroke-miterlimit:2;">
    <path d="M12.146,0.671L8.801,2.123L8.485,6.667L8.675,59.558L9.558,61.894L10.757,62.967L19.846,63.345L40.17,63.156L52.54,63.03L55.191,60.821L55.507,42.012L55.633,17.018L39.602,0.923L12.146,0.671Z" style="fill:url(#_Linear1);"/>
    <path d="M38.97,1.744L39.223,12.347L40.611,16.197L44.777,16.955L52.036,16.955L54.909,16.889L53.454,15.152L40.124,1.539L38.97,1.744Z" style="fill:rgb(201,90,21);"/>
    <g transform="matrix(1,0,0,1,-0.0807889,-0.403945)">
        <circle cx="44.4" cy="48.41" r="5.857" style="fill:rgb(220,41,45);"/>
    </g>
    <g transform="matrix(10.7185,0,0,10.7185,-116.697,-1228.25)">
        <path d="M12.035,114.592L14.544,114.592C14.566,114.592 14.585,114.602 14.599,114.617L16.118,116.138C16.133,116.151 16.143,116.171 16.143,116.193L16.143,116.199L16.141,120.13C16.141,120.25 16.093,120.358 16.014,120.436C15.936,120.514 15.828,120.563 15.709,120.563L12.035,120.563L12.035,120.562C11.917,120.562 11.808,120.514 11.73,120.436C11.652,120.357 11.603,120.249 11.603,120.13L11.603,115.024C11.603,114.906 11.652,114.798 11.73,114.719C11.808,114.641 11.917,114.592 12.035,114.592ZM12.432,118.403L14.578,118.403C14.618,118.403 14.65,118.371 14.65,118.331C14.65,118.291 14.618,118.259 14.578,118.259L12.432,118.259C12.392,118.259 12.36,118.291 12.36,118.331C12.36,118.371 12.392,118.403 12.432,118.403ZM12.432,117.607L15.157,117.607C15.197,117.607 15.23,117.575 15.23,117.535C15.23,117.495 15.197,117.463 15.157,117.463L12.432,117.463C12.392,117.463 12.36,117.495 12.36,117.535C12.36,117.575 12.392,117.607 12.432,117.607ZM12.432,116.858L14.952,116.858C14.991,116.858 15.024,116.826 15.024,116.786C15.024,116.746 14.991,116.714 14.952,116.714L12.432,116.714C12.392,116.714 12.36,116.746 12.36,116.786C12.36,116.826 12.392,116.858 12.432,116.858ZM15.041,118.657C14.922,118.657 14.814,118.705 14.736,118.783L14.732,118.787C14.656,118.865 14.609,118.971 14.609,119.088C14.609,119.208 14.658,119.316 14.736,119.394C14.814,119.472 14.922,119.52 15.041,119.52C15.16,119.52 15.268,119.472 15.346,119.394C15.424,119.316 15.472,119.208 15.472,119.088C15.472,118.969 15.424,118.861 15.346,118.783C15.268,118.705 15.16,118.657 15.041,118.657ZM14.634,118.681L14.63,118.686C14.528,118.79 14.465,118.932 14.465,119.088C14.465,119.247 14.529,119.391 14.634,119.496C14.738,119.6 14.882,119.664 15.041,119.664C15.2,119.664 15.344,119.6 15.448,119.496C15.552,119.391 15.617,119.247 15.617,119.088C15.617,118.93 15.552,118.786 15.448,118.682L15.448,118.681C15.343,118.577 15.2,118.513 15.041,118.513C14.882,118.513 14.738,118.577 14.634,118.681ZM15.999,116.265L14.904,116.265C14.785,116.265 14.677,116.216 14.599,116.138L14.598,116.137C14.52,116.058 14.472,115.951 14.472,115.832L14.472,114.736L12.035,114.736C11.956,114.736 11.884,114.768 11.832,114.821C11.78,114.873 11.747,114.945 11.747,115.024L11.747,120.13C11.747,120.21 11.78,120.282 11.832,120.334C11.884,120.386 11.956,120.419 12.035,120.419L12.035,120.418L15.709,120.418C15.789,120.418 15.861,120.386 15.913,120.334C15.965,120.282 15.997,120.21 15.997,120.13L15.999,116.265ZM14.616,114.838L14.616,115.832C14.616,115.912 14.648,115.984 14.7,116.036L14.701,116.036C14.752,116.088 14.825,116.121 14.904,116.121L15.897,116.121L14.616,114.838Z" style="fill:rgb(198,127,0);"/>
    </g>
    <defs>
        <linearGradient id="_Linear1" x1="0" y1="0" x2="1" y2="0" gradientUnits="userSpaceOnUse" gradientTransform="matrix(47.1479,0,0,62.6746,8.48521,32.0081)"><stop offset="0" style="stop-color:rgb(241,162,42);stop-opacity:1"/><stop offset="1" style="stop-color:rgb(238,143,42);stop-opacity:1"/></linearGradient>
    </defs>
</svg>
