<?xml version="1.0" encoding="UTF-8" standalone="no"?>
<!DOCTYPE svg PUBLIC "-//W3C//DTD SVG 1.1//EN" "http://www.w3.org/Graphics/SVG/1.1/DTD/svg11.dtd">
<svg width="100%" height="100%" viewBox="0 0 64 64" version="1.1" xmlns="http://www.w3.org/2000/svg" xmlns:xlink="http://www.w3.org/1999/xlink" xml:space="preserve" xmlns:serif="http://www.serif.com/" style="fill-rule:evenodd;clip-rule:evenodd;stroke-linejoin:round;stroke-miterlimit:2;">
    <path d="M45.371,60.217L45.174,53.965L33.581,48.746L37.051,39.59L53.741,34.519L53.741,32.796L48.374,32.746L44.682,29.645L42.467,33.239L36.362,32.648L40.941,27.018L41.039,21.03L45.765,16.057L45.224,11.528L55.941,11.922L59.747,17.337L62.897,26.346L63.144,34.47L60.879,44.217L59.194,48.1L49.553,58.34L45.371,60.217Z" style="fill:url(#_Linear1);"/>
    <path d="M8.981,53.525L16.058,46.218L11.289,32.987L7.751,30.218L8.905,21.141L23.006,17.707L24.926,7.467L29.209,7.172L29.16,11.11L32.705,9.338L33.295,0.673L38.661,1.559L47.326,4.415L53.874,9.633L55.941,11.701L45.357,11.701L45.701,16.033L41.221,21.055L40.68,26.913L36.2,32.673L42.255,33.215L44.421,29.719L47.966,32.624L53.48,32.919L54.071,34.248L36.938,39.861L33.209,48.562L45.394,54.162L45.886,60.132L37.825,62.962L26.501,62.778L15.548,58.778L8.981,53.525Z" style="fill:url(#_Linear2);"/>
    <path d="M33.581,0.673L32.715,9.41L29.249,11.301L29.288,7.402L24.917,7.717L22.947,17.681L8.887,21.383L7.751,30.245L11.211,32.529L16.331,45.644L9.517,53.364L5.145,48.283L1.955,40.564L0.695,33.396L1.522,25.519L4.003,18.233L8.729,11.34L14.48,6.142L23.971,1.849L33.581,0.673Z" style="fill:url(#_Linear3);"/>
    <g transform="matrix(10.2162,0,0,10.2162,-4359.86,-3238.6)">
        <path d="M427.659,322.123L428.279,321.471L427.803,320.237L427.463,320.016C427.438,319.999 427.426,319.97 427.431,319.942L427.543,319.081C427.547,319.05 427.57,319.027 427.597,319.02L428.945,318.691L429.132,317.729C429.138,317.696 429.166,317.673 429.198,317.671L429.606,317.625C429.645,317.621 429.68,317.649 429.685,317.689L429.685,317.704L429.668,318.011L429.893,317.893L429.952,317.164C429.953,317.16 429.953,317.157 429.954,317.154C429.934,317.153 429.914,317.153 429.894,317.153C429.694,317.153 429.499,317.172 429.31,317.21C429.116,317.248 428.929,317.305 428.751,317.379C428.569,317.454 428.397,317.547 428.235,317.655C428.072,317.764 427.92,317.889 427.781,318.028C427.642,318.167 427.517,318.319 427.408,318.482C427.3,318.643 427.208,318.816 427.132,318.998C427.059,319.176 427.002,319.363 426.963,319.556C426.926,319.745 426.906,319.94 426.906,320.14C426.906,320.341 426.926,320.536 426.963,320.725C427.002,320.918 427.059,321.105 427.132,321.284L427.134,321.287C427.209,321.467 427.301,321.639 427.408,321.799C427.484,321.913 427.568,322.021 427.659,322.123ZM430.095,317.16C430.225,317.168 430.353,317.185 430.478,317.21C430.671,317.248 430.857,317.305 431.034,317.377L431.037,317.379C431.219,317.454 431.392,317.547 431.553,317.655C431.716,317.764 431.868,317.889 432.006,318.028L432.007,318.028C432.033,318.053 432.057,318.079 432.082,318.106L431.177,318.062C431.171,318.061 431.164,318.061 431.157,318.062C431.118,318.069 431.091,318.107 431.098,318.146L431.17,318.56L430.729,319.008C430.717,319.02 430.71,319.037 430.709,319.056L430.687,319.606L430.25,320.145C430.241,320.156 430.234,320.17 430.233,320.185C430.228,320.225 430.257,320.26 430.297,320.265L430.886,320.328C430.913,320.332 430.942,320.32 430.957,320.295L431.127,320.023L431.432,320.276L431.432,320.275C431.444,320.285 431.46,320.292 431.477,320.292L431.958,320.294L431.961,320.312L431.104,320.572C431.102,320.573 431.099,320.573 431.097,320.574L430.342,320.823C430.323,320.83 430.306,320.844 430.298,320.864L429.933,321.732L429.932,321.734C429.916,321.77 429.932,321.813 429.969,321.829L431.128,322.338L431.12,322.866C431.092,322.879 431.065,322.891 431.037,322.902C430.859,322.976 430.672,323.033 430.478,323.071C430.289,323.108 430.094,323.128 429.894,323.128C429.694,323.128 429.498,323.108 429.31,323.071C429.116,323.033 428.929,322.976 428.751,322.902C428.57,322.827 428.397,322.734 428.235,322.626C428.072,322.517 427.92,322.392 427.781,322.253L427.757,322.229L428.414,321.538C428.434,321.516 428.439,321.485 428.428,321.459L427.928,320.163C427.922,320.148 427.912,320.136 427.9,320.128L427.578,319.919L427.679,319.149L429.024,318.82C429.052,318.813 429.072,318.791 429.077,318.764L429.263,317.809L429.537,317.778L429.517,318.13C429.515,318.169 429.545,318.203 429.585,318.206C429.598,318.206 429.611,318.203 429.622,318.198L429.622,318.197L429.994,318.003C430.017,317.991 430.03,317.969 430.032,317.945L430.033,317.945L430.095,317.176C430.096,317.171 430.096,317.165 430.095,317.16ZM431.265,322.796C431.364,322.745 431.461,322.688 431.553,322.626C431.716,322.517 431.868,322.392 432.006,322.253L432.007,322.253C432.145,322.115 432.27,321.963 432.379,321.799C432.487,321.638 432.58,321.465 432.656,321.284C432.656,321.284 432.786,320.917 432.825,320.725C432.862,320.536 432.882,320.341 432.882,320.14C432.882,319.94 432.862,319.745 432.825,319.556C432.786,319.362 432.729,319.175 432.656,318.998C432.58,318.816 432.488,318.643 432.379,318.481C432.328,318.404 432.272,318.329 432.214,318.257L431.256,318.21L431.319,318.572C431.322,318.594 431.316,318.617 431.299,318.634L430.852,319.089L430.831,319.635C430.83,319.65 430.825,319.665 430.815,319.678L430.444,320.135L430.859,320.18L431.047,319.879C431.049,319.875 431.051,319.872 431.054,319.868C431.079,319.837 431.125,319.833 431.155,319.859L431.504,320.148L432.022,320.15C432.057,320.15 432.089,320.177 432.093,320.213L432.111,320.353C432.116,320.388 432.095,320.422 432.061,320.432L431.146,320.71L431.142,320.712L430.418,320.95L430.092,321.725L431.229,322.225C431.255,322.236 431.273,322.262 431.273,322.292L431.265,322.796ZM431.633,317.535C431.804,317.65 431.963,317.781 432.108,317.926C432.254,318.071 432.385,318.231 432.499,318.401C432.612,318.571 432.71,318.752 432.789,318.943C432.866,319.13 432.926,319.326 432.966,319.529C433.005,319.727 433.026,319.931 433.026,320.14C433.026,320.35 433.005,320.555 432.966,320.753C432.926,320.954 432.867,321.149 432.79,321.334L432.789,321.338C432.71,321.528 432.612,321.709 432.499,321.879C432.385,322.05 432.254,322.21 432.108,322.354L432.108,322.355C431.963,322.5 431.804,322.631 431.633,322.746C431.503,322.832 431.367,322.909 431.226,322.976C431.223,322.977 431.22,322.979 431.217,322.98C431.176,322.999 431.134,323.018 431.092,323.035C430.905,323.113 430.709,323.172 430.506,323.212C430.308,323.252 430.103,323.272 429.894,323.272C429.685,323.272 429.48,323.252 429.282,323.212C429.08,323.172 428.884,323.113 428.696,323.035C428.506,322.956 428.325,322.859 428.156,322.746C427.984,322.631 427.825,322.5 427.68,322.355C427.534,322.21 427.403,322.05 427.289,321.879C427.176,321.711 427.08,321.531 427.001,321.342L427,321.338C426.922,321.152 426.862,320.956 426.822,320.752C426.783,320.554 426.762,320.35 426.762,320.14C426.762,319.931 426.783,319.727 426.822,319.529C426.862,319.326 426.922,319.13 427,318.943C427.078,318.752 427.176,318.571 427.289,318.402C427.404,318.23 427.535,318.07 427.679,317.926L427.68,317.926C427.825,317.781 427.984,317.65 428.156,317.535C428.325,317.422 428.506,317.324 428.696,317.246C428.884,317.168 429.08,317.108 429.283,317.068C429.481,317.029 429.685,317.009 429.894,317.009C430.103,317.009 430.308,317.029 430.505,317.068C430.707,317.108 430.902,317.168 431.088,317.244L431.092,317.246C431.282,317.324 431.463,317.422 431.633,317.535Z" style="fill:rgb(230,230,230);"/>
    </g>
    <defs>
        <linearGradient id="_Linear1" x1="0" y1="0" x2="1" y2="0" gradientUnits="userSpaceOnUse" gradientTransform="matrix(29.5624,0,0,48.6892,33.5811,35.8726)"><stop offset="0" style="stop-color:rgb(50,211,245);stop-opacity:1"/><stop offset="1" style="stop-color:rgb(27,146,186);stop-opacity:1"/></linearGradient>
        <linearGradient id="_Linear2" x1="0" y1="0" x2="1" y2="0" gradientUnits="userSpaceOnUse" gradientTransform="matrix(48.1907,0,0,62.2892,7.75069,31.8177)"><stop offset="0" style="stop-color:rgb(180,236,54);stop-opacity:1"/><stop offset="1" style="stop-color:rgb(104,165,39);stop-opacity:1"/></linearGradient>
        <linearGradient id="_Linear3" x1="0" y1="0" x2="1" y2="0" gradientUnits="userSpaceOnUse" gradientTransform="matrix(32.8861,0,0,52.6906,0.695005,27.0184)"><stop offset="0" style="stop-color:rgb(49,209,242);stop-opacity:1"/><stop offset="1" style="stop-color:rgb(26,143,183);stop-opacity:1"/></linearGradient>
    </defs>
</svg>
