<svg viewBox="0 0 562 77" xmlns="http://www.w3.org/2000/svg" xml:space="preserve" style="fill-rule:evenodd;clip-rule:evenodd;stroke-linejoin:round;stroke-miterlimit:2"><path d="M0 3.559C0 11.18-5.472 14.66-11.501 14.66c-6.08 0-11.525-3.48-11.525-11.101v-14.66h4.356v14.26c0 5.153 3.053 7.437 7.169 7.437 4.091 0 7.145-2.284 7.145-7.437v-14.26H0v14.66Z" style="fill:#a5b3b7;fill-rule:nonzero" transform="translate(159.89 37.865)"/><path d="M0-5.575v15.668h-4.356v-14.26c0-4.648-2.548-7.386-6.932-7.386-4.064 0-7.463 2.79-7.463 7.491v14.155h-4.33v-25.229h4.303v3.292c2.072-2.84 5.34-3.824 8.26-3.824C-4.302-15.668 0-11.631 0-5.575" style="fill:#a5b3b7;fill-rule:nonzero" transform="translate(190.04 41.9)"/><path style="fill:#a5b3b7" d="M197.168 24.305h4.329v38.243h-4.329z" transform="matrix(-1 0 0 1 398.665 -10.555)"/><path d="M0 0c0 5.286 3.824 9.082 8.896 9.082 5.048 0 8.898-3.796 8.898-9.082 0-5.286-3.85-9.058-8.898-9.058C3.824-9.058 0-5.286 0 0m22.256 0c0 7.488-5.71 13.146-13.36 13.146C1.249 13.146-4.435 7.488-4.435 0c0-7.491 5.684-13.146 13.331-13.146 7.65 0 13.36 5.655 13.36 13.146" style="fill:#a5b3b7;fill-rule:nonzero" transform="translate(211.558 39.38)"/><path d="m0-18.327-2.789 2.948c-1.859-1.805-4.011-2.843-6.691-2.843-4.862 0-8.553 3.773-8.553 9.059 0 5.285 3.691 9.082 8.553 9.082 2.68 0 5.045-1.195 6.799-2.894L0 .024c-2.284 2.578-5.629 3.959-9.375 3.959-7.81 0-13.092-5.659-13.092-13.146 0-7.491 5.282-13.147 13.092-13.147 3.746 0 7.118 1.381 9.375 3.983" style="fill:#a5b3b7;fill-rule:nonzero" transform="translate(260.17 48.542)"/><path d="M0 7.966h3.453l9.374-10.09H18.3L7.039 9.774l11.42 13.33H12.96L3.426 11.898H0v11.206h-4.329v-38.242H0V7.966Z" style="fill:#a5b3b7;fill-rule:nonzero" transform="translate(269.244 28.89)"/><path d="M0-9.934h-10.596V2.361c0 3.8 2.019 5.445 4.753 5.445 1.86 0 3.719-.716 5.154-1.699l2.045 3.267c-1.94 1.408-4.461 2.497-7.569 2.497-5.472 0-8.739-3.003-8.739-9.429V-9.934h-5.391v-3.956h5.391v-7.915h4.356v7.915H0v3.956Z" style="fill:#a5b3b7;fill-rule:nonzero" transform="translate(321.836 40.655)"/><path d="M0 0c0 5.286 3.823 9.082 8.896 9.082 5.047 0 8.899-3.796 8.899-9.082 0-5.286-3.852-9.058-8.899-9.058C3.823-9.058 0-5.286 0 0m22.256 0c0 7.488-5.71 13.146-13.36 13.146C1.248 13.146-4.435 7.488-4.435 0c0-7.491 5.683-13.146 13.331-13.146 7.65 0 13.36 5.655 13.36 13.146" style="fill:#a5b3b7;fill-rule:nonzero" transform="translate(328.853 39.38)"/><path d="M0-5.575v15.668h-4.355v-14.26c0-4.648-2.551-7.386-6.932-7.386-4.17 0-7.437 2.897-7.437 7.491v14.155h-4.356v-14.26c0-4.648-2.548-7.386-6.931-7.386-4.064 0-7.464 2.79-7.464 7.491v14.155h-4.329v-25.229h4.302v3.292c2.072-2.84 5.34-3.824 8.261-3.824 4.275 0 7.647 1.913 9.323 5.072 2.07-3.824 5.975-5.072 9.401-5.072C-4.277-15.668 0-11.631 0-5.575" style="fill:#a5b3b7;fill-rule:nonzero" transform="translate(398.58 41.9)"/><path d="M0 0c0 5.286 3.824 9.082 8.896 9.082 5.048 0 8.899-3.796 8.899-9.082 0-5.286-3.851-9.058-8.899-9.058C3.824-9.058 0-5.286 0 0m22.256 0c0 7.488-5.71 13.146-13.36 13.146C1.249 13.146-4.435 7.488-4.435 0c0-7.491 5.684-13.146 13.331-13.146 7.65 0 13.36 5.655 13.36 13.146" style="fill:#a5b3b7;fill-rule:nonzero" transform="translate(408.354 39.38)"/><path d="m0-24.113-1.062 4.275c-1.194-.637-2.894-.983-4.329-.983-3.851 0-6.561 2.948-6.561 7.596V.824h-4.329v-25.229h4.277v3.319c1.752-2.47 4.381-3.851 7.383-3.851 1.806 0 3.267.238 4.621.824" style="fill:#a5b3b7;fill-rule:nonzero" transform="translate(452.558 51.17)"/><path d="m0-24.113-1.062 4.275c-1.194-.637-2.894-.983-4.329-.983-3.851 0-6.561 2.948-6.561 7.596V.824h-4.329v-25.229h4.277v3.319c1.752-2.47 4.381-3.851 7.383-3.851 1.806 0 3.267.238 4.621.824" style="fill:#a5b3b7;fill-rule:nonzero" transform="translate(472.982 51.17)"/><path d="M0 0c0 5.286 3.824 9.082 8.896 9.082 5.048 0 8.899-3.796 8.899-9.082 0-5.286-3.851-9.058-8.899-9.058C3.824-9.058 0-5.286 0 0m22.256 0c0 7.488-5.71 13.146-13.36 13.146C1.249 13.146-4.435 7.488-4.435 0c0-7.491 5.684-13.146 13.331-13.146 7.65 0 13.36 5.655 13.36 13.146" style="fill:#a5b3b7;fill-rule:nonzero" transform="translate(479.027 39.38)"/><path d="M0 16.148 7.172-4.54h4.54L2.63 20.688h-5.178L-9.774.159l-7.196 20.529h-5.099L-31.151-4.54h4.647l7.143 20.634 7.198-20.634h4.913L0 16.148Z" style="fill:#a5b3b7;fill-rule:nonzero" transform="translate(533.975 31.305)"/><path style="fill:#db323c" d="M113.591 52.844h7.818v7.818h-7.818z" transform="matrix(-1 0 0 1 235 -37.208)"/><path style="fill:#db323c" d="M113.591 15.636h7.818v7.818h-7.818z" transform="matrix(-1 0 0 1 235 37.208)"/><path d="M0-5.866c.924-3.781 3.594-6.005 7.295-6.005 3.553 0 6.134 2.275 6.912 6.005H0Zm16.267 8.379-.687.594c-2.237 1.933-4.878 2.954-7.64 2.954-4.258 0-7.203-2.412-8.036-6.509h20.722l.045-.814.027-.428c.028-.409.058-.872.058-1.327v-.006c-.059-8.614-5.56-14.631-13.376-14.631-8.157 0-14.077 6.191-14.077 14.721 0 8.667 5.904 14.721 14.357 14.721 4.73 0 8.386-1.355 11.506-4.263l.576-.537-3.475-4.475Z" style="fill:#fff;fill-rule:nonzero" transform="translate(22.305 41.062)"/><path d="M0-28.321h-7.603l-7.277 9.289-7.225-9.289H-29.9l10.929 13.885L-30.133 0h7.526l7.477-9.678L-7.546 0h7.8l-11.188-14.49L0-28.321Z" style="fill:#fff;fill-rule:nonzero" transform="translate(72.134 52.289)"/><path d="M0-17.876c3.552 0 6.133 2.274 6.912 6.005H-7.296c.924-3.781 3.594-6.005 7.296-6.005m.083-5.783c-8.156 0-14.076 6.191-14.076 14.721 0 8.667 5.904 14.721 14.357 14.721 4.73 0 8.387-1.355 11.507-4.263l.576-.537-3.476-4.475-.687.594C6.048-.965 3.406.056.644.056c-4.258 0-7.203-2.412-8.036-6.509H13.33l.045-.814.027-.428c.028-.409.058-.872.058-1.327v-.006C13.401-17.642 7.901-23.659.083-23.659" style="fill:#fff;fill-rule:nonzero" transform="translate(84.723 47.067)"/></svg>