<svg viewBox="0 0 64 64" xmlns="http://www.w3.org/2000/svg" xml:space="preserve" style="fill-rule:evenodd;clip-rule:evenodd;stroke-linejoin:round;stroke-miterlimit:2"><path d="m6.026 51.129.033-36.711.621-1.194 1.673-.983 2.352-.011 8.615-.349 1.99.644.76.951.454 1.462.263 1.141 15.879.347h7.68l1.736.366 1.212.662.525 1.029.343 2.217.023 1.485L6.026 51.129Z" style="fill:#dfa500" transform="translate(-6.516 -6.516) scale(1.20364)"/><path d="m6.68 52.09 7.794-27.765 1.812-1.652 26.942.251 11.92-.271 2.169 1.317 1.269 1.953-1.059 3.069-6.946 23.112L6.68 52.09Z" style="fill:#ffce00" transform="translate(-6.516 -6.516) scale(1.20364)"/><path d="M47.515 239.597a.08.08 0 0 1-.038.011.073.073 0 0 1-.072-.073v-4.308c0-.119.048-.227.127-.305v-.001h.001a.43.43 0 0 1 .304-.127h1.208a.431.431 0 0 1 .433.433v.075h2.771a.431.431 0 0 1 .433.433v.303h.481a.416.416 0 0 1 .344.171.414.414 0 0 1 .073.377l-.823 2.963a.073.073 0 0 1-.071.059h-5.133v-.001c-.006 0-.012 0-.019-.002l-.019-.008Zm5.023-3.559v-.303a.288.288 0 0 0-.289-.289h-2.843a.072.072 0 0 1-.072-.072v-.147a.287.287 0 0 0-.289-.288h-1.208a.286.286 0 0 0-.288.288v4.055l.813-2.927a.428.428 0 0 1 .417-.317h3.759Zm-4.89 3.425h4.984l.809-2.915a.284.284 0 0 0 .007-.132.29.29 0 0 0-.055-.12.282.282 0 0 0-.23-.114h-4.384a.28.28 0 0 0-.278.211l-.853 3.07Z" style="fill:#ffd600" transform="matrix(10.3366 0 0 10.3366 -490.007 -2419.85)"/></svg>