<?xml version="1.0" encoding="UTF-8" standalone="no"?>
<!DOCTYPE svg PUBLIC "-//W3C//DTD SVG 1.1//EN" "http://www.w3.org/Graphics/SVG/1.1/DTD/svg11.dtd">
<svg width="100%" height="100%" viewBox="0 0 64 64" version="1.1" xmlns="http://www.w3.org/2000/svg" xmlns:xlink="http://www.w3.org/1999/xlink" xml:space="preserve" xmlns:serif="http://www.serif.com/" style="fill-rule:evenodd;clip-rule:evenodd;stroke-linejoin:round;stroke-miterlimit:2;">
    <path d="M40.431,1.948L40.007,8.242L40.854,17.869L44.239,29.558L45.508,33.419L51.591,23.105L54.606,37.598L54.288,50.345L47.095,59.76L32,62.986L18.956,58.966L12.027,52.46L8.854,40.507L10.969,29.769L15.254,24.004L18.798,33.789L20.702,20.46L26.573,9.194L36.517,2.583L40.431,1.948Z" style="fill:url(#_Linear1);"/>
    <g transform="matrix(2.7824,0,0,2.7824,-3304.86,-337.144)">
        <path d="M1202.1,121.468C1202.05,121.581 1200.97,124.294 1202.02,127.732C1202.17,128.22 1202.32,128.664 1202.47,129.095C1203.04,130.751 1203.52,132.182 1203.52,135.103C1203.52,135.364 1203.73,135.577 1203.99,135.582C1204.25,135.588 1204.47,135.385 1204.48,135.125C1204.48,135.092 1204.67,131.709 1206.94,129.444C1206.81,129.576 1206.61,129.619 1206.43,129.556C1206.26,129.493 1206.14,129.336 1206.12,129.151C1206.13,129.288 1206.45,132.521 1206.94,134.876C1207.44,137.287 1207.08,139.318 1205.92,140.751C1204.59,142.385 1202.27,143.214 1199.04,143.214C1195.92,143.214 1193.22,141.39 1192,138.453C1190.76,135.453 1191.45,132.124 1193.81,129.768C1193.67,129.905 1193.46,129.947 1193.29,129.872C1193.11,129.799 1192.99,129.622 1192.99,129.429C1192.99,129.556 1193.01,132.563 1194.59,134.144C1194.74,134.292 1194.96,134.328 1195.15,134.231C1195.33,134.134 1195.43,133.928 1195.4,133.722C1195.33,133.33 1193.81,124.097 1202.65,122.117C1202.48,122.157 1202.29,122.096 1202.18,121.958C1202.06,121.822 1202.03,121.632 1202.1,121.468ZM1195.27,133.467C1193.96,132.163 1193.95,129.456 1193.95,129.429C1193.95,129.236 1193.83,129.06 1193.65,128.986C1193.47,128.912 1193.27,128.953 1193.13,129.09C1190.49,131.727 1189.72,135.454 1191.12,138.819C1192.48,142.121 1195.52,144.172 1199.04,144.172C1202.58,144.172 1205.14,143.225 1206.66,141.356C1208.02,139.693 1208.44,137.385 1207.88,134.681C1207.4,132.376 1207.08,129.092 1207.08,129.059C1207.06,128.874 1206.93,128.717 1206.76,128.654C1206.59,128.591 1206.39,128.636 1206.26,128.766C1203.72,131.3 1203.53,134.928 1203.52,135.081C1203.54,134.821 1203.75,134.619 1204.01,134.623C1204.27,134.63 1204.48,134.843 1204.48,135.103C1204.48,132.023 1203.94,130.451 1203.37,128.785C1203.23,128.361 1203.08,127.924 1202.93,127.452C1201.99,124.355 1202.98,121.856 1202.99,121.83C1203.06,121.665 1203.03,121.476 1202.91,121.34C1202.8,121.204 1202.62,121.143 1202.44,121.182C1192.7,123.364 1194.44,133.785 1194.46,133.889C1194.42,133.684 1194.52,133.478 1194.7,133.381C1194.89,133.284 1195.12,133.319 1195.27,133.467Z" style="fill:rgb(124,19,22);fill-rule:nonzero;"/>
    </g>
    <defs>
        <linearGradient id="_Linear1" x1="0" y1="0" x2="1" y2="0" gradientUnits="userSpaceOnUse" gradientTransform="matrix(45.7521,0,0,61.038,8.85372,32.4669)"><stop offset="0" style="stop-color:rgb(246,166,40);stop-opacity:1"/><stop offset="1" style="stop-color:rgb(250,212,27);stop-opacity:1"/></linearGradient>
    </defs>
</svg>
