<?xml version="1.0" encoding="UTF-8" standalone="no"?>
<!DOCTYPE svg PUBLIC "-//W3C//DTD SVG 1.1//EN" "http://www.w3.org/Graphics/SVG/1.1/DTD/svg11.dtd">
<svg width="100%" height="100%" viewBox="0 0 64 64" version="1.1" xmlns="http://www.w3.org/2000/svg" xmlns:xlink="http://www.w3.org/1999/xlink" xml:space="preserve" xmlns:serif="http://www.serif.com/" style="fill-rule:evenodd;clip-rule:evenodd;stroke-linejoin:round;stroke-miterlimit:2;">
    <g transform="matrix(1,0,0,1,-0.0800005,-0.292307)">
        <path d="M56.031,16.415L33.532,1.203L33.385,9.868L25.852,10.705L15.563,15.332L9.705,22.028L6.406,28.477L5.422,39.505L8.72,49.991L18.369,59.886L25.951,62.594L32,63.382L42.197,61.511L49.089,57.08L55.932,48.957L58.738,38.274L58.148,30.003L55.735,24.145L54.603,23.012L44.166,30.495L45.298,35.123L44.56,41.375L40.72,46.988L33.975,49.745L27.083,49.203L20.929,44.132L18.812,38.569L19.058,33.597L21.52,28.477L25.705,24.834L33.434,23.406L33.631,31.999L56.031,16.415Z" style="fill:url(#_Linear1);"/>
    </g>
    <g transform="matrix(10.2233,0,0,10.2233,-3737.86,-4213.8)">
        <path d="M368.964,415.205L369.64,414.729L369.647,414.725L370.67,414.004L370.963,413.797L368.964,412.389L368.964,413.143C368.964,413.183 368.932,413.215 368.893,413.215L368.883,413.215L368.822,413.212L368.754,413.212C368.08,413.211 367.433,413.479 366.957,413.956C366.48,414.432 366.212,415.079 366.213,415.753C366.213,416.454 366.497,417.09 366.957,417.55C367.433,418.027 368.08,418.295 368.754,418.294C368.756,418.294 368.758,418.294 368.76,418.294C370.152,418.294 371.298,417.148 371.298,415.756C371.298,415.322 371.187,414.896 370.975,414.517L370.014,415.194C370.048,415.271 370.076,415.353 370.096,415.437C370.207,415.901 370.067,416.391 369.728,416.727C369.47,416.986 369.119,417.132 368.754,417.131C368.373,417.131 368.028,416.977 367.779,416.727C367.519,416.469 367.373,416.118 367.373,415.753C367.373,415.387 367.519,415.036 367.779,414.778C368.073,414.483 368.486,414.337 368.9,414.382C368.936,414.386 368.964,414.417 368.964,414.454L368.964,415.205ZM369.718,414.85L368.937,415.4C368.924,415.41 368.908,415.416 368.892,415.416C368.853,415.416 368.82,415.383 368.82,415.344L368.82,414.52L368.754,414.519C368.753,414.519 368.752,414.519 368.751,414.519C368.076,414.519 367.52,415.075 367.52,415.75C367.52,415.751 367.52,415.752 367.52,415.753C367.52,416.43 368.077,416.987 368.754,416.987C369.431,416.987 369.988,416.43 369.988,415.753C369.987,415.562 369.943,415.373 369.858,415.202C369.843,415.17 369.853,415.131 369.882,415.111L370.957,414.354L370.961,414.352C370.972,414.345 370.985,414.341 370.999,414.341C371.024,414.341 371.047,414.355 371.06,414.376C371.307,414.793 371.438,415.268 371.439,415.753C371.439,416.494 371.139,417.166 370.653,417.652C370.15,418.156 369.466,418.439 368.754,418.438C368.012,418.438 367.341,418.138 366.855,417.652C366.351,417.149 366.067,416.465 366.068,415.753C366.068,415.011 366.369,414.34 366.855,413.854C367.358,413.35 368.042,413.066 368.754,413.067L368.82,413.068L368.82,412.25C368.82,412.235 368.825,412.221 368.833,412.208C368.856,412.176 368.902,412.168 368.934,412.191L371.13,413.738C371.136,413.743 371.143,413.748 371.147,413.756C371.17,413.788 371.162,413.833 371.13,413.856L370.753,414.121L369.724,414.847L369.723,414.847L369.718,414.85Z" style="fill:rgb(230,230,230);"/>
    </g>
    <defs>
        <linearGradient id="_Linear1" x1="0" y1="0" x2="1" y2="0" gradientUnits="userSpaceOnUse" gradientTransform="matrix(53.3169,0,0,62.1785,5.42154,32.2923)"><stop offset="0" style="stop-color:rgb(240,64,73);stop-opacity:1"/><stop offset="0.5" style="stop-color:rgb(109,176,46);stop-opacity:1"/><stop offset="1" style="stop-color:rgb(14,126,216);stop-opacity:1"/></linearGradient>
    </defs>
</svg>
