<?xml version="1.0" encoding="UTF-8" standalone="no"?>
<!DOCTYPE svg PUBLIC "-//W3C//DTD SVG 1.1//EN" "http://www.w3.org/Graphics/SVG/1.1/DTD/svg11.dtd">
<svg width="100%" height="100%" viewBox="0 0 64 64" version="1.1" xmlns="http://www.w3.org/2000/svg" xmlns:xlink="http://www.w3.org/1999/xlink" xml:space="preserve" xmlns:serif="http://www.serif.com/" style="fill-rule:evenodd;clip-rule:evenodd;stroke-linejoin:round;stroke-miterlimit:2;">
    <g transform="matrix(9.25073,0,0,9.25073,-4284.19,-3700.96)">
        <path d="M465.966,403.607L464.903,404.046C464.867,404.061 464.824,404.043 464.809,404.007L464.567,403.421L463.31,405.314L465.537,405.766L465.295,405.182C465.281,405.146 465.298,405.104 465.334,405.088L466.551,404.585C466.569,404.577 466.588,404.577 466.606,404.585L467.822,405.088C467.849,405.099 467.867,405.125 467.867,405.155C467.867,405.164 467.866,405.173 467.862,405.182L467.619,405.766L469.846,405.314L468.59,403.421L468.347,404.007C468.336,404.034 468.31,404.051 468.281,404.051C468.272,404.051 468.263,404.05 468.254,404.046L467.188,403.606C467.161,403.595 467.143,403.568 467.143,403.539L467.143,402.382C467.143,402.342 467.175,402.31 467.215,402.31L467.847,402.31L466.578,400.425L465.31,402.31L465.944,402.31C465.984,402.31 466.016,402.342 466.016,402.382L466.016,403.538C466.016,403.569 465.996,403.597 465.966,403.607ZM464.914,403.886L465.872,403.49L465.872,402.454L465.175,402.454C465.161,402.454 465.147,402.45 465.135,402.441C465.115,402.428 465.103,402.406 465.103,402.382C465.103,402.368 465.107,402.354 465.115,402.342L466.518,400.257C466.531,400.237 466.554,400.224 466.578,400.224C466.602,400.224 466.625,400.236 466.638,400.256L468.039,402.337C468.049,402.35 468.054,402.366 468.054,402.382C468.054,402.421 468.021,402.454 467.982,402.454L467.287,402.454L467.287,403.491L468.242,403.886L468.508,403.244C468.518,403.215 468.545,403.196 468.575,403.196C468.599,403.196 468.622,403.209 468.635,403.229L470.025,405.324C470.03,405.332 470.034,405.34 470.036,405.349C470.043,405.388 470.018,405.426 469.98,405.434L467.519,405.933C467.504,405.937 467.488,405.936 467.474,405.93C467.438,405.914 467.421,405.872 467.435,405.836L467.701,405.193L466.578,404.729L465.455,405.193L465.721,405.836C465.726,405.849 465.728,405.863 465.725,405.877C465.719,405.911 465.689,405.935 465.655,405.935C465.65,405.935 465.646,405.935 465.641,405.934L463.181,405.435C463.17,405.433 463.16,405.429 463.151,405.423C463.131,405.41 463.119,405.388 463.119,405.364C463.119,405.35 463.123,405.336 463.131,405.324L464.521,403.229C464.529,403.217 464.541,403.208 464.554,403.202C464.563,403.198 464.572,403.197 464.581,403.197C464.611,403.197 464.637,403.215 464.648,403.242L464.914,403.886Z" style="fill:rgb(230,230,230);"/>
    </g>
    <g transform="matrix(1,0,0,1,-0.033635,-0.0639067)">
        <path d="M32,2.036L19.394,21.205L26.145,21.55L26.194,32L16.536,36.087L13.579,29.927L0.865,48.949L23.435,53.482L20.823,47.175L32,42.592L43.195,47.076L40.731,53.729L63.202,49.146L50.685,29.681L47.975,35.89L38.07,32L38.07,21.254L45.018,21.451L32,2.036" style="fill:url(#_Linear1);"/>
    </g>
    <defs>
        <linearGradient id="_Linear1" x1="0" y1="0" x2="1" y2="0" gradientUnits="userSpaceOnUse" gradientTransform="matrix(62.3368,0,0,51.6927,0.865255,27.8823)"><stop offset="0" style="stop-color:rgb(0,107,189);stop-opacity:1"/><stop offset="0.52" style="stop-color:rgb(180,236,54);stop-opacity:1"/><stop offset="1" style="stop-color:rgb(240,64,73);stop-opacity:1"/></linearGradient>
    </defs>
</svg>
