<?xml version="1.0" encoding="UTF-8" standalone="no"?>
<!DOCTYPE svg PUBLIC "-//W3C//DTD SVG 1.1//EN" "http://www.w3.org/Graphics/SVG/1.1/DTD/svg11.dtd">
<svg width="100%" height="100%" viewBox="0 0 64 64" version="1.1" xmlns="http://www.w3.org/2000/svg" xmlns:xlink="http://www.w3.org/1999/xlink" xml:space="preserve" xmlns:serif="http://www.serif.com/" style="fill-rule:evenodd;clip-rule:evenodd;stroke-linejoin:round;stroke-miterlimit:2;">
    <g transform="matrix(1,0,0,1,-0.41312,1.38595)">
        <g transform="matrix(-0.80313,0.855066,-0.855066,-0.80313,86.664,50.8873)">
            <path d="M1.13,63.27L5.9,39.617L10.828,44.308L16.111,40.358L19.99,42.25L23.869,47.486L19.99,53.068L24.594,58.65L1.13,63.27Z" style="fill:url(#_Linear1);"/>
        </g>
        <g transform="matrix(-9.35559,-9.35559,9.31971,-9.31971,69.4452,7830.65)">
            <path d="M419.351,416.117L419.546,416.312L419.964,415.894C419.978,415.88 419.996,415.873 420.015,415.873C420.05,415.873 420.08,415.898 420.086,415.933L420.502,418.059C420.509,418.098 420.484,418.136 420.445,418.144C420.435,418.146 420.425,418.146 420.416,418.143L418.289,417.728C418.255,417.722 418.231,417.692 418.231,417.658C418.231,417.653 418.231,417.649 418.232,417.644C418.235,417.63 418.242,417.616 418.252,417.606L418.669,417.189L418.474,416.995C418.307,416.827 418.307,416.551 418.474,416.383L418.744,416.113C418.912,415.949 419.185,415.95 419.351,416.117ZM419.495,416.465L419.249,416.219C419.138,416.109 418.957,416.107 418.845,416.216L418.841,416.219L418.576,416.485C418.522,416.539 418.491,416.612 418.491,416.689C418.491,416.766 418.522,416.839 418.576,416.893L418.821,417.138C418.835,417.152 418.842,417.17 418.842,417.189C418.842,417.208 418.835,417.226 418.821,417.24L418.449,417.613L420.34,417.982L419.971,416.091L419.597,416.465C419.583,416.479 419.565,416.486 419.546,416.486C419.527,416.486 419.509,416.479 419.495,416.465Z" style="fill:rgb(230,230,230);"/>
        </g>
    </g>
    <g transform="matrix(1,0,0,1,2.36739,-1.38595)">
        <g transform="matrix(-0.036724,-1.17252,1.17252,-0.036724,-13.0138,66.1155)">
            <path d="M1.13,63.27L5.9,39.617L10.828,44.308L16.111,40.358L19.99,42.25L23.869,47.486L19.99,53.068L24.594,58.65L1.13,63.27Z" style="fill:url(#_Linear2);"/>
        </g>
        <g transform="matrix(13.2308,0,1.04192e-15,13.1801,-5501.96,-5447.18)">
            <path d="M419.351,416.117L419.546,416.312L419.964,415.894C419.978,415.88 419.996,415.873 420.015,415.873C420.05,415.873 420.08,415.898 420.086,415.933L420.502,418.059C420.509,418.098 420.484,418.136 420.445,418.144C420.435,418.146 420.425,418.146 420.416,418.143L418.289,417.728C418.255,417.722 418.231,417.692 418.231,417.658C418.231,417.653 418.231,417.649 418.232,417.644C418.235,417.63 418.242,417.616 418.252,417.606L418.669,417.189L418.474,416.995C418.307,416.827 418.307,416.551 418.474,416.383L418.744,416.113C418.912,415.949 419.185,415.95 419.351,416.117ZM419.495,416.465L419.249,416.219C419.138,416.109 418.957,416.107 418.845,416.216L418.841,416.219L418.576,416.485C418.522,416.539 418.491,416.612 418.491,416.689C418.491,416.766 418.522,416.839 418.576,416.893L418.821,417.138C418.835,417.152 418.842,417.17 418.842,417.189C418.842,417.208 418.835,417.226 418.821,417.24L418.449,417.613L420.34,417.982L419.971,416.091L419.597,416.465C419.583,416.479 419.565,416.486 419.546,416.486C419.527,416.486 419.509,416.479 419.495,416.465Z" style="fill:rgb(230,230,230);"/>
        </g>
    </g>
    <g transform="matrix(1,0,0,1,-2.36739,-1.38595)">
        <g transform="matrix(0.036724,-1.17252,-1.17252,-0.036724,77.0138,66.1155)">
            <path d="M1.13,63.27L5.9,39.617L10.828,44.308L16.111,40.358L19.99,42.25L23.869,47.486L19.99,53.068L24.594,58.65L1.13,63.27Z" style="fill:url(#_Linear3);"/>
        </g>
        <g transform="matrix(-13.2308,0,-1.04192e-15,13.1801,5565.96,-5447.18)">
            <path d="M419.351,416.117L419.546,416.312L419.964,415.894C419.978,415.88 419.996,415.873 420.015,415.873C420.05,415.873 420.08,415.898 420.086,415.933L420.502,418.059C420.509,418.098 420.484,418.136 420.445,418.144C420.435,418.146 420.425,418.146 420.416,418.143L418.289,417.728C418.255,417.722 418.231,417.692 418.231,417.658C418.231,417.653 418.231,417.649 418.232,417.644C418.235,417.63 418.242,417.616 418.252,417.606L418.669,417.189L418.474,416.995C418.307,416.827 418.307,416.551 418.474,416.383L418.744,416.113C418.912,415.949 419.185,415.95 419.351,416.117ZM419.495,416.465L419.249,416.219C419.138,416.109 418.957,416.107 418.845,416.216L418.841,416.219L418.576,416.485C418.522,416.539 418.491,416.612 418.491,416.689C418.491,416.766 418.522,416.839 418.576,416.893L418.821,417.138C418.835,417.152 418.842,417.17 418.842,417.189C418.842,417.208 418.835,417.226 418.821,417.24L418.449,417.613L420.34,417.982L419.971,416.091L419.597,416.465C419.583,416.479 419.565,416.486 419.546,416.486C419.527,416.486 419.509,416.479 419.495,416.465Z" style="fill:rgb(230,230,230);"/>
        </g>
    </g>
    <defs>
        <linearGradient id="_Linear1" x1="0" y1="0" x2="1" y2="0" gradientUnits="userSpaceOnUse" gradientTransform="matrix(23.4643,0,0,23.6535,1.1301,51.4436)"><stop offset="0" style="stop-color:rgb(155,211,48);stop-opacity:1"/><stop offset="1" style="stop-color:rgb(102,158,38);stop-opacity:1"/></linearGradient>
        <linearGradient id="_Linear2" x1="0" y1="0" x2="1" y2="0" gradientUnits="userSpaceOnUse" gradientTransform="matrix(23.4643,0,0,23.6535,1.1301,51.4436)"><stop offset="0" style="stop-color:rgb(230,35,35);stop-opacity:1"/><stop offset="1" style="stop-color:rgb(180,27,27);stop-opacity:1"/></linearGradient>
        <linearGradient id="_Linear3" x1="0" y1="0" x2="1" y2="0" gradientUnits="userSpaceOnUse" gradientTransform="matrix(23.4643,0,0,23.6535,1.1301,51.4436)"><stop offset="0" style="stop-color:rgb(50,212,245);stop-opacity:1"/><stop offset="1" style="stop-color:rgb(32,159,198);stop-opacity:1"/></linearGradient>
    </defs>
</svg>
