<?xml version="1.0" encoding="UTF-8" standalone="no"?>
<!DOCTYPE svg PUBLIC "-//W3C//DTD SVG 1.1//EN" "http://www.w3.org/Graphics/SVG/1.1/DTD/svg11.dtd">
<svg width="100%" height="100%" viewBox="0 0 64 64" version="1.1" xmlns="http://www.w3.org/2000/svg"
     xml:space="preserve"
     style="fill-rule:evenodd;clip-rule:evenodd;stroke-linejoin:round;stroke-miterlimit:2;">
    <path d="M53.433,27.665L63.386,27.665L61.68,31.75L63.49,36.403L53.511,36.559L53.433,27.665Z" style="fill:rgb(75,153,226);"/>
    <g transform="matrix(1,0,0,1,-0.464094,0)">
        <circle cx="27.662" cy="32" r="27.198" style="fill:rgb(75,153,226);"/>
    </g>
    <g transform="matrix(0.592724,0,0,0.592724,11.433,13.0328)">
        <circle cx="27.662" cy="32" r="27.198" style="fill:rgb(110,229,254);"/>
    </g>
    <g transform="matrix(0.253327,0,0,0.253327,20.8213,23.8935)">
        <circle cx="27.662" cy="32" r="27.198" style="fill:rgb(167,235,254);"/>
    </g>
    <g transform="matrix(9.38659,0,0,9.38659,-1327.67,-1850.17)">
        <path d="M147.96,200.444L148.107,200.113L147.046,200.114C146.982,200.114 146.924,200.132 146.874,200.164C146.828,200.194 146.79,200.238 146.766,200.292L146.698,200.444L147.96,200.444ZM146.568,200.588L146.668,200.814C146.704,200.893 146.758,200.957 146.825,201C146.889,201.042 146.965,201.065 147.047,201.065L147.148,201.064C147.022,201.7 146.683,202.258 146.207,202.661C145.718,203.074 145.086,203.324 144.395,203.324C143.619,203.324 142.917,203.01 142.409,202.502C141.901,201.994 141.587,201.293 141.587,200.517C141.587,199.742 141.901,199.04 142.409,198.532C142.917,198.024 143.619,197.71 144.395,197.71C145.086,197.71 145.718,197.959 146.207,198.373C146.683,198.776 147.022,199.334 147.148,199.97L147.046,199.97C146.964,199.97 146.888,199.993 146.824,200.035C146.757,200.078 146.703,200.141 146.668,200.22L146.568,200.445L146.21,200.445C146.217,200.433 146.22,200.42 146.219,200.406C146.19,199.925 145.976,199.495 145.647,199.185C145.319,198.877 144.879,198.688 144.394,198.688C143.889,198.688 143.432,198.893 143.101,199.224C142.77,199.555 142.566,200.012 142.566,200.517C142.566,201.022 142.77,201.479 143.101,201.81C143.432,202.14 143.889,202.345 144.394,202.345C144.879,202.345 145.319,202.156 145.647,201.849C145.976,201.539 146.19,201.109 146.219,200.628C146.22,200.614 146.216,200.6 146.21,200.588L146.568,200.588ZM146.084,200.588L145.178,200.589C145.185,200.602 145.189,200.618 145.186,200.635C145.158,200.829 145.059,201.001 144.917,201.123C144.776,201.244 144.593,201.318 144.394,201.318C144.173,201.318 143.973,201.228 143.828,201.083C143.683,200.938 143.593,200.738 143.593,200.517C143.593,200.296 143.683,200.096 143.828,199.951C143.973,199.806 144.173,199.716 144.394,199.716C144.594,199.716 144.776,199.789 144.917,199.91C145.059,200.033 145.158,200.205 145.186,200.4C145.189,200.416 145.185,200.432 145.178,200.445L146.084,200.445C146.079,200.436 146.076,200.425 146.075,200.414C146.049,199.972 145.851,199.575 145.548,199.29C145.247,199.006 144.841,198.833 144.394,198.833C143.929,198.833 143.508,199.021 143.203,199.326C142.899,199.631 142.71,200.052 142.71,200.517C142.71,200.982 142.899,201.403 143.203,201.708C143.508,202.012 143.929,202.201 144.394,202.201C144.841,202.201 145.247,202.027 145.548,201.744C145.851,201.459 146.049,201.062 146.075,200.62C146.076,200.609 146.079,200.598 146.084,200.588ZM145.052,200.589L144.351,200.589C144.311,200.589 144.279,200.557 144.279,200.517C144.279,200.478 144.311,200.446 144.351,200.446L145.052,200.445C145.048,200.438 145.045,200.429 145.044,200.421C145.02,200.261 144.939,200.12 144.823,200.019C144.708,199.92 144.558,199.861 144.394,199.861C144.212,199.861 144.048,199.934 143.93,200.052C143.811,200.171 143.738,200.335 143.738,200.517C143.738,200.698 143.811,200.862 143.93,200.981C144.049,201.1 144.212,201.173 144.394,201.173C144.558,201.173 144.708,201.113 144.822,201.015C144.939,200.914 145.02,200.773 145.044,200.614C145.045,200.605 145.048,200.597 145.052,200.589ZM148.058,200.516L148.254,200.954C148.269,200.989 148.26,201.034 148.233,201.053C148.223,201.061 148.212,201.064 148.201,201.062L147.294,201.064C147.167,201.744 146.807,202.341 146.3,202.77C145.786,203.206 145.121,203.468 144.395,203.468C143.58,203.468 142.842,203.138 142.308,202.604C141.774,202.07 141.443,201.332 141.443,200.517C141.443,199.702 141.774,198.964 142.308,198.43C142.842,197.896 143.58,197.566 144.395,197.566C145.121,197.566 145.786,197.828 146.3,198.263C146.807,198.692 147.167,199.29 147.294,199.97L148.202,199.969C148.212,199.968 148.222,199.971 148.232,199.978C148.259,199.997 148.269,200.042 148.253,200.076L148.058,200.516ZM147.047,200.92L148.108,200.918L147.96,200.589L146.698,200.589L146.766,200.743C146.791,200.797 146.828,200.841 146.875,200.871C146.924,200.903 146.984,200.92 147.047,200.92Z" style="fill:rgb(49,124,213);"/>
    </g>
</svg>
