<?xml version="1.0" encoding="UTF-8" standalone="no"?>
<!DOCTYPE svg PUBLIC "-//W3C//DTD SVG 1.1//EN" "http://www.w3.org/Graphics/SVG/1.1/DTD/svg11.dtd">
<svg width="100%" height="100%" viewBox="0 0 64 64" version="1.1" xmlns="http://www.w3.org/2000/svg" xmlns:xlink="http://www.w3.org/1999/xlink" xml:space="preserve" xmlns:serif="http://www.serif.com/" style="fill-rule:evenodd;clip-rule:evenodd;stroke-linejoin:round;stroke-miterlimit:2;">
    <path d="M2.411,57.375C2.381,57.138 2.365,56.896 2.365,56.651C2.365,53.291 5.328,50.564 8.977,50.564C12.627,50.564 15.589,53.291 15.589,56.651C15.589,56.896 15.574,57.138 15.543,57.375L2.411,57.375ZM25.434,57.375C25.404,57.138 25.388,56.896 25.388,56.651C25.388,53.291 28.351,50.564 32,50.564C35.649,50.564 38.612,53.291 38.612,56.651C38.612,56.896 38.596,57.138 38.566,57.375L25.434,57.375ZM48.457,57.375C48.426,57.138 48.411,56.896 48.411,56.651C48.411,53.291 51.373,50.564 55.023,50.564C58.672,50.564 61.635,53.291 61.635,56.651C61.635,56.896 61.619,57.138 61.589,57.375L48.457,57.375ZM8.977,41.466C11.318,41.466 13.218,43.366 13.218,45.707C13.218,48.047 11.318,49.948 8.977,49.948C6.636,49.948 4.736,48.047 4.736,45.707C4.736,43.366 6.636,41.466 8.977,41.466ZM32,41.466C34.341,41.466 36.241,43.366 36.241,45.707C36.241,48.047 34.341,49.948 32,49.948C29.659,49.948 27.759,48.047 27.759,45.707C27.759,43.366 29.659,41.466 32,41.466ZM55.023,41.466C57.364,41.466 59.264,43.366 59.264,45.707C59.264,48.047 57.364,49.948 55.023,49.948C52.682,49.948 50.782,48.047 50.782,45.707C50.782,43.366 52.682,41.466 55.023,41.466ZM22.537,28.467C22.493,28.145 22.47,27.816 22.47,27.483C22.47,22.912 26.74,19.201 32,19.201C37.26,19.201 41.53,22.912 41.53,27.483C41.53,27.816 41.507,28.145 41.463,28.467L22.537,28.467ZM32,7.285C35.036,7.285 37.501,9.75 37.501,12.786C37.501,15.822 35.036,18.286 32,18.286C28.964,18.286 26.499,15.822 26.499,12.786C26.499,9.75 28.964,7.285 32,7.285Z" style="fill:url(#_Linear1);"/>
    <g transform="matrix(8.79576,0,0,8.79576,-950.464,-1002.18)">
        <path d="M109.224,118.268C109.224,118.308 109.192,118.34 109.152,118.34C109.112,118.34 109.08,118.308 109.08,118.268L109.08,117.842C109.08,117.802 109.112,117.77 109.152,117.77L111.625,117.77L111.625,117.416C111.625,117.376 111.657,117.344 111.697,117.344C111.737,117.344 111.769,117.376 111.769,117.416L111.769,117.77L114.243,117.77C114.282,117.77 114.315,117.802 114.315,117.842L114.315,118.268C114.315,118.308 114.282,118.34 114.243,118.34C114.203,118.34 114.17,118.308 114.17,118.268L114.17,117.914L111.769,117.914L111.769,118.268C111.769,118.308 111.737,118.34 111.697,118.34C111.657,118.34 111.625,118.308 111.625,118.268L111.625,117.914L109.224,117.914L109.224,118.268Z" style="fill:rgb(146,103,228);"/>
    </g>
    <g transform="matrix(8.79576,0,0,8.79576,-950.464,-1002.18)">
        <path d="M112.056,116.058C112.243,116.116 112.409,116.219 112.544,116.354C112.761,116.571 112.895,116.87 112.895,117.201C112.895,117.241 112.863,117.273 112.823,117.273L110.572,117.273C110.533,117.273 110.5,117.241 110.5,117.201C110.5,116.87 110.634,116.571 110.851,116.354C110.986,116.22 111.152,116.117 111.339,116.058C111.271,116.022 111.21,115.977 111.157,115.924C111.019,115.786 110.933,115.595 110.933,115.384C110.933,115.173 111.019,114.982 111.157,114.844C111.295,114.706 111.486,114.62 111.697,114.62C111.908,114.62 112.099,114.706 112.237,114.844C112.375,114.982 112.461,115.173 112.461,115.384C112.461,115.594 112.375,115.786 112.237,115.924C112.184,115.977 112.123,116.022 112.056,116.058ZM114.296,118.582C114.454,118.582 114.597,118.645 114.7,118.749C114.803,118.852 114.867,118.995 114.867,119.152C114.867,119.31 114.803,119.452 114.7,119.555L114.7,119.556C114.671,119.585 114.638,119.611 114.603,119.633C114.724,119.678 114.832,119.748 114.922,119.837L114.925,119.842C115.083,120.001 115.18,120.221 115.18,120.462C115.18,120.502 115.148,120.534 115.108,120.534L113.485,120.534C113.446,120.534 113.413,120.502 113.413,120.462C113.413,120.218 113.512,119.998 113.672,119.837L113.676,119.834C113.765,119.746 113.871,119.677 113.99,119.634C113.955,119.611 113.922,119.585 113.893,119.556L113.893,119.555C113.79,119.452 113.726,119.31 113.726,119.152C113.726,118.995 113.79,118.852 113.893,118.749L113.897,118.745C114,118.644 114.141,118.582 114.296,118.582ZM114.598,118.851C114.521,118.774 114.414,118.726 114.296,118.726C114.18,118.726 114.075,118.772 113.998,118.847L113.995,118.851C113.917,118.928 113.87,119.034 113.87,119.152C113.87,119.27 113.917,119.377 113.995,119.454C114.071,119.531 114.177,119.578 114.294,119.579L114.302,119.579C114.418,119.577 114.522,119.53 114.598,119.454C114.675,119.377 114.723,119.27 114.723,119.152C114.723,119.034 114.675,118.928 114.598,118.851ZM114.819,119.939C114.686,119.806 114.503,119.724 114.299,119.723L114.294,119.723C114.092,119.724 113.91,119.805 113.777,119.936L113.774,119.939C113.656,120.057 113.578,120.215 113.561,120.39L115.033,120.39C115.016,120.216 114.939,120.06 114.823,119.943L114.819,119.939ZM111.697,118.582C111.855,118.582 111.998,118.645 112.101,118.749C112.204,118.852 112.268,118.995 112.268,119.152C112.268,119.31 112.204,119.452 112.101,119.555L112.101,119.556C112.072,119.585 112.039,119.611 112.004,119.633C112.125,119.678 112.233,119.748 112.322,119.837L112.326,119.842C112.484,120.001 112.581,120.221 112.581,120.462C112.581,120.502 112.549,120.534 112.509,120.534L110.886,120.534C110.846,120.534 110.814,120.502 110.814,120.462C110.814,120.218 110.913,119.998 111.073,119.837L111.077,119.834C111.166,119.746 111.272,119.677 111.391,119.634C111.356,119.611 111.323,119.585 111.294,119.556L111.294,119.555C111.191,119.452 111.126,119.31 111.126,119.152C111.126,118.995 111.191,118.852 111.294,118.749L111.298,118.745C111.401,118.644 111.542,118.582 111.697,118.582ZM111.999,118.851C111.922,118.774 111.815,118.726 111.697,118.726C111.581,118.726 111.476,118.772 111.399,118.847L111.396,118.851C111.318,118.928 111.271,119.034 111.271,119.152C111.271,119.27 111.318,119.377 111.395,119.454C111.472,119.531 111.578,119.578 111.695,119.579L111.703,119.579C111.818,119.577 111.923,119.53 111.999,119.454C112.076,119.377 112.124,119.27 112.124,119.152C112.124,119.034 112.076,118.928 111.999,118.851ZM112.22,119.939C112.087,119.806 111.903,119.724 111.7,119.723L111.695,119.723C111.494,119.724 111.311,119.805 111.178,119.936L111.175,119.939C111.057,120.057 110.979,120.215 110.962,120.39L112.434,120.39C112.417,120.216 112.34,120.06 112.224,119.943L112.22,119.939ZM109.098,118.582C109.256,118.582 109.398,118.645 109.502,118.749C109.605,118.852 109.669,118.995 109.669,119.152C109.669,119.31 109.605,119.452 109.502,119.555L109.502,119.556C109.472,119.585 109.44,119.611 109.405,119.633C109.526,119.678 109.634,119.748 109.723,119.837L109.727,119.842C109.885,120.001 109.982,120.221 109.982,120.462C109.982,120.502 109.95,120.534 109.91,120.534L108.287,120.534C108.248,120.534 108.215,120.502 108.215,120.462C108.215,120.218 108.314,119.998 108.474,119.837L108.478,119.834C108.567,119.746 108.673,119.677 108.792,119.634C108.757,119.611 108.724,119.585 108.695,119.556L108.695,119.555C108.591,119.452 108.528,119.31 108.528,119.152C108.528,118.995 108.591,118.852 108.695,118.749L108.699,118.745C108.802,118.644 108.943,118.582 109.098,118.582ZM109.4,118.851C109.323,118.774 109.216,118.726 109.098,118.726C108.982,118.726 108.877,118.772 108.8,118.847L108.797,118.851C108.72,118.928 108.672,119.034 108.672,119.152C108.672,119.27 108.719,119.377 108.796,119.454C108.873,119.531 108.979,119.578 109.095,119.579L109.104,119.579C109.219,119.577 109.324,119.53 109.4,119.454C109.477,119.377 109.525,119.27 109.525,119.152C109.525,119.034 109.477,118.928 109.4,118.851ZM109.621,119.939C109.488,119.806 109.304,119.724 109.101,119.723L109.095,119.723C108.894,119.724 108.712,119.805 108.579,119.936L108.576,119.939C108.458,120.057 108.38,120.215 108.363,120.39L109.834,120.39C109.818,120.216 109.741,120.06 109.625,119.943L109.621,119.939ZM111.697,116.003L111.698,116.003C111.868,116.003 112.023,115.934 112.135,115.822C112.247,115.71 112.316,115.555 112.316,115.384C112.316,115.213 112.247,115.058 112.135,114.946C112.023,114.834 111.868,114.764 111.697,114.764C111.526,114.764 111.371,114.834 111.259,114.946C111.147,115.058 111.078,115.213 111.078,115.384C111.078,115.555 111.147,115.71 111.259,115.822C111.371,115.934 111.526,116.003 111.697,116.003ZM112.442,116.456C112.252,116.265 111.988,116.148 111.698,116.148L111.697,116.148C111.407,116.148 111.143,116.266 110.953,116.456C110.778,116.631 110.665,116.867 110.647,117.129L112.748,117.129C112.731,116.867 112.617,116.631 112.442,116.456Z" style="fill:rgb(13,126,216);"/>
    </g>
    <defs>
        <linearGradient id="_Linear1" x1="0" y1="0" x2="1" y2="0" gradientUnits="userSpaceOnUse" gradientTransform="matrix(59.27,0,0,50.0897,2.36498,32.3301)"><stop offset="0" style="stop-color:rgb(49,209,242);stop-opacity:1"/><stop offset="1" style="stop-color:rgb(26,142,182);stop-opacity:1"/></linearGradient>
    </defs>
</svg>
