<?xml version="1.0" encoding="UTF-8" standalone="no"?>
<!DOCTYPE svg PUBLIC "-//W3C//DTD SVG 1.1//EN" "http://www.w3.org/Graphics/SVG/1.1/DTD/svg11.dtd">
<svg width="100%" height="100%" viewBox="0 0 64 64" version="1.1" xmlns="http://www.w3.org/2000/svg"
     xml:space="preserve"
     style="fill-rule:evenodd;clip-rule:evenodd;stroke-linejoin:round;stroke-miterlimit:2;">
    <path d="M8.758,31.442L3.075,31.442L3.075,26.378L32,0.703L60.988,26.378L60.988,31.442L55.449,31.442L55.449,57.169L60.988,57.169L60.988,63.068L3.075,63.068L3.075,57.169L8.758,57.169L8.758,31.442Z" style="fill:url(#_Linear1);"/>
    <g transform="matrix(11.4339,0,0,11.4339,-2971.55,-1173.54)">
        <path d="M260.151,107.549L260.616,107.549L260.616,105.449L260.149,105.449C260.11,105.449 260.077,105.417 260.077,105.377L260.077,104.95C260.077,104.926 260.089,104.905 260.107,104.892L262.627,102.655C262.654,102.63 262.695,102.631 262.722,102.655L265.273,104.899C265.29,104.914 265.298,104.933 265.298,104.953L265.298,105.377C265.298,105.417 265.265,105.449 265.226,105.449L264.761,105.449L264.761,107.549L265.227,107.549C265.267,107.549 265.299,107.581 265.299,107.621L265.299,108.162C265.299,108.201 265.267,108.234 265.227,108.234L260.151,108.234C260.111,108.234 260.079,108.201 260.079,108.162L260.079,107.621C260.079,107.581 260.111,107.549 260.151,107.549ZM260.76,107.549L261.864,107.549L261.864,105.494C261.864,105.454 261.897,105.422 261.936,105.422L263.437,105.422C263.477,105.422 263.509,105.454 263.509,105.494L263.509,107.549L264.617,107.549L264.617,105.377C264.617,105.338 264.65,105.305 264.69,105.305L265.154,105.305L265.154,104.986L262.674,102.805L260.222,104.982L260.222,105.305L260.688,105.305C260.728,105.305 260.76,105.338 260.76,105.377L260.76,107.549ZM262.009,107.549L263.365,107.549L263.365,105.566L262.009,105.566L262.009,107.549ZM265.155,107.693L260.223,107.693L260.223,108.09L265.155,108.09L265.155,107.693Z" style="fill:rgb(0,113,185);"/>
    </g>
    <defs>
        <linearGradient id="_Linear1" x1="0" y1="0" x2="1" y2="0" gradientUnits="userSpaceOnUse" gradientTransform="matrix(57.9137,0,0,62.3655,3.07465,31.8856)"><stop offset="0" style="stop-color:rgb(103,158,237);stop-opacity:1"/><stop offset="1" style="stop-color:rgb(85,199,230);stop-opacity:1"/></linearGradient>
    </defs>
</svg>
