<svg viewBox="0 0 64 64" xmlns="http://www.w3.org/2000/svg" xml:space="preserve" style="fill-rule:evenodd;clip-rule:evenodd;stroke-linejoin:round;stroke-miterlimit:2"><path d="m59.854 42.062-.183 3.145-.153 3.053.537 1.518.549.493 1.361-.109 1.253-.457.357-3.877-.32-3.053-.348-1.225-1.663-.731-.896.256-.494.987Z" style="fill:#38c6b4" transform="translate(0 3.746)"/><circle cx="61.546" cy="37.477" r="2.028" style="fill:#3ed9c0" transform="translate(0 3.575)"/><path style="fill:#32d4f5" d="M.797 13.179h61.315v4.262H.797z" transform="translate(-.146 4.13)"/><path style="fill:#1f9ec5" d="M.797 13.179h61.315v4.262H.797z" transform="matrix(.60978 0 0 4.00594 12.128 -31.224)"/><path d="M21.892 306.658h8.235v-.392h-8.235v.392Zm6.725.144v2.292c0 .04-.032.072-.072.072h-5.071a.072.072 0 0 1-.072-.072v-2.292H21.82a.072.072 0 0 1-.072-.072v-.536c0-.04.032-.072.072-.072h8.38c.039 0 .072.032.072.072v.536c0 .04-.033.072-.072.072h-.007v2.274a.331.331 0 0 1 .262.326.336.336 0 0 1-.262.325v.081a.331.331 0 0 1 .262.326v.857a.253.253 0 0 1-.253.252h-.162a.253.253 0 0 1-.252-.252v-.857a.332.332 0 0 1 .261-.326v-.081a.332.332 0 0 1-.163-.561.328.328 0 0 1 .163-.09v-2.274h-1.432Zm-5.071 0v2.22h4.927v-2.22h-4.927Zm6.709 2.466a.192.192 0 0 0-.268 0 .192.192 0 0 0 0 .268.192.192 0 0 0 .268 0 .19.19 0 0 0 0-.268Zm-.323.866v.857c0 .03.012.057.031.076h.001c.019.02.046.032.076.032h.162a.108.108 0 0 0 .108-.108v-.857a.188.188 0 0 0-.189-.189.188.188 0 0 0-.189.189Z" style="fill:#007dac" transform="translate(-159.856 -2233.19) scale(7.35038)"/></svg>