<svg viewBox="0 0 2134 2134" xmlns="http://www.w3.org/2000/svg" xml:space="preserve" style="fill-rule:evenodd;clip-rule:evenodd;stroke-linecap:round;stroke-linejoin:round;stroke-miterlimit:1.5"><path d="M1385.56 933.7c-33.92-212.916-169.58-395.896-363.45-490.232C694.164 283.886 298.351 420.58 138.77 748.53c-159.581 327.95-22.887 723.76 305.063 883.34 157.592 76.69 339.193 87.63 504.852 30.42-165.659 57.21-347.26 46.27-504.852-30.42-327.95-159.58-464.644-555.39-305.063-883.34 159.581-327.95 555.394-464.644 883.34-305.062 193.87 94.336 329.53 277.316 363.45 490.232Z" style="fill:none;stroke:#b41918;stroke-width:125px"/><path d="M1136.44 1276c89.79-155.85 82.86-349.249-17.86-498.268-145.384-215.12-438.07-271.734-653.19-126.347-215.119 145.387-271.733 438.075-126.346 653.195 71.459 105.73 182.806 177.9 308.503 199.94-125.697-22.04-237.044-94.21-308.503-199.94-145.387-215.12-88.773-507.808 126.346-653.195 215.12-145.387 507.806-88.773 653.19 126.347 100.72 149.019 107.65 342.418 17.86 498.268Z" style="fill:none;stroke:#fff;stroke-width:83.33px"/><path d="M891.605 1222.79a504.178 504.178 0 0 0 26.234 68.52c118.241 252.2 418.991 360.95 671.181 242.72 252.2-118.24 360.96-418.99 242.72-671.189a504.667 504.667 0 0 0 0 0c118.24 252.199 9.48 552.949-242.72 671.189-252.19 118.23-552.94 9.48-671.181-242.72a504.178 504.178 0 0 1-26.234-68.52Z" style="fill:none;stroke:#c86b61;stroke-width:125px"/><path d="M1288.12 1750.12a679.83 679.83 0 0 0 381.8-57.87c339.72-159.27 486.22-564.39 326.95-904.112-126.88-270.629-415.64-426.638-711.54-384.426 295.9-42.212 584.66 113.797 711.54 384.426 159.27 339.722 12.77 744.842-326.95 904.112a679.83 679.83 0 0 1-381.8 57.87Z" style="fill:#0018ff;stroke:#fff;stroke-width:83.33px"/></svg>