<svg viewBox="0 0 284 122" xmlns="http://www.w3.org/2000/svg" xml:space="preserve" style="fill-rule:evenodd;clip-rule:evenodd;stroke-linejoin:round;stroke-miterlimit:2"><path style="fill:#d9323a" d="M263.11-.01h20.99v20.99h-20.99zM263.11 101.01h20.99V122h-20.99z"/><path d="m61.66 75.62-1.84 1.6a31.157 31.157 0 0 1-20.52 7.93c-11.43 0-19.34-6.48-21.57-17.48h55.64l.12-2.18c0-.37.05-.75.07-1.16.08-1.09.16-2.34.16-3.56-.16-23.15-14.93-39.3-35.92-39.3C15.9 21.47 0 38.09 0 61c0 23.27 15.85 39.53 38.55 39.53 12.7 0 22.52-3.64 30.9-11.45L71 87.64l-9.34-12.02ZM18 53.12C20.46 43 27.63 37 37.57 37c9.54 0 16.43 6.1 18.56 16.12H18Z" style="fill:#fff;fill-rule:nonzero"/><path d="M151.79 22.97h-20.42l-19.54 24.95-19.4-24.95H71.5l29.34 37.29-29.97 38.76h20.21l20.08-25.99 20.36 25.99h20.95l-30.04-38.91 29.36-37.14Z" style="fill:#fff;fill-rule:nonzero"/><path d="M185.82 21.47C163.92 21.47 148 38.09 148 61c0 23.27 15.85 39.53 38.55 39.53 12.7 0 22.52-3.64 30.9-11.45l1.55-1.44-9.34-12-1.84 1.6a31.157 31.157 0 0 1-20.52 7.93c-11.43 0-19.34-6.48-21.58-17.48h55.65l.12-2.18c0-.37.05-.75.07-1.16.08-1.09.16-2.34.16-3.56-.14-23.17-14.91-39.32-35.9-39.32ZM185.59 37c9.54 0 16.47 6.1 18.56 16.12H166C168.48 43 175.65 37 185.59 37Z" style="fill:#fff;fill-rule:nonzero"/></svg>