<svg viewBox="0 0 842 596" xmlns="http://www.w3.org/2000/svg" xml:space="preserve" style="fill-rule:evenodd;clip-rule:evenodd;stroke-linejoin:round;stroke-miterlimit:2"><path d="M0-38.3h-13.266a7.658 7.658 0 0 0-6.634 3.831l-6.633 11.488a7.66 7.66 0 0 0 0 7.662L-19.9-3.831A7.658 7.658 0 0 0-13.266 0H0a7.66 7.66 0 0 0 6.635-3.831l6.633-11.488a7.66 7.66 0 0 0 0-7.662L6.635-34.469A7.66 7.66 0 0 0 0-38.3m0 3.75c1.394 0 2.691.749 3.388 1.956l6.633 11.488a3.92 3.92 0 0 1 0 3.912L3.388-5.706A3.922 3.922 0 0 1 0-3.749h-13.266a3.92 3.92 0 0 1-3.387-1.957l-6.633-11.488a3.92 3.92 0 0 1 0-3.912l6.633-11.488a3.92 3.92 0 0 1 3.387-1.956H0" style="fill:#b41918;fill-rule:nonzero" transform="translate(477.962 249.731) scale(2.93783)"/><path d="M0-38.3h-13.266a7.658 7.658 0 0 0-6.634 3.831l-6.633 11.488a7.66 7.66 0 0 0 0 7.662L-19.9-3.831A7.66 7.66 0 0 0-13.266 0H0a7.662 7.662 0 0 0 6.635-3.831l6.633-11.488a7.66 7.66 0 0 0 0-7.662L6.635-34.469A7.66 7.66 0 0 0 0-38.3m0 3.75c1.394 0 2.691.749 3.388 1.956l6.633 11.488a3.92 3.92 0 0 1 0 3.912L3.388-5.706A3.921 3.921 0 0 1 0-3.75h-13.266a3.92 3.92 0 0 1-3.387-1.956l-6.633-11.488a3.92 3.92 0 0 1 0-3.912l6.633-11.488a3.92 3.92 0 0 1 3.387-1.956H0" style="fill:#fff;fill-rule:nonzero" transform="translate(477.962 369.142) scale(2.93783)"/><path d="M0 12.998h14.46a2.956 2.956 0 0 0 2.952-2.953V2.953A2.956 2.956 0 0 0 14.46 0H0v12.998Zm14.46 2.778H-2.777V-2.778H14.46c3.16 0 5.73 2.571 5.73 5.731v7.092c0 3.16-2.57 5.731-5.73 5.731" style="fill:#fff;fill-rule:nonzero" transform="translate(236.472 411.741) scale(2.93783)"/><path d="M0 18.554h-17.236a5.738 5.738 0 0 1-5.732-5.731V5.731A5.738 5.738 0 0 1-17.236 0H-.001v2.778h-17.235a2.956 2.956 0 0 0-2.953 2.953v7.092a2.956 2.956 0 0 0 2.953 2.953h14.459v-5.11h-8.707V7.888H0v10.666Z" style="fill:#fff;fill-rule:nonzero" transform="translate(375.494 403.579) scale(2.93783)"/><path d="M0 18.554h-16.718a5.738 5.738 0 0 1-5.731-5.731V5.731A5.738 5.738 0 0 1-16.718 0H0v2.778h-16.718a2.956 2.956 0 0 0-2.953 2.953v7.092a2.956 2.956 0 0 0 2.953 2.953H0v2.778Z" style="fill:#fff;fill-rule:nonzero" transform="translate(531.855 403.579) scale(2.93783)"/><path d="M0-12.998a2.957 2.957 0 0 0-2.953 2.953v7.092A2.957 2.957 0 0 0 0 0h11.506a2.956 2.956 0 0 0 2.953-2.953v-7.083a2.957 2.957 0 0 0-2.947-2.953l-5.761-.009H0ZM11.506 2.778H0a5.737 5.737 0 0 1-5.73-5.731v-7.092c0-3.16 2.57-5.731 5.73-5.731h5.756l5.76.009a5.739 5.739 0 0 1 5.721 5.731v7.083a5.738 5.738 0 0 1-5.731 5.731" style="fill:#fff;fill-rule:nonzero" transform="translate(561.228 449.927) scale(2.93783)"/><path d="M0 18.554h-2.777V5.731A2.956 2.956 0 0 0-5.73 2.778h-4.344l-.001 15.776h-2.779l.001-15.776h-4.345a2.957 2.957 0 0 0-2.953 2.953v12.823h-2.778V5.731A5.738 5.738 0 0 1-17.198 0H-5.73C-2.57 0 0 2.571 0 5.731v12.823Z" style="fill:#fff;fill-rule:nonzero" transform="translate(691.766 403.579) scale(2.93783)"/><path d="M0 18.554h-16.718a5.737 5.737 0 0 1-5.73-5.73V5.731A5.738 5.738 0 0 1-16.717 0H0v2.778h-16.717a2.956 2.956 0 0 0-2.953 2.953v2.157H0v2.778h-19.67v2.158a2.956 2.956 0 0 0 2.952 2.952H0v2.778Z" style="fill:#fff;fill-rule:nonzero" transform="translate(216.082 403.579) scale(2.93783)"/><path d="M0 18.554h-16.717a5.737 5.737 0 0 1-5.73-5.73V5.731c0-3.16 2.57-5.731 5.73-5.731H0v2.778h-16.717a2.957 2.957 0 0 0-2.953 2.953v2.157H0v2.778h-19.67v2.158a2.957 2.957 0 0 0 2.953 2.952H0v2.778Z" style="fill:#fff;fill-rule:nonzero" transform="translate(453.673 403.579) scale(2.93783)"/><path d="M0-38.3h-13.266a7.661 7.661 0 0 0-6.635 3.831l-6.633 11.488a7.663 7.663 0 0 0 0 7.661l6.633 11.489A7.663 7.663 0 0 0-13.266 0H0a7.662 7.662 0 0 0 6.635-3.831l6.633-11.489a7.659 7.659 0 0 0 0-7.661L6.635-34.469A7.66 7.66 0 0 0 0-38.3m0 3.749c1.393 0 2.691.75 3.388 1.957l6.633 11.487a3.928 3.928 0 0 1 0 3.913L3.388-5.706A3.923 3.923 0 0 1 0-3.75h-13.266a3.923 3.923 0 0 1-3.388-1.956l-6.633-11.488a3.928 3.928 0 0 1 0-3.913l6.633-11.487a3.924 3.924 0 0 1 3.388-1.957H0" style="fill:#fff;fill-rule:nonzero" transform="translate(374.547 309.437) scale(2.93783)"/></svg>