<?xml version="1.0" encoding="UTF-8" standalone="no"?>
<!DOCTYPE svg PUBLIC "-//W3C//DTD SVG 1.1//EN" "http://www.w3.org/Graphics/SVG/1.1/DTD/svg11.dtd">
<svg width="100%" height="100%" viewBox="0 0 64 64" version="1.1" xmlns="http://www.w3.org/2000/svg"
     xml:space="preserve"
     style="fill-rule:evenodd;clip-rule:evenodd;stroke-linejoin:round;stroke-miterlimit:2;">
    <path d="M1.048,0.922L24.703,5.479L19.759,10.455L21.762,13.105L22.829,15.335L23.216,17.468L22.215,19.665L19.565,21.734L17.658,23.22L14.2,22.768L10.516,19.762L7.608,22.121L5.831,23.899L1.048,0.922Z" style="fill:rgb(125,186,46);"/>
    <g transform="matrix(6.12323e-17,1,-1,6.12323e-17,63.9132,-0.125697)">
        <path d="M1.048,0.922L24.703,5.479L19.759,10.455L21.762,13.105L22.829,15.335L23.216,17.468L22.215,19.665L19.565,21.734L17.658,23.22L14.2,22.768L10.516,19.762L7.608,22.121L5.831,23.899L1.048,0.922Z" style="fill:rgb(125,186,46);"/>
    </g>
    <g transform="matrix(-1,-1.22465e-16,1.22465e-16,-1,64.0389,63.9913)">
        <path d="M1.048,0.922L24.703,5.479L19.759,10.455L21.762,13.105L22.829,15.335L23.216,17.468L22.215,19.665L19.565,21.734L17.658,23.22L14.2,22.768L10.516,19.762L7.608,22.121L5.831,23.899L1.048,0.922Z" style="fill:rgb(125,186,46);"/>
    </g>
    <g transform="matrix(0,-1,1,0,0.125697,64.117)">
        <path d="M1.048,0.922L24.703,5.479L19.759,10.455L21.762,13.105L22.829,15.335L23.216,17.468L22.215,19.665L19.565,21.734L17.658,23.22L14.2,22.768L10.516,19.762L7.608,22.121L5.831,23.899L1.048,0.922Z" style="fill:rgb(125,186,46);"/>
    </g>
    <g transform="matrix(11.2783,0,0,11.2783,-4678.56,-4651.96)">
        <path d="M415.981,414.498L415.786,414.304L415.368,414.722C415.34,414.75 415.294,414.75 415.266,414.722C415.255,414.711 415.248,414.697 415.246,414.683L414.83,412.557C414.822,412.518 414.848,412.48 414.887,412.472C414.897,412.47 414.907,412.471 414.916,412.472L417.044,412.888C417.083,412.896 417.108,412.933 417.101,412.972C417.097,412.987 417.09,413 417.081,413.009L416.664,413.426L416.858,413.621C416.943,413.706 416.985,413.816 416.985,413.927C416.985,414.038 416.942,414.148 416.858,414.233L416.592,414.498L416.588,414.503C416.504,414.584 416.395,414.625 416.287,414.625C416.176,414.625 416.065,414.583 415.981,414.498ZM419.351,416.117L419.546,416.312L419.964,415.894C419.992,415.866 420.038,415.866 420.066,415.894C420.077,415.905 420.084,415.919 420.086,415.933L420.502,418.059C420.509,418.098 420.484,418.136 420.445,418.144C420.435,418.146 420.425,418.146 420.416,418.143L418.289,417.728C418.25,417.721 418.224,417.683 418.232,417.644C418.235,417.629 418.242,417.616 418.252,417.606L418.669,417.189L418.474,416.995C418.39,416.91 418.347,416.8 418.347,416.689C418.347,416.578 418.39,416.467 418.474,416.383L418.74,416.117L418.744,416.113C418.828,416.031 418.937,415.991 419.045,415.991C419.156,415.991 419.267,416.033 419.351,416.117ZM419.495,416.465L419.249,416.219C419.193,416.163 419.119,416.135 419.045,416.135C418.973,416.135 418.9,416.162 418.845,416.216L418.841,416.219L418.576,416.485C418.52,416.541 418.492,416.615 418.492,416.689C418.492,416.763 418.52,416.837 418.576,416.893L418.821,417.138C418.849,417.166 418.849,417.212 418.821,417.24L418.449,417.613L420.34,417.982L419.971,416.091L419.597,416.465C419.569,416.493 419.523,416.493 419.495,416.465ZM416.083,416.219L415.837,416.465C415.809,416.493 415.763,416.493 415.735,416.465L415.361,416.091L414.992,417.982L416.883,417.613L416.511,417.24C416.482,417.212 416.482,417.166 416.511,417.138L416.756,416.893L416.76,416.89C416.814,416.834 416.84,416.761 416.84,416.689C416.84,416.615 416.812,416.541 416.756,416.485L416.49,416.219C416.435,416.163 416.361,416.135 416.287,416.135C416.213,416.135 416.139,416.163 416.082,416.219L416.083,416.219ZM415.786,416.312L415.981,416.117C416.065,416.033 416.176,415.991 416.287,415.991C416.398,415.991 416.508,416.033 416.592,416.117L416.858,416.383C416.943,416.467 416.985,416.578 416.985,416.689C416.985,416.797 416.944,416.907 416.862,416.99L416.858,416.995L416.664,417.189L417.081,417.606C417.09,417.616 417.097,417.629 417.101,417.644C417.108,417.683 417.083,417.721 417.044,417.728L414.916,418.143C414.907,418.146 414.897,418.146 414.887,418.144C414.848,418.136 414.822,418.098 414.83,418.059L415.246,415.933C415.248,415.919 415.255,415.905 415.266,415.894C415.294,415.866 415.34,415.866 415.368,415.894L415.786,416.312ZM419.249,414.397L419.495,414.151C419.523,414.123 419.569,414.123 419.597,414.151L419.971,414.525L420.34,412.634L418.449,413.003L418.821,413.376C418.849,413.404 418.849,413.449 418.821,413.477L418.576,413.723L418.572,413.726C418.519,413.782 418.492,413.854 418.492,413.927C418.492,414.001 418.52,414.075 418.576,414.131L418.841,414.397C418.898,414.453 418.972,414.481 419.045,414.481C419.119,414.481 419.194,414.453 419.249,414.397ZM419.546,414.304L419.351,414.498C419.267,414.583 419.156,414.625 419.045,414.625C418.934,414.625 418.824,414.583 418.74,414.498L418.474,414.233C418.39,414.149 418.347,414.038 418.347,413.927C418.347,413.818 418.388,413.709 418.47,413.625L418.474,413.621L418.669,413.426L418.252,413.009C418.242,413 418.235,412.987 418.232,412.972C418.224,412.933 418.25,412.896 418.289,412.888L420.416,412.472C420.425,412.471 420.435,412.47 420.445,412.472C420.484,412.48 420.509,412.518 420.502,412.557L420.086,414.683C420.084,414.697 420.077,414.711 420.066,414.722C420.038,414.75 419.992,414.75 419.964,414.722L419.546,414.304ZM415.837,414.151L416.083,414.397C416.139,414.453 416.213,414.481 416.287,414.481C416.359,414.481 416.432,414.454 416.487,414.4L416.49,414.397L416.756,414.131L416.757,414.131C416.812,414.075 416.84,414.001 416.84,413.927C416.84,413.853 416.812,413.779 416.756,413.723L416.511,413.477C416.482,413.449 416.482,413.404 416.511,413.376L416.883,413.003L414.992,412.634L415.361,414.525L415.735,414.151C415.763,414.123 415.809,414.123 415.837,414.151Z" style="fill:rgb(100,150,37);"/>
    </g>
</svg>
