<?xml version="1.0" encoding="UTF-8" standalone="no"?>
<!DOCTYPE svg PUBLIC "-//W3C//DTD SVG 1.1//EN" "http://www.w3.org/Graphics/SVG/1.1/DTD/svg11.dtd">
<svg width="100%" height="100%" viewBox="0 0 64 64" version="1.1" xmlns="http://www.w3.org/2000/svg" xmlns:xlink="http://www.w3.org/1999/xlink" xml:space="preserve" xmlns:serif="http://www.serif.com/" style="fill-rule:evenodd;clip-rule:evenodd;stroke-linejoin:round;stroke-miterlimit:2;">
    <path d="M1.939,23.726L20.332,15.534L22.616,24.041L1.939,23.726Z" style="fill:rgb(223,165,0);"/>
    <g transform="matrix(-1,0,0,1,64.0389,0)">
        <path d="M1.939,23.726L20.332,15.534L22.616,24.041L1.939,23.726Z" style="fill:rgb(223,165,0);"/>
    </g>
    <path d="M0.605,24.041L63.147,24.516L63.462,47.714L62.099,48.777L43.258,48.895L35.696,44.799L28.056,44.76L21.833,48.777L2.416,48.738L0.683,47.556L0.605,24.041Z" style="fill:url(#_Linear1);"/>
    <path d="M5.498,30.953L7.349,29.22L27.16,29.339L28.263,30.835L28.263,38.515L19.874,43.832L6.995,43.753L5.735,42.335L5.498,30.953Z" style="fill:url(#_Linear2);"/>
    <path d="M35.598,30.67L37.37,29.22L56.787,29.22L58.323,30.907L58.441,42.446L56.787,43.832L44.184,43.832L35.953,38.705L35.598,30.67Z" style="fill:url(#_Linear3);"/>
    <g transform="matrix(8.95522,0,0,8.95522,-2977.47,-1873.18)">
        <path d="M339.566,211.823C339.569,211.826 339.572,211.829 339.574,211.832L339.575,211.832C339.58,211.839 339.585,211.847 339.59,211.854C339.616,211.894 339.631,211.941 339.631,211.992L339.631,214.422C339.631,214.491 339.602,214.554 339.557,214.6C339.511,214.645 339.448,214.674 339.378,214.674L337.245,214.674C337.221,214.674 337.198,214.671 337.176,214.664C337.153,214.658 337.132,214.649 337.112,214.636L336.465,214.232C336.456,214.226 336.447,214.222 336.438,214.22C336.428,214.217 336.419,214.216 336.408,214.216L335.704,214.216C335.693,214.216 335.683,214.217 335.674,214.22C335.665,214.222 335.656,214.226 335.647,214.232L335,214.636C334.979,214.649 334.958,214.658 334.936,214.664C334.914,214.671 334.891,214.674 334.866,214.674L332.735,214.674C332.665,214.674 332.602,214.645 332.557,214.6C332.511,214.554 332.483,214.491 332.483,214.422L332.483,211.992C332.483,211.941 332.497,211.894 332.523,211.854C332.528,211.847 332.533,211.839 332.539,211.832C332.542,211.828 332.544,211.825 332.547,211.822C332.571,211.797 332.6,211.776 332.633,211.761L334.765,210.822C334.77,210.82 334.775,210.819 334.779,210.818C334.819,210.809 334.857,210.834 334.864,210.873L335.058,211.802L337.055,211.802L337.248,210.877C337.249,210.871 337.25,210.865 337.253,210.859C337.269,210.823 337.312,210.806 337.348,210.822L339.48,211.761C339.514,211.776 339.543,211.797 339.566,211.823ZM339.477,211.946L332.636,211.946C332.63,211.96 332.627,211.976 332.627,211.992L332.627,214.422C332.627,214.451 332.639,214.479 332.658,214.498L332.659,214.498C332.678,214.518 332.705,214.53 332.735,214.53L334.866,214.53C334.878,214.53 334.887,214.528 334.897,214.526C334.906,214.523 334.915,214.519 334.924,214.513L335.571,214.11C335.591,214.097 335.612,214.087 335.634,214.081C335.657,214.075 335.68,214.071 335.704,214.071L336.408,214.071C336.432,214.071 336.455,214.075 336.477,214.081C336.499,214.087 336.52,214.097 336.541,214.11L337.188,214.513C337.197,214.519 337.206,214.523 337.215,214.526C337.224,214.528 337.234,214.53 337.245,214.53L339.378,214.53C339.408,214.53 339.435,214.518 339.455,214.498C339.474,214.479 339.486,214.451 339.486,214.422L339.486,211.992C339.486,211.976 339.483,211.96 339.477,211.946ZM332.897,211.802L334.912,211.802L334.742,210.989L332.897,211.802ZM337.202,211.802L339.216,211.802L337.371,210.989L337.202,211.802ZM334.707,214.112C334.731,214.112 334.755,214.109 334.777,214.103C334.799,214.096 334.82,214.087 334.841,214.074L335.593,213.604C335.631,213.581 335.66,213.55 335.681,213.513C335.701,213.476 335.712,213.434 335.712,213.39L335.712,212.616C335.712,212.547 335.684,212.483 335.638,212.438C335.592,212.392 335.529,212.364 335.46,212.364L333.296,212.364C333.227,212.364 333.164,212.392 333.118,212.438C333.072,212.484 333.044,212.547 333.044,212.616L333.044,213.86C333.044,213.927 333.071,213.988 333.114,214.034C333.115,214.035 333.117,214.037 333.118,214.038C333.164,214.084 333.227,214.112 333.296,214.112L334.707,214.112ZM333.296,213.968L334.707,213.968C334.718,213.968 334.728,213.967 334.737,213.964C334.746,213.962 334.755,213.958 334.765,213.952L335.517,213.482C335.534,213.472 335.547,213.458 335.555,213.443C335.563,213.428 335.568,213.41 335.568,213.39L335.568,212.616C335.568,212.586 335.556,212.559 335.536,212.54C335.517,212.52 335.49,212.508 335.46,212.508L333.296,212.508C333.267,212.508 333.239,212.52 333.22,212.54C333.201,212.559 333.188,212.586 333.188,212.616L333.188,213.86C333.188,213.888 333.199,213.914 333.217,213.934L333.22,213.936C333.24,213.956 333.267,213.968 333.296,213.968ZM337.406,213.968L338.817,213.968C338.846,213.968 338.874,213.956 338.893,213.936C338.913,213.917 338.925,213.89 338.925,213.86L338.925,212.616C338.925,212.586 338.913,212.559 338.893,212.54L338.891,212.537C338.871,212.519 338.845,212.508 338.817,212.508L336.653,212.508C336.624,212.508 336.597,212.52 336.577,212.54C336.558,212.559 336.545,212.586 336.545,212.616L336.545,213.39C336.545,213.41 336.55,213.428 336.558,213.443C336.566,213.458 336.579,213.472 336.596,213.482L337.348,213.952C337.358,213.958 337.367,213.962 337.376,213.964C337.385,213.967 337.395,213.968 337.406,213.968ZM338.817,214.112C338.886,214.112 338.95,214.084 338.995,214.038C339.041,213.993 339.069,213.929 339.069,213.86L339.069,212.616C339.069,212.547 339.041,212.483 338.995,212.438C338.994,212.436 338.992,212.435 338.99,212.433C338.945,212.39 338.884,212.364 338.817,212.364L336.653,212.364C336.584,212.364 336.521,212.392 336.476,212.438L336.475,212.438C336.43,212.484 336.401,212.547 336.401,212.616L336.401,213.39C336.401,213.434 336.412,213.476 336.433,213.513C336.453,213.55 336.483,213.581 336.52,213.604L337.273,214.074C337.293,214.087 337.314,214.096 337.337,214.103C337.359,214.109 337.382,214.112 337.406,214.112L338.817,214.112Z" style="fill:rgb(247,141,30);"/>
    </g>
    <defs>
        <linearGradient id="_Linear1" x1="0" y1="0" x2="1" y2="0" gradientUnits="userSpaceOnUse" gradientTransform="matrix(62.8577,0,0,24.8547,0.604723,36.4681)"><stop offset="0" style="stop-color:rgb(255,208,17);stop-opacity:1"/><stop offset="1" style="stop-color:rgb(254,162,27);stop-opacity:1"/></linearGradient>
        <linearGradient id="_Linear2" x1="0" y1="0" x2="1" y2="0" gradientUnits="userSpaceOnUse" gradientTransform="matrix(22.7643,0,0,14.6117,5.49841,36.5262)"><stop offset="0" style="stop-color:rgb(50,212,245);stop-opacity:1"/><stop offset="1" style="stop-color:rgb(34,163,202);stop-opacity:1"/></linearGradient>
        <linearGradient id="_Linear3" x1="0" y1="0" x2="1" y2="0" gradientUnits="userSpaceOnUse" gradientTransform="matrix(22.843,0,0,14.6117,35.598,36.5262)"><stop offset="0" style="stop-color:rgb(32,159,198);stop-opacity:1"/><stop offset="1" style="stop-color:rgb(0,120,212);stop-opacity:1"/></linearGradient>
    </defs>
</svg>
