<?xml version="1.0" encoding="UTF-8" standalone="no"?>
<!DOCTYPE svg PUBLIC "-//W3C//DTD SVG 1.1//EN" "http://www.w3.org/Graphics/SVG/1.1/DTD/svg11.dtd">
<svg width="100%" height="100%" viewBox="0 0 64 64" version="1.1" xmlns="http://www.w3.org/2000/svg" xmlns:xlink="http://www.w3.org/1999/xlink" xml:space="preserve" xmlns:serif="http://www.serif.com/" style="fill-rule:evenodd;clip-rule:evenodd;stroke-linejoin:round;stroke-miterlimit:2;">
    <path d="M64,7.05C64,3.165 60.846,0.011 56.961,0.011L7.039,0.011C3.154,0.011 0,3.165 0,7.05L0,56.961C0,60.846 3.154,64 7.039,64L56.961,64C60.846,64 64,60.846 64,56.961L64,7.05Z" style="fill:url(#_Linear1);"/>
    <g transform="matrix(0.191188,0,0,0.122037,7.7683,35.1614)">
        <path d="M64,7.05C64,3.165 61.987,0.011 59.507,0.011L4.493,0.011C2.014,0.011 0,3.165 0,7.05L0,56.961C0,60.846 2.014,64 4.493,64L59.507,64C61.987,64 64,60.846 64,56.961L64,7.05Z" style="fill:url(#_Linear2);"/>
    </g>
    <g transform="matrix(0.191188,0,0,0.122037,25.8821,21.3921)">
        <path d="M64,7.05C64,3.165 61.987,0.011 59.507,0.011L4.493,0.011C2.014,0.011 0,3.165 0,7.05L0,56.961C0,60.846 2.014,64 4.493,64L59.507,64C61.987,64 64,60.846 64,56.961L64,7.05Z" style="fill:url(#_Linear3);"/>
    </g>
    <g transform="matrix(0.191188,0,0,0.122037,44.0359,35.1614)">
        <path d="M64,7.05C64,3.165 61.987,0.011 59.507,0.011L4.493,0.011C2.014,0.011 0,3.165 0,7.05L0,56.961C0,60.846 2.014,64 4.493,64L59.507,64C61.987,64 64,60.846 64,56.961L64,7.05Z" style="fill:url(#_Linear4);"/>
    </g>
    <g transform="matrix(10.6684,0,0,10.6684,-1159.63,-2498.54)">
        <path d="M108.844,234.634L108.842,239.766C108.842,239.766 108.842,239.767 108.842,239.767C108.842,239.924 108.972,240.054 109.129,240.054L109.131,240.054L114.262,240.057C114.262,240.057 114.263,240.057 114.263,240.057C114.421,240.057 114.551,239.927 114.551,239.769C114.551,239.769 114.551,239.768 114.551,239.768L114.553,234.637C114.553,234.56 114.523,234.487 114.469,234.432C114.415,234.378 114.341,234.348 114.265,234.348L109.133,234.345C108.975,234.347 108.846,234.476 108.844,234.634ZM113.459,238.318L113.461,239.32C113.461,239.36 113.428,239.392 113.389,239.392C113.35,239.392 113.317,239.359 113.317,239.32L113.315,238.318L112.954,238.318C112.816,238.318 112.702,238.204 112.702,238.066L112.702,237.655C112.702,237.517 112.815,237.404 112.953,237.404L113.314,237.404L113.314,235.083C113.314,235.043 113.346,235.011 113.386,235.011C113.426,235.011 113.458,235.043 113.458,235.083L113.458,237.404L113.825,237.404C113.895,237.404 113.958,237.432 114.004,237.479C114.051,237.526 114.077,237.59 114.077,237.656L114.077,238.067C114.077,238.205 113.964,238.318 113.826,238.318L113.459,238.318ZM113.38,237.548L113.825,237.548C113.855,237.548 113.882,237.56 113.902,237.58C113.921,237.6 113.934,237.627 113.934,237.656L113.934,238.066L113.933,238.066C113.933,238.066 113.933,238.067 113.933,238.067C113.933,238.126 113.885,238.174 113.826,238.174C113.826,238.174 113.825,238.174 113.825,238.174L112.954,238.174C112.925,238.174 112.898,238.162 112.877,238.142C112.857,238.121 112.845,238.094 112.845,238.065L112.845,237.656L112.846,237.656C112.846,237.597 112.895,237.548 112.954,237.547L113.38,237.548ZM111.687,236.237L112.134,236.237C112.164,236.237 112.191,236.249 112.21,236.269C112.23,236.289 112.242,236.316 112.242,236.346L112.242,236.755C112.242,236.785 112.229,236.812 112.21,236.831C112.19,236.852 112.162,236.863 112.133,236.863L111.262,236.863C111.233,236.863 111.206,236.851 111.186,236.831C111.165,236.811 111.154,236.783 111.154,236.754L111.154,236.345C111.155,236.286 111.203,236.237 111.262,236.236L111.687,236.237ZM111.621,236.093L111.621,235.082C111.621,235.043 111.653,235.01 111.693,235.01C111.733,235.01 111.765,235.043 111.765,235.082L111.765,236.093L112.134,236.093C112.203,236.093 112.266,236.122 112.312,236.168C112.359,236.215 112.386,236.279 112.386,236.346L112.386,236.755C112.386,236.822 112.359,236.886 112.311,236.933C112.264,236.981 112.2,237.007 112.133,237.007L111.765,237.007L111.765,239.319C111.765,239.359 111.733,239.392 111.693,239.392C111.653,239.391 111.621,239.359 111.621,239.319L111.621,237.007L111.262,237.007C111.195,237.007 111.131,236.98 111.084,236.932C111.036,236.885 111.01,236.821 111.01,236.754L111.01,236.344C111.01,236.206 111.123,236.093 111.261,236.093L111.621,236.093ZM110.441,238.171L109.569,238.171L109.569,238.17C109.569,238.17 109.568,238.17 109.568,238.17C109.509,238.17 109.461,238.122 109.461,238.063L109.461,237.653C109.461,237.623 109.474,237.596 109.493,237.576C109.514,237.556 109.541,237.545 109.57,237.545L110.441,237.545C110.471,237.545 110.498,237.557 110.517,237.577C110.537,237.596 110.549,237.624 110.549,237.653L110.549,238.063C110.549,238.093 110.537,238.12 110.517,238.139C110.497,238.159 110.47,238.171 110.441,238.171ZM110.079,238.315L110.079,239.319C110.078,239.358 110.046,239.39 110.007,239.391C109.967,239.391 109.935,239.359 109.934,239.319L109.934,238.315L109.569,238.314L109.569,238.315C109.569,238.315 109.569,238.315 109.569,238.315C109.431,238.315 109.317,238.201 109.317,238.063L109.317,237.653C109.317,237.583 109.345,237.521 109.392,237.475C109.439,237.427 109.503,237.401 109.57,237.401L109.934,237.401L109.934,235.082C109.934,235.042 109.966,235.01 110.006,235.01C110.046,235.01 110.078,235.042 110.078,235.082L110.078,237.401L110.442,237.401C110.58,237.401 110.693,237.514 110.693,237.652L110.693,238.064C110.693,238.202 110.58,238.315 110.442,238.315L110.079,238.315ZM108.698,239.766L108.701,234.634C108.701,234.633 108.701,234.633 108.701,234.632C108.701,234.396 108.895,234.202 109.131,234.202C109.132,234.202 109.132,234.202 109.133,234.202L114.265,234.204C114.384,234.204 114.492,234.252 114.57,234.331C114.652,234.412 114.698,234.522 114.697,234.637L114.695,239.768C114.695,240.005 114.5,240.2 114.263,240.2C114.263,240.2 114.262,240.2 114.262,240.2L109.13,240.198C109.129,240.198 109.129,240.198 109.128,240.198C108.892,240.198 108.698,240.004 108.698,239.768C108.698,239.767 108.698,239.767 108.698,239.766Z" style="fill:rgb(230,230,230);"/>
    </g>
    <defs>
        <linearGradient id="_Linear1" x1="0" y1="0" x2="1" y2="0" gradientUnits="userSpaceOnUse" gradientTransform="matrix(63.9996,0,0,63.9886,0.000361143,32.0057)"><stop offset="0" style="stop-color:rgb(153,153,153);stop-opacity:1"/><stop offset="1" style="stop-color:rgb(118,118,118);stop-opacity:1"/></linearGradient>
        <linearGradient id="_Linear2" x1="0" y1="0" x2="1" y2="0" gradientUnits="userSpaceOnUse" gradientTransform="matrix(63.9996,0,0,63.9886,0.000361143,32.0057)"><stop offset="0" style="stop-color:rgb(255,209,0);stop-opacity:1"/><stop offset="1" style="stop-color:rgb(254,162,26);stop-opacity:1"/></linearGradient>
        <linearGradient id="_Linear3" x1="0" y1="0" x2="1" y2="0" gradientUnits="userSpaceOnUse" gradientTransform="matrix(63.9996,0,0,63.9886,0.000361143,32.0057)"><stop offset="0" style="stop-color:rgb(255,209,0);stop-opacity:1"/><stop offset="1" style="stop-color:rgb(254,162,26);stop-opacity:1"/></linearGradient>
        <linearGradient id="_Linear4" x1="0" y1="0" x2="1" y2="0" gradientUnits="userSpaceOnUse" gradientTransform="matrix(63.9996,0,0,63.9886,0.000361143,32.0057)"><stop offset="0" style="stop-color:rgb(255,209,0);stop-opacity:1"/><stop offset="1" style="stop-color:rgb(254,162,26);stop-opacity:1"/></linearGradient>
    </defs>
</svg>
