<?xml version="1.0" encoding="UTF-8" standalone="no"?>
<!DOCTYPE svg PUBLIC "-//W3C//DTD SVG 1.1//EN" "http://www.w3.org/Graphics/SVG/1.1/DTD/svg11.dtd">
<svg width="100%" height="100%" viewBox="0 0 64 64" version="1.1" xmlns="http://www.w3.org/2000/svg" xmlns:xlink="http://www.w3.org/1999/xlink" xml:space="preserve" xmlns:serif="http://www.serif.com/" style="fill-rule:evenodd;clip-rule:evenodd;stroke-linejoin:round;stroke-miterlimit:2;">
    <path d="M35.075,7.102L3.047,7.102L3.047,58.659L35.075,58.659L35.075,7.102ZM54.155,5.231L38.659,7.396L45.793,58.457L61.289,56.292L54.155,5.231Z" style="fill:url(#_Linear1);"/>
    <g transform="matrix(0.875,0,-4.85723e-17,0.815,1.32334,8.30021)">
        <circle cx="10.81" cy="46.826" r="5.58" style="fill:rgb(110,229,254);"/>
    </g>
    <g transform="matrix(0.875,0,-4.85723e-17,0.815,17.659,8.30021)">
        <circle cx="10.81" cy="46.826" r="5.58" style="fill:rgb(110,229,254);"/>
    </g>
    <g transform="matrix(0.875,0,-4.85723e-17,0.815,42.2449,7.07964)">
        <circle cx="10.81" cy="46.826" r="5.58" style="fill:rgb(110,229,254);"/>
    </g>
    <g transform="matrix(10.2768,-8.88178e-16,-8.88178e-16,10.2768,-361.785,-1176.43)">
        <g id="svg_1">
            <path d="M36.879,115.206L35.654,115.206C35.625,115.206 35.597,115.218 35.578,115.237L35.575,115.24C35.557,115.259 35.546,115.285 35.546,115.314L35.546,120.009C35.546,120.038 35.558,120.066 35.578,120.085C35.597,120.104 35.624,120.117 35.654,120.117L36.879,120.117C36.909,120.117 36.936,120.104 36.956,120.085C36.975,120.065 36.987,120.038 36.987,120.009L36.987,115.314C36.987,115.284 36.975,115.257 36.956,115.237C36.936,115.218 36.909,115.206 36.879,115.206ZM40.178,118.518C40.076,118.531 39.99,118.586 39.932,118.661C39.875,118.737 39.846,118.835 39.86,118.937C39.874,119.039 39.928,119.125 40.004,119.183C40.079,119.24 40.178,119.269 40.28,119.255C40.381,119.241 40.468,119.187 40.525,119.111C40.583,119.035 40.612,118.938 40.597,118.836C40.583,118.734 40.53,118.647 40.454,118.59C40.378,118.532 40.28,118.504 40.178,118.518ZM39.818,118.575C39.898,118.469 40.018,118.394 40.159,118.375C40.3,118.356 40.435,118.395 40.541,118.475C40.646,118.555 40.721,118.675 40.74,118.816C40.759,118.957 40.72,119.093 40.64,119.198C40.56,119.303 40.44,119.378 40.299,119.397C40.158,119.417 40.022,119.377 39.917,119.297C39.812,119.217 39.737,119.097 39.718,118.956C39.699,118.815 39.738,118.68 39.818,118.575ZM39.502,116.742C39.462,116.748 39.426,116.72 39.421,116.681C39.416,116.641 39.443,116.605 39.483,116.6L40.332,116.483C40.372,116.478 40.408,116.506 40.413,116.545C40.419,116.584 40.391,116.621 40.352,116.626L39.502,116.742ZM40.24,115.809C40.279,115.804 40.315,115.831 40.321,115.871C40.326,115.91 40.298,115.946 40.259,115.951L39.409,116.068C39.37,116.073 39.334,116.045 39.328,116.006C39.323,115.967 39.351,115.931 39.39,115.925L40.24,115.809ZM40.328,115.061C40.358,115.057 40.387,115.066 40.409,115.083L40.409,115.082C40.431,115.099 40.446,115.124 40.451,115.153L40.451,115.154L41.089,119.804L41.089,119.805C41.093,119.834 41.084,119.863 41.068,119.885C41.051,119.907 41.026,119.923 40.997,119.927L40.996,119.927L39.783,120.093L39.783,120.094C39.753,120.098 39.725,120.089 39.702,120.072L39.702,120.073C39.68,120.056 39.665,120.031 39.661,120.002L39.66,120.001L39.022,115.35C39.018,115.32 39.027,115.292 39.044,115.269L39.043,115.269C39.06,115.248 39.085,115.232 39.114,115.228L39.115,115.227L40.328,115.061ZM39.1,115.085L40.304,114.919C40.307,114.918 40.311,114.918 40.315,114.918C40.382,114.91 40.446,114.93 40.496,114.967L40.496,114.968C40.545,115.005 40.582,115.062 40.592,115.128C40.593,115.131 40.593,115.135 40.594,115.139L41.231,119.78C41.231,119.784 41.232,119.787 41.232,119.791C41.24,119.858 41.22,119.922 41.182,119.972C41.144,120.022 41.088,120.058 41.022,120.069C41.019,120.069 41.015,120.07 41.011,120.07L39.807,120.235C39.803,120.236 39.8,120.236 39.796,120.237C39.729,120.244 39.665,120.225 39.615,120.187L39.616,120.187L39.615,120.187C39.566,120.149 39.53,120.093 39.519,120.027C39.518,120.023 39.517,120.019 39.517,120.015L38.88,115.374C38.88,115.371 38.879,115.367 38.879,115.363C38.871,115.297 38.891,115.232 38.929,115.183C38.967,115.133 39.023,115.097 39.088,115.086C39.092,115.085 39.096,115.085 39.1,115.085ZM37.846,118.609C37.743,118.609 37.65,118.651 37.583,118.718C37.516,118.786 37.474,118.879 37.474,118.981C37.474,119.084 37.516,119.177 37.583,119.244C37.65,119.312 37.743,119.353 37.846,119.353C37.949,119.353 38.042,119.312 38.109,119.244C38.177,119.177 38.218,119.084 38.218,118.981C38.218,118.879 38.177,118.786 38.109,118.718C38.042,118.651 37.949,118.609 37.846,118.609ZM37.481,118.616C37.575,118.523 37.704,118.465 37.846,118.465C37.989,118.465 38.118,118.523 38.211,118.616C38.304,118.71 38.362,118.839 38.362,118.981C38.362,119.124 38.304,119.253 38.211,119.346C38.118,119.44 37.989,119.497 37.846,119.497C37.704,119.497 37.575,119.44 37.481,119.346C37.388,119.253 37.33,119.124 37.33,118.981C37.33,118.839 37.388,118.71 37.481,118.616ZM37.417,116.759C37.378,116.759 37.345,116.727 37.345,116.687C37.345,116.647 37.378,116.615 37.417,116.615L38.275,116.615C38.315,116.615 38.347,116.647 38.347,116.687C38.347,116.727 38.315,116.759 38.275,116.759L37.417,116.759ZM38.275,115.934C38.315,115.934 38.347,115.966 38.347,116.006C38.347,116.046 38.315,116.078 38.275,116.078L37.417,116.078C37.378,116.078 37.345,116.046 37.345,116.006C37.345,115.966 37.378,115.934 37.417,115.934L38.275,115.934ZM38.465,115.206C38.495,115.206 38.522,115.218 38.541,115.237C38.561,115.257 38.573,115.284 38.573,115.314L38.573,120.009C38.573,120.038 38.561,120.065 38.541,120.085L38.542,120.085C38.522,120.104 38.495,120.117 38.465,120.117L37.24,120.117C37.21,120.117 37.183,120.104 37.163,120.085C37.144,120.066 37.132,120.038 37.132,120.009L37.132,115.314C37.132,115.285 37.143,115.259 37.161,115.24L37.163,115.237C37.183,115.218 37.21,115.206 37.24,115.206L38.465,115.206ZM37.24,115.061L38.465,115.061C38.535,115.061 38.598,115.09 38.643,115.135C38.689,115.181 38.717,115.244 38.717,115.314L38.717,120.009C38.717,120.078 38.689,120.141 38.643,120.187C38.597,120.233 38.535,120.261 38.465,120.261L37.24,120.261C37.171,120.261 37.107,120.233 37.062,120.187L37.061,120.187L37.06,120.185L37.057,120.187C37.012,120.233 36.949,120.261 36.879,120.261L35.654,120.261C35.585,120.261 35.522,120.233 35.476,120.187C35.43,120.141 35.402,120.078 35.402,120.009L35.402,115.314C35.402,115.247 35.428,115.185 35.471,115.14C35.473,115.138 35.474,115.137 35.476,115.135C35.521,115.09 35.585,115.061 35.654,115.061L36.879,115.061C36.949,115.061 37.012,115.09 37.057,115.135L37.06,115.137L37.061,115.135C37.107,115.09 37.17,115.061 37.24,115.061ZM36.26,118.609C36.363,118.609 36.456,118.651 36.523,118.718C36.591,118.786 36.633,118.879 36.633,118.981C36.633,119.084 36.591,119.177 36.523,119.244C36.456,119.312 36.363,119.353 36.26,119.353C36.158,119.353 36.065,119.312 35.998,119.244C35.93,119.177 35.889,119.084 35.889,118.981C35.889,118.879 35.93,118.786 35.998,118.718C36.065,118.651 36.158,118.609 36.26,118.609ZM35.896,118.616C35.989,118.523 36.118,118.465 36.26,118.465C36.403,118.465 36.532,118.523 36.625,118.616C36.719,118.71 36.777,118.839 36.777,118.981C36.777,119.124 36.719,119.253 36.625,119.346C36.532,119.44 36.403,119.497 36.26,119.497C36.118,119.497 35.989,119.44 35.896,119.346C35.802,119.253 35.744,119.124 35.744,118.981C35.744,118.839 35.802,118.71 35.896,118.616ZM35.832,116.759C35.792,116.759 35.759,116.727 35.759,116.687C35.759,116.647 35.792,116.615 35.832,116.615L36.69,116.615C36.729,116.615 36.762,116.647 36.762,116.687C36.762,116.727 36.729,116.759 36.69,116.759L35.832,116.759ZM36.69,115.934C36.729,115.934 36.762,115.966 36.762,116.006C36.762,116.046 36.729,116.078 36.69,116.078L35.832,116.078C35.792,116.078 35.759,116.046 35.759,116.006C35.759,115.966 35.792,115.934 35.832,115.934L36.69,115.934Z" style="fill:rgb(84,48,152);"/>
        </g>
    </g>
    <defs>
        <linearGradient id="_Linear1" x1="0" y1="0" x2="1" y2="0" gradientUnits="userSpaceOnUse" gradientTransform="matrix(58.2421,0,0,53.4282,3.04708,31.9449)"><stop offset="0" style="stop-color:rgb(163,121,242);stop-opacity:1"/><stop offset="1" style="stop-color:rgb(119,62,220);stop-opacity:1"/></linearGradient>
    </defs>
</svg>
