<?xml version="1.0" encoding="UTF-8" standalone="no"?>
<!DOCTYPE svg PUBLIC "-//W3C//DTD SVG 1.1//EN" "http://www.w3.org/Graphics/SVG/1.1/DTD/svg11.dtd">
<svg width="100%" height="100%" viewBox="0 0 64 64" version="1.1" xmlns="http://www.w3.org/2000/svg"
     xml:space="preserve"
     style="fill-rule:evenodd;clip-rule:evenodd;stroke-linejoin:round;stroke-miterlimit:2;">
    <path d="M33.473,1.116L55.286,16.062L38.353,28.714L33.603,32L33.732,28.585L33.215,23.382L30.436,23.091L27.398,24.222L24.167,25.902L22.422,27.874L20.87,30.039L19.545,32L18.835,35.435L18.673,38.182L19.287,40.8L21.29,44.225L25.33,47.909L31.535,49.848L36.22,49.59L40.744,46.617L44.428,41.899L45.592,37.213L45.204,33.432L44.267,30.976L51.796,25.579L54.349,23.511L55.868,24.254L56.902,27.26L58.906,37.859L56.547,47.425L52.507,54.049L44.59,60.125L34.895,63.227L28.529,62.871L19.158,59.834L14.698,57.378L9.237,50.139L6.07,43.288L5.327,34.983L6.748,27.647L9.689,21.863L14.246,16.628L20.58,12.556L26.073,10.682L33.247,9.648L33.473,1.116Z" style="fill:rgb(120,216,0);"/>
    <g transform="matrix(10.2234,0,0,10.2234,-3737.9,-4213.85)">
        <path d="M368.964,415.205L369.64,414.729C369.643,414.727 369.645,414.726 369.647,414.725L370.67,414.004L370.963,413.797L368.964,412.389L368.964,413.143C368.964,413.183 368.932,413.215 368.893,413.215L368.883,413.215C368.861,413.213 368.841,413.213 368.822,413.212L368.754,413.212C368.052,413.212 367.416,413.496 366.957,413.956C366.497,414.416 366.213,415.051 366.213,415.753C366.213,416.454 366.497,417.09 366.957,417.55C367.416,418.01 368.052,418.294 368.754,418.294C369.455,418.294 370.091,418.01 370.551,417.55C371.01,417.09 371.295,416.454 371.295,415.753C371.295,415.518 371.263,415.291 371.204,415.076C371.15,414.879 371.073,414.692 370.975,414.517L370.014,415.194C370.048,415.271 370.076,415.353 370.096,415.437C370.119,415.539 370.132,415.645 370.132,415.753C370.132,416.134 369.978,416.478 369.728,416.727C369.479,416.977 369.134,417.131 368.754,417.131C368.373,417.131 368.028,416.977 367.779,416.727C367.53,416.478 367.375,416.134 367.375,415.753C367.375,415.372 367.53,415.027 367.779,414.778C368.028,414.529 368.373,414.374 368.754,414.374C368.776,414.374 368.8,414.375 368.827,414.377C368.851,414.378 368.876,414.38 368.9,414.382C368.937,414.386 368.964,414.417 368.964,414.454L368.964,415.205ZM369.718,414.85L368.937,415.4C368.925,415.41 368.909,415.416 368.893,415.416C368.852,415.416 368.82,415.384 368.82,415.344L368.82,414.52L368.819,414.52C368.8,414.519 368.778,414.519 368.754,414.519C368.413,414.519 368.104,414.657 367.881,414.88C367.658,415.103 367.52,415.412 367.52,415.753C367.52,416.094 367.658,416.402 367.881,416.626C368.104,416.849 368.413,416.987 368.754,416.987C369.095,416.987 369.403,416.849 369.627,416.626C369.85,416.402 369.988,416.094 369.988,415.753C369.988,415.655 369.976,415.56 369.955,415.469C369.933,415.376 369.9,415.287 369.858,415.202C369.843,415.171 369.852,415.132 369.882,415.111L370.957,414.354L370.961,414.352C370.995,414.331 371.039,414.342 371.06,414.376C371.182,414.581 371.278,414.803 371.343,415.038C371.406,415.266 371.439,415.506 371.439,415.753C371.439,416.494 371.139,417.166 370.653,417.652C370.167,418.138 369.495,418.438 368.754,418.438C368.012,418.438 367.341,418.138 366.855,417.652C366.369,417.166 366.068,416.494 366.068,415.753C366.068,415.011 366.369,414.34 366.855,413.854C367.341,413.368 368.012,413.067 368.754,413.067C368.77,413.067 368.792,413.068 368.82,413.068L368.82,412.25C368.82,412.235 368.825,412.221 368.833,412.208C368.856,412.176 368.901,412.168 368.934,412.191L371.13,413.738C371.136,413.743 371.143,413.748 371.147,413.756C371.17,413.788 371.162,413.833 371.13,413.856L370.753,414.121L369.724,414.847L369.723,414.847L369.718,414.85Z" style="fill:rgb(100,150,37);"/>
    </g>
</svg>
