<?xml version="1.0" encoding="UTF-8" standalone="no"?>
<!DOCTYPE svg PUBLIC "-//W3C//DTD SVG 1.1//EN" "http://www.w3.org/Graphics/SVG/1.1/DTD/svg11.dtd">
<svg width="100%" height="100%" viewBox="0 0 64 64" version="1.1" xmlns="http://www.w3.org/2000/svg" xmlns:xlink="http://www.w3.org/1999/xlink" xml:space="preserve" xmlns:serif="http://www.serif.com/" style="fill-rule:evenodd;clip-rule:evenodd;stroke-linejoin:round;stroke-miterlimit:2;">
    <path d="M3.117,3.998L6.071,0.86L53.825,0.737L60.779,8.183L60.963,59.629L58.44,62.952L5.702,63.013L3.24,60.121L3.117,3.998Z" style="fill:url(#_Linear1);"/>
    <rect x="10.194" y="29.29" width="43.692" height="27.692" style="fill:url(#_Linear2);"/>
    <g transform="matrix(0.719718,0,0,0.786667,11.011,-22.3052)">
        <rect x="10.194" y="29.29" width="43.692" height="27.692" style="fill:url(#_Linear3);"/>
    </g>
    <g transform="matrix(0.206593,0,0,0.659463,33.7901,-18.5793)">
        <rect x="10.194" y="29.29" width="43.692" height="27.692" style="fill:url(#_Linear4);"/>
    </g>
    <g transform="matrix(10.4402,0,0,10.4402,-1134.14,-2189.09)">
        <path d="M108.868,215.375L108.868,212.744L108.869,210.113C108.869,210.112 108.869,210.111 108.869,210.11C108.869,209.874 109.063,209.68 109.299,209.68C109.3,209.68 109.3,209.68 109.301,209.68L113.407,209.68L113.422,209.682L113.783,209.682C113.803,209.682 113.821,209.69 113.834,209.703L114.507,210.377C114.521,210.391 114.529,210.41 114.528,210.43L114.526,215.377C114.526,215.614 114.331,215.809 114.094,215.81L114.094,215.809L111.733,215.809L109.3,215.808C109.185,215.808 109.075,215.762 108.994,215.681L108.99,215.677C108.911,215.596 108.867,215.488 108.867,215.375L108.868,215.375ZM113.729,212.519L109.665,212.519L109.665,215.047L113.729,215.047L113.729,212.519ZM109.593,212.375C109.554,212.375 109.521,212.408 109.521,212.447L109.521,215.119C109.521,215.159 109.553,215.191 109.593,215.191L113.801,215.191C113.841,215.191 113.873,215.159 113.873,215.119L113.873,212.447C113.873,212.408 113.84,212.375 113.801,212.375L109.593,212.375ZM112.999,209.825L112.999,211.491C112.998,211.53 112.966,211.562 112.927,211.563L112.068,211.563C112.029,211.563 111.996,211.53 111.996,211.491L111.996,209.825L111.309,209.824L110.495,209.824L110.495,211.739L113.334,211.739L113.334,209.825L112.999,209.825ZM112.855,209.825L112.14,209.825L112.14,211.419L112.855,211.419L112.855,209.825ZM113.479,209.825L113.479,211.811C113.479,211.851 113.446,211.884 113.407,211.884L110.423,211.884C110.383,211.884 110.35,211.851 110.35,211.811L110.35,209.824L109.3,209.824C109.143,209.824 109.013,209.954 109.013,210.111C109.013,210.112 109.013,210.112 109.013,210.113L109.012,210.113L109.012,212.744L109.011,215.375L109.012,215.375C109.012,215.453 109.042,215.524 109.093,215.576L109.096,215.579C109.15,215.633 109.223,215.664 109.3,215.664L111.733,215.665L114.094,215.666C114.252,215.665 114.382,215.535 114.382,215.377L114.384,210.457L113.753,209.825L113.479,209.825Z" style="fill:rgb(230,230,230);"/>
    </g>
    <defs>
        <linearGradient id="_Linear1" x1="0" y1="0" x2="1" y2="0" gradientUnits="userSpaceOnUse" gradientTransform="matrix(57.8461,0,0,62.2768,3.11709,31.8751)"><stop offset="0" style="stop-color:rgb(22,129,218);stop-opacity:1"/><stop offset="1" style="stop-color:rgb(0,91,161);stop-opacity:1"/></linearGradient>
        <linearGradient id="_Linear2" x1="0" y1="0" x2="1" y2="0" gradientUnits="userSpaceOnUse" gradientTransform="matrix(43.6922,0,0,27.6923,10.194,43.1366)"><stop offset="0" style="stop-color:rgb(204,204,203);stop-opacity:1"/><stop offset="1" style="stop-color:rgb(128,128,128);stop-opacity:1"/></linearGradient>
        <linearGradient id="_Linear3" x1="0" y1="0" x2="1" y2="0" gradientUnits="userSpaceOnUse" gradientTransform="matrix(43.6922,0,0,27.6923,10.194,43.1366)"><stop offset="0" style="stop-color:rgb(204,204,203);stop-opacity:1"/><stop offset="1" style="stop-color:rgb(128,128,128);stop-opacity:1"/></linearGradient>
        <linearGradient id="_Linear4" x1="0" y1="0" x2="1" y2="0" gradientUnits="userSpaceOnUse" gradientTransform="matrix(43.6922,0,0,27.6923,10.194,43.1366)"><stop offset="0" style="stop-color:rgb(125,126,126);stop-opacity:1"/><stop offset="1" style="stop-color:rgb(128,128,128);stop-opacity:1"/></linearGradient>
    </defs>
</svg>
