<?xml version="1.0" encoding="UTF-8" standalone="no"?>
<!DOCTYPE svg PUBLIC "-//W3C//DTD SVG 1.1//EN" "http://www.w3.org/Graphics/SVG/1.1/DTD/svg11.dtd">
<svg width="100%" height="100%" viewBox="0 0 64 64" version="1.1" xmlns="http://www.w3.org/2000/svg" xmlns:xlink="http://www.w3.org/1999/xlink" xml:space="preserve" xmlns:serif="http://www.serif.com/" style="fill-rule:evenodd;clip-rule:evenodd;stroke-linejoin:round;stroke-miterlimit:2;">
    <g transform="matrix(1,0,0,1,0.619355,-0.309677)">
        <circle cx="26.42" cy="26.959" r="18.735" style="fill:rgb(110,229,254);"/>
    </g>
    <g transform="matrix(0.782142,0,0,0.782142,11.6686,-12.2592)">
        <path d="M19.653,68.343C18.902,68.434 18.138,68.481 17.362,68.481C7.022,68.481 -1.373,60.086 -1.373,49.746C-1.373,39.406 7.022,31.01 17.362,31.01C18.138,31.01 18.902,31.058 19.653,31.149C10.391,32.281 3.208,40.181 3.208,49.746C3.208,59.311 10.391,67.211 19.653,68.343Z" style="fill:rgb(167,235,254);"/>
    </g>
    <path d="M40.514,48.042C36.399,50.61 31.643,51.968 26.793,51.961C12.453,51.961 0.812,40.32 0.812,25.981C0.812,11.642 12.453,0 26.793,0C41.132,0 52.773,11.642 52.773,25.981C52.773,31.461 51.073,36.548 48.171,40.74L61.199,54.109L63.256,57.394L62.142,60.537L59.885,62.251L57.657,63.165L52.773,60.527L40.514,48.042ZM26.793,7.262C37.451,7.262 46.104,15.323 46.104,25.981C46.104,36.639 37.451,45.292 26.793,45.292C16.134,45.292 7.481,36.639 7.481,25.981C7.481,15.323 16.134,7.262 26.793,7.262Z" style="fill:url(#_Linear1);"/>
    <g transform="matrix(11.3035,0,0,11.3035,-1461.1,-2233.69)">
        <path d="M132.762,198.822C132.133,198.196 131.101,198.196 130.472,198.822C130.17,199.127 130,199.538 129.998,199.967C129.997,200.396 130.167,200.809 130.472,201.112C130.775,201.416 131.188,201.587 131.617,201.587C132.271,201.587 132.864,201.191 133.113,200.586C133.278,200.19 133.278,199.744 133.113,199.348C133.031,199.151 132.912,198.973 132.762,198.822ZM133.611,201.223L134.797,202.408L134.801,202.413C134.879,202.494 134.923,202.602 134.922,202.714L134.923,202.714C134.923,202.829 134.878,202.939 134.797,203.02L134.67,203.147L134.665,203.151C134.497,203.316 134.224,203.314 134.058,203.147L132.872,201.961C132.509,202.191 132.078,202.324 131.617,202.324C130.966,202.324 130.377,202.06 129.951,201.633C129.508,201.192 129.26,200.592 129.261,199.967C129.261,199.317 129.524,198.728 129.951,198.301C130.392,197.859 130.992,197.61 131.617,197.611C132.268,197.611 132.857,197.875 133.283,198.301C133.71,198.728 133.973,199.317 133.973,199.967C133.973,200.429 133.84,200.859 133.611,201.223ZM133.354,201.337L132.845,201.807L132.844,201.808L132.84,201.81L132.84,201.811L132.839,201.811C132.489,202.044 132.069,202.179 131.617,202.179C131.03,202.18 130.467,201.947 130.053,201.531C129.653,201.131 129.405,200.578 129.405,199.967C129.405,199.356 129.653,198.803 130.053,198.403C130.453,198.003 131.006,197.755 131.617,197.755C132.228,197.755 132.781,198.003 133.181,198.403C133.581,198.803 133.829,199.356 133.829,199.967C133.829,200.419 133.693,200.84 133.461,201.19L133.459,201.193C133.426,201.242 133.391,201.29 133.354,201.337ZM133.529,201.344L134.698,202.513C134.806,202.626 134.805,202.807 134.695,202.918L134.568,203.045L134.564,203.048C134.452,203.157 134.271,203.155 134.16,203.045L132.994,201.879C133.2,201.731 133.381,201.55 133.529,201.344ZM132.874,201.788L133.354,201.337L133.332,201.364L133.324,201.374L133.323,201.375L133.315,201.385L133.31,201.39L133.307,201.394L133.306,201.396L133.302,201.401L133.297,201.406L133.29,201.415L133.288,201.416C133.167,201.556 133.028,201.681 132.876,201.786L132.874,201.788ZM132.291,198.338C132.507,198.427 132.701,198.558 132.863,198.72L132.864,198.721C133.195,199.051 133.381,199.5 133.38,199.967C133.381,200.679 132.95,201.325 132.291,201.596C131.634,201.869 130.873,201.717 130.37,201.214L130.371,201.214C129.866,200.712 129.715,199.95 129.988,199.293C130.168,198.861 130.511,198.518 130.943,198.338C131.374,198.159 131.86,198.159 132.291,198.338Z" style="fill:rgb(0,130,178);"/>
    </g>
    <defs>
        <linearGradient id="_Linear1" x1="0" y1="0" x2="1" y2="0" gradientUnits="userSpaceOnUse" gradientTransform="matrix(62.4442,0,0,62.4442,0.812,31.582)"><stop offset="0" style="stop-color:rgb(50,194,225);stop-opacity:1"/><stop offset="1" style="stop-color:rgb(25,138,179);stop-opacity:1"/></linearGradient>
    </defs>
</svg>
