<?xml version="1.0" encoding="UTF-8" standalone="no"?>
<!DOCTYPE svg PUBLIC "-//W3C//DTD SVG 1.1//EN" "http://www.w3.org/Graphics/SVG/1.1/DTD/svg11.dtd">
<svg width="100%" height="100%" viewBox="0 0 64 64" version="1.1" xmlns="http://www.w3.org/2000/svg" xmlns:xlink="http://www.w3.org/1999/xlink" xml:space="preserve" xmlns:serif="http://www.serif.com/" style="fill-rule:evenodd;clip-rule:evenodd;stroke-linejoin:round;stroke-miterlimit:2;">
    <g transform="matrix(1,0,0,1,0.0280429,0.00970255)">
        <path d="M0.893,26.891L8.12,24.55L9.748,20.631L6.57,13.945L13.574,6.812L20.349,9.841L24.583,8.082L26.961,1.046L36.472,0.786L39.762,8.212L43.508,9.776L50.413,6.616L57.318,13.359L54.257,20.883L56.211,24.531L62.726,26.811L63.051,36.909L56.016,39.71L54.289,43.684L57.481,50.296L50.576,57.429L43.345,54.303L39.501,55.964L36.798,63.195L27.287,63.195L24.616,56.127L20.121,54.205L13.867,57.56L6.603,50.752L9.958,43.358L8.036,39.449L0.935,36.648L0.893,26.891Z" style="fill:url(#_Linear1);"/>
    </g>
    <circle cx="32" cy="32" r="6.17" style="fill:rgb(238,142,42);"/>
    <g transform="matrix(4.36174,0,0,4.36174,-818.498,-702.203)">
        <path d="M196.954,162.809L197.511,163.039C197.547,163.054 197.582,163.06 197.616,163.059C197.65,163.057 197.684,163.048 197.718,163.03L198.896,162.423C199.008,162.365 199.13,162.347 199.247,162.365C199.364,162.383 199.475,162.438 199.564,162.527L199.565,162.527L200.791,163.754C200.88,163.843 200.935,163.954 200.954,164.071C200.972,164.189 200.953,164.311 200.895,164.423L200.288,165.6C200.27,165.634 200.261,165.668 200.259,165.702C200.258,165.736 200.264,165.772 200.279,165.808L200.514,166.373C200.528,166.408 200.548,166.437 200.573,166.46C200.599,166.484 200.63,166.502 200.666,166.513L201.927,166.916C202.047,166.954 202.147,167.027 202.217,167.123C202.287,167.219 202.327,167.336 202.327,167.462L202.327,169.193C202.327,169.319 202.287,169.436 202.217,169.532L202.217,169.533C202.148,169.628 202.047,169.701 201.927,169.74L200.666,170.142C200.63,170.154 200.599,170.172 200.573,170.195C200.548,170.218 200.528,170.248 200.513,170.284L200.51,170.292L200.279,170.848C200.264,170.883 200.258,170.919 200.259,170.953C200.261,170.987 200.27,171.021 200.288,171.056L200.895,172.233C200.953,172.345 200.972,172.467 200.954,172.584C200.935,172.702 200.88,172.813 200.791,172.902L199.565,174.129C199.476,174.218 199.364,174.272 199.247,174.291C199.13,174.309 199.007,174.29 198.896,174.233L197.718,173.625C197.684,173.608 197.65,173.598 197.616,173.597C197.582,173.595 197.546,173.602 197.511,173.617L196.946,173.851C196.911,173.865 196.881,173.885 196.858,173.911C196.835,173.936 196.817,173.967 196.805,174.003L196.403,175.264L196.402,175.265L196.403,175.265C196.364,175.385 196.291,175.484 196.195,175.554C196.099,175.624 195.982,175.664 195.856,175.664L194.125,175.664C193.999,175.664 193.882,175.624 193.786,175.554C193.69,175.484 193.617,175.385 193.579,175.265L193.576,175.257L193.176,174.003C193.165,173.967 193.147,173.936 193.123,173.91C193.1,173.886 193.07,173.865 193.035,173.851L193.027,173.847L192.471,173.617C192.435,173.602 192.399,173.595 192.365,173.597C192.332,173.598 192.297,173.608 192.263,173.625L191.086,174.233C190.974,174.29 190.851,174.309 190.734,174.291C190.616,174.272 190.505,174.218 190.416,174.129L189.19,172.902L189.18,172.891C189.097,172.804 189.045,172.697 189.027,172.584C189.009,172.467 189.028,172.345 189.086,172.233L189.693,171.056C189.711,171.021 189.72,170.987 189.722,170.953C189.723,170.919 189.716,170.883 189.702,170.848L189.468,170.283C189.453,170.248 189.433,170.218 189.408,170.195C189.382,170.172 189.351,170.154 189.315,170.142L188.054,169.74C187.934,169.701 187.834,169.628 187.764,169.533L187.757,169.521C187.691,169.427 187.654,169.314 187.654,169.193L187.654,167.462C187.654,167.337 187.694,167.22 187.764,167.123L187.765,167.123L187.764,167.123C187.834,167.027 187.934,166.954 188.054,166.916L189.315,166.513C189.351,166.502 189.383,166.483 189.408,166.46C189.433,166.437 189.454,166.407 189.468,166.373L189.702,165.808C189.716,165.772 189.723,165.736 189.722,165.702C189.72,165.668 189.711,165.634 189.693,165.6L189.086,164.423C189.028,164.311 189.009,164.188 189.027,164.071C189.046,163.954 189.1,163.843 189.19,163.754L190.417,162.527C190.505,162.438 190.616,162.383 190.734,162.365C190.851,162.347 190.974,162.365 191.086,162.423L192.263,163.03C192.297,163.048 192.332,163.057 192.365,163.059C192.399,163.06 192.435,163.054 192.47,163.039L193.035,162.805L193.042,162.802C193.074,162.788 193.102,162.769 193.123,162.745C193.147,162.72 193.165,162.688 193.176,162.652L193.178,162.645L193.579,161.391C193.617,161.271 193.691,161.171 193.786,161.101C193.882,161.031 193.999,160.992 194.125,160.992L195.856,160.992C195.982,160.992 196.099,161.031 196.195,161.101C196.291,161.171 196.364,161.271 196.403,161.391L196.405,161.399L196.805,162.653C196.817,162.688 196.835,162.72 196.858,162.745C196.881,162.77 196.911,162.79 196.947,162.805L196.954,162.809ZM194.991,171.935C195.987,171.935 196.889,171.531 197.542,170.879C198.194,170.226 198.598,169.324 198.598,168.328C198.598,167.332 198.194,166.43 197.542,165.777C196.889,165.124 195.987,164.72 194.991,164.72C193.995,164.72 193.093,165.124 192.44,165.777C191.787,166.43 191.384,167.332 191.384,168.328C191.384,169.324 191.787,170.226 192.44,170.879C193.093,171.531 193.995,171.935 194.991,171.935ZM197.773,171.11C198.485,170.398 198.926,169.414 198.926,168.328C198.926,167.241 198.485,166.257 197.773,165.545C197.061,164.833 196.077,164.392 194.991,164.392C193.904,164.392 192.92,164.833 192.208,165.545C191.496,166.257 191.055,167.241 191.055,168.328C191.055,169.414 191.496,170.398 192.208,171.11C192.92,171.822 193.904,172.263 194.991,172.263C196.077,172.263 197.061,171.822 197.773,171.11ZM197.386,163.341L196.829,163.111L196.821,163.107C196.741,163.074 196.672,163.027 196.617,162.967C196.562,162.907 196.52,162.835 196.494,162.752L196.094,161.498L196.091,161.491C196.074,161.438 196.043,161.395 196.003,161.365C195.963,161.336 195.912,161.32 195.856,161.32L194.125,161.32C194.069,161.32 194.018,161.336 193.978,161.365C193.938,161.395 193.907,161.438 193.89,161.491L193.89,161.49L193.49,162.744L193.487,162.752C193.461,162.835 193.419,162.907 193.364,162.967C193.311,163.024 193.246,163.071 193.169,163.103L193.161,163.107L192.596,163.342L192.596,163.341L192.595,163.342C192.515,163.374 192.434,163.389 192.352,163.386C192.27,163.382 192.189,163.361 192.113,163.321L190.936,162.714C190.887,162.688 190.834,162.68 190.784,162.688C190.735,162.696 190.688,162.72 190.648,162.759L189.422,163.986L189.421,163.986C189.382,164.025 189.358,164.072 189.351,164.122C189.343,164.171 189.351,164.224 189.377,164.273L189.984,165.45C190.023,165.527 190.045,165.607 190.049,165.689C190.052,165.771 190.037,165.852 190.004,165.932L189.77,166.497C189.737,166.578 189.69,166.646 189.63,166.701C189.57,166.756 189.497,166.798 189.415,166.824L189.414,166.824L188.153,167.227C188.101,167.244 188.058,167.275 188.028,167.316C187.999,167.356 187.983,167.406 187.983,167.462L187.983,169.193C187.983,169.246 187.997,169.294 188.023,169.333L188.028,169.339C188.058,169.38 188.101,169.412 188.153,169.428L189.414,169.831C189.497,169.858 189.57,169.899 189.629,169.954C189.69,170.009 189.737,170.078 189.77,170.158L190.004,170.724C190.037,170.803 190.052,170.885 190.049,170.966C190.045,171.048 190.023,171.129 189.984,171.205L189.377,172.383C189.351,172.432 189.343,172.485 189.351,172.534C189.358,172.581 189.379,172.626 189.414,172.663L189.422,172.67L190.648,173.897C190.688,173.936 190.735,173.96 190.784,173.968C190.834,173.975 190.887,173.967 190.936,173.942L192.113,173.334C192.189,173.295 192.27,173.273 192.352,173.27C192.434,173.266 192.515,173.281 192.595,173.314L193.152,173.545L193.161,173.548C193.24,173.581 193.309,173.628 193.364,173.689C193.419,173.749 193.461,173.821 193.487,173.904L193.888,175.158L193.89,175.165C193.907,175.218 193.938,175.261 193.978,175.29C194.018,175.32 194.069,175.336 194.125,175.336L195.856,175.336C195.912,175.336 195.963,175.32 196.003,175.29C196.043,175.261 196.074,175.218 196.091,175.165L196.494,173.904C196.52,173.821 196.562,173.749 196.617,173.689C196.672,173.629 196.741,173.581 196.821,173.548L197.386,173.314C197.466,173.281 197.547,173.266 197.629,173.27C197.711,173.273 197.792,173.295 197.868,173.334L199.046,173.942C199.095,173.967 199.147,173.975 199.197,173.968C199.246,173.96 199.293,173.936 199.332,173.897L200.56,172.67C200.599,172.63 200.623,172.583 200.63,172.534C200.638,172.485 200.63,172.432 200.605,172.383L199.997,171.205C199.957,171.129 199.936,171.048 199.933,170.966C199.929,170.885 199.944,170.803 199.977,170.724L200.208,170.166L200.211,170.158C200.244,170.078 200.291,170.01 200.352,169.954C200.412,169.899 200.484,169.858 200.567,169.831L201.828,169.428C201.88,169.412 201.923,169.38 201.953,169.339L201.953,169.34C201.982,169.3 201.999,169.249 201.999,169.193L201.999,167.462C201.999,167.407 201.982,167.356 201.953,167.316C201.924,167.275 201.88,167.244 201.828,167.227L200.567,166.824C200.484,166.798 200.412,166.756 200.352,166.701C200.292,166.646 200.244,166.578 200.211,166.497L199.977,165.932C199.944,165.852 199.929,165.771 199.933,165.689C199.936,165.607 199.957,165.527 199.997,165.45L200.605,164.273C200.63,164.224 200.638,164.171 200.63,164.122C200.623,164.073 200.599,164.025 200.56,163.986L199.332,162.759L199.333,162.758C199.294,162.719 199.246,162.696 199.197,162.688C199.147,162.68 199.095,162.688 199.046,162.714L197.868,163.321C197.792,163.361 197.711,163.382 197.629,163.386C197.547,163.389 197.465,163.374 197.385,163.342L197.386,163.341ZM196.405,161.399L196.297,161.597C196.38,161.57 196.427,161.482 196.405,161.399ZM194.991,166.689C194.538,166.689 194.128,166.872 193.832,167.169L193.832,167.17C193.535,167.466 193.352,167.876 193.352,168.328C193.352,168.775 193.531,169.181 193.823,169.477L193.832,169.487C194.128,169.783 194.538,169.967 194.991,169.967C195.438,169.967 195.844,169.787 196.139,169.496L196.15,169.487C196.446,169.19 196.63,168.78 196.63,168.328C196.63,167.875 196.446,167.465 196.15,167.169C195.853,166.872 195.443,166.689 194.991,166.689ZM195.918,167.401C195.681,167.164 195.353,167.017 194.991,167.017C194.629,167.017 194.301,167.164 194.064,167.401L194.063,167.4C193.826,167.638 193.68,167.966 193.68,168.328C193.68,168.686 193.823,169.011 194.055,169.247L194.064,169.255C194.301,169.492 194.629,169.639 194.991,169.639C195.349,169.639 195.673,169.496 195.91,169.263L195.918,169.255C196.155,169.018 196.301,168.69 196.301,168.328C196.301,167.966 196.155,167.638 195.918,167.401Z" style="fill:rgb(57,56,57);"/>
    </g>
    <defs>
        <linearGradient id="_Linear1" x1="0" y1="0" x2="1" y2="0" gradientUnits="userSpaceOnUse" gradientTransform="matrix(62.1586,0,0,62.409,0.892644,31.9903)"><stop offset="0" style="stop-color:rgb(118,118,118);stop-opacity:1"/><stop offset="1" style="stop-color:rgb(153,153,153);stop-opacity:1"/></linearGradient>
    </defs>
</svg>
