<?xml version="1.0" encoding="UTF-8" standalone="no"?>
<!DOCTYPE svg PUBLIC "-//W3C//DTD SVG 1.1//EN" "http://www.w3.org/Graphics/SVG/1.1/DTD/svg11.dtd">
<svg width="100%" height="100%" viewBox="0 0 64 64" version="1.1" xmlns="http://www.w3.org/2000/svg" xmlns:xlink="http://www.w3.org/1999/xlink" xml:space="preserve" xmlns:serif="http://www.serif.com/" style="fill-rule:evenodd;clip-rule:evenodd;stroke-linejoin:round;stroke-miterlimit:2;">
    <g transform="matrix(1,0,0,1,-0.552518,-0.122782)">
        <path d="M49.523,6.848C49.523,5.513 48.44,4.429 47.105,4.429L3.566,4.429C2.231,4.429 1.147,5.513 1.147,6.848L1.147,50.447C1.147,51.782 2.231,52.866 3.566,52.866L47.105,52.866C48.44,52.866 49.523,51.782 49.523,50.447L49.523,6.848Z" style="fill:url(#_Linear1);"/>
    </g>
    <rect x="5.69" y="9.217" width="38.553" height="38.615" style="fill:url(#_Linear2);"/>
    <path d="M34.697,51.171L30.498,46.193L29.291,42.999L29.593,39.378L31.302,35.782L34.194,33.595L38.142,32.639L41.436,33.419L43.926,35.028L46.415,39.202L48.904,35.028L51.394,33.419L54.688,32.639L58.636,33.595L61.528,35.782L63.237,39.378L63.539,42.999L62.332,46.193L58.133,51.171L46.415,59.847L34.697,51.171Z" style="fill:url(#_Linear3);"/>
    <g transform="matrix(8.38465,0,0,8.38465,-2478.13,-2447.21)">
        <path d="M301.084,298.905C301.193,298.824 301.317,298.738 301.45,298.645C302.131,298.169 303.045,297.532 303.045,296.864C303.045,296.458 302.864,296.166 302.614,296C302.486,295.915 302.34,295.863 302.19,295.846C302.04,295.828 301.887,295.845 301.745,295.897C301.642,295.935 301.545,295.993 301.46,296.07C301.457,296.072 301.455,296.074 301.452,296.077C301.315,296.203 301.208,296.381 301.154,296.613C301.145,296.652 301.106,296.676 301.068,296.667C301.04,296.661 301.019,296.639 301.014,296.613C300.966,296.406 300.875,296.242 300.759,296.119C300.756,296.117 300.753,296.114 300.751,296.111C300.655,296.013 300.543,295.942 300.423,295.897C300.281,295.845 300.128,295.828 299.977,295.846C299.827,295.863 299.681,295.915 299.553,296C299.303,296.166 299.123,296.458 299.123,296.864C299.123,297.081 299.22,297.295 299.374,297.502C299.378,297.506 299.383,297.512 299.386,297.517C299.539,297.718 299.745,297.912 299.969,298.093C299.973,298.096 299.976,298.099 299.98,298.102C300.222,298.298 300.484,298.481 300.718,298.645C300.851,298.738 300.975,298.824 301.084,298.905ZM301.335,295.988C301.233,296.087 301.147,296.211 301.084,296.362C301.031,296.235 300.961,296.127 300.879,296.037L300.879,292.974C300.879,292.934 300.846,292.902 300.807,292.902L296.229,292.902C296.189,292.902 296.156,292.934 296.156,292.974L296.156,297.553C296.156,297.592 296.189,297.625 296.229,297.625L299.288,297.625C299.412,297.784 299.565,297.936 299.732,298.082L295.988,298.082C295.909,298.082 295.837,298.049 295.785,297.997C295.732,297.944 295.7,297.872 295.7,297.793L295.7,292.734C295.7,292.655 295.732,292.582 295.784,292.53L295.785,292.53C295.837,292.478 295.909,292.445 295.988,292.445L301.047,292.445C301.127,292.445 301.199,292.478 301.251,292.53C301.303,292.583 301.335,292.655 301.335,292.734L301.335,295.988ZM299.904,298.226L295.988,298.226C295.869,298.226 295.761,298.177 295.683,298.099C295.604,298.02 295.556,297.912 295.556,297.793L295.556,292.734C295.556,292.616 295.604,292.508 295.682,292.429L295.683,292.429L295.683,292.428C295.761,292.35 295.869,292.301 295.988,292.301L301.047,292.301C301.167,292.301 301.275,292.35 301.353,292.428C301.431,292.507 301.48,292.615 301.48,292.734L301.48,295.872C301.547,295.827 301.62,295.791 301.695,295.763C301.858,295.702 302.035,295.682 302.207,295.703C302.379,295.723 302.547,295.783 302.694,295.88C302.982,296.071 303.189,296.403 303.189,296.864C303.189,297.606 302.24,298.268 301.532,298.762C301.382,298.868 301.242,298.965 301.127,299.052C301.102,299.071 301.067,299.072 301.04,299.052C300.926,298.965 300.786,298.868 300.636,298.762C300.403,298.601 300.146,298.421 299.904,298.226ZM300.735,295.905C300.654,295.844 300.565,295.797 300.473,295.763C300.309,295.702 300.133,295.683 299.961,295.703C299.789,295.723 299.621,295.783 299.474,295.88C299.186,296.071 298.979,296.403 298.979,296.864C298.979,297.076 299.057,297.283 299.185,297.481L296.301,297.481L296.301,295.336L297.254,295.336C297.288,295.336 297.316,295.313 297.324,295.282L297.726,294.096L298.314,296.826C298.322,296.865 298.36,296.89 298.399,296.882C298.427,296.875 298.448,296.854 298.454,296.827L299.075,294.783L299.221,295.284C299.23,295.315 299.259,295.335 299.29,295.335L299.29,295.336L300.735,295.336L300.735,295.905ZM300.735,295.191L299.344,295.191L299.146,294.512C299.139,294.489 299.122,294.47 299.098,294.463C299.06,294.451 299.02,294.473 299.008,294.511L298.396,296.525L297.811,293.811C297.807,293.787 297.789,293.766 297.764,293.758C297.726,293.745 297.686,293.765 297.673,293.803L297.203,295.191L296.301,295.191L296.301,293.047L300.735,293.047L300.735,295.191Z" style="fill:white;"/>
    </g>
    <defs>
        <linearGradient id="_Linear1" x1="0" y1="0" x2="1" y2="0" gradientUnits="userSpaceOnUse" gradientTransform="matrix(48.376,0,0,48.4374,1.14746,28.6476)"><stop offset="0" style="stop-color:rgb(179,179,179);stop-opacity:1"/><stop offset="1" style="stop-color:rgb(147,147,147);stop-opacity:1"/></linearGradient>
        <linearGradient id="_Linear2" x1="0" y1="0" x2="1" y2="0" gradientUnits="userSpaceOnUse" gradientTransform="matrix(38.5535,0,0,38.6149,5.69038,28.5248)"><stop offset="0" style="stop-color:rgb(250,212,27);stop-opacity:1"/><stop offset="1" style="stop-color:rgb(247,170,40);stop-opacity:1"/></linearGradient>
        <linearGradient id="_Linear3" x1="0" y1="0" x2="1" y2="0" gradientUnits="userSpaceOnUse" gradientTransform="matrix(34.2484,0,0,27.2077,29.2908,46.2429)"><stop offset="0" style="stop-color:rgb(219,41,45);stop-opacity:1"/><stop offset="1" style="stop-color:rgb(210,0,0);stop-opacity:1"/></linearGradient>
    </defs>
</svg>
