<?xml version="1.0" encoding="UTF-8" standalone="no"?>
<!DOCTYPE svg PUBLIC "-//W3C//DTD SVG 1.1//EN" "http://www.w3.org/Graphics/SVG/1.1/DTD/svg11.dtd">
<svg width="100%" height="100%" viewBox="0 0 64 64" version="1.1" xmlns="http://www.w3.org/2000/svg" xmlns:xlink="http://www.w3.org/1999/xlink" xml:space="preserve" xmlns:serif="http://www.serif.com/" style="fill-rule:evenodd;clip-rule:evenodd;stroke-linejoin:round;stroke-miterlimit:2;">
    <path d="M40.713,48.736L36.034,59.195C35.681,59.991 36.036,60.921 36.829,61.275C37.625,61.629 38.555,61.274 38.909,60.481L43.587,50.019C43.941,49.222 43.588,48.299 42.794,47.941C42.001,47.587 41.068,47.943 40.713,48.736ZM24.523,46.42L17.759,53.194C17.142,53.805 17.142,54.803 17.759,55.421C18.37,56.035 19.369,56.035 19.983,55.421L26.75,48.648C27.368,48.037 27.368,47.038 26.75,46.42C26.139,45.81 25.14,45.81 24.523,46.42ZM56.726,17.257L52.446,54.122C52.349,54.987 52.969,55.77 53.831,55.871C54.696,55.973 55.477,55.355 55.577,54.487L59.857,17.622C59.958,16.755 59.338,15.972 58.472,15.874C57.606,15.776 56.826,16.394 56.726,17.257ZM46.14,28.378L35.75,38.769C35.139,39.379 35.139,40.375 35.75,40.989C36.368,41.61 37.363,41.61 37.977,40.989L48.367,30.599C48.984,29.988 48.984,28.986 48.367,28.378C47.752,27.761 46.757,27.761 46.14,28.378ZM12.355,34.649L8.239,38.764C7.622,39.379 7.622,40.377 8.239,40.992C8.85,41.609 9.846,41.609 10.46,40.992L14.583,36.872C15.2,36.252 15.2,35.26 14.583,34.649C13.965,34.028 12.973,34.028 12.355,34.649ZM38.398,19.392L21.488,36.295C20.873,36.916 20.873,37.908 21.488,38.526C22.102,39.14 23.097,39.14 23.712,38.526L40.622,21.612C41.236,20.998 41.236,20.003 40.622,19.392C40.008,18.771 39.012,18.771 38.398,19.392ZM49.208,2.721L5.08,21.946C4.279,22.295 3.915,23.221 4.265,24.019C4.61,24.811 5.543,25.177 6.338,24.834L50.466,5.609C51.263,5.262 51.628,4.332 51.281,3.536C50.932,2.735 50.006,2.371 49.208,2.721Z" style="fill:url(#_Linear1);fill-rule:nonzero;stroke:rgb(171,31,34);stroke-width:0.42px;"/>
    <defs>
        <linearGradient id="_Linear1" x1="0" y1="0" x2="1" y2="0" gradientUnits="userSpaceOnUse" gradientTransform="matrix(55.7356,0,0,58.8242,4.13218,32)"><stop offset="0" style="stop-color:rgb(201,90,21);stop-opacity:1"/><stop offset="1" style="stop-color:rgb(242,161,42);stop-opacity:1"/></linearGradient>
    </defs>
</svg>
