<?xml version="1.0" encoding="UTF-8" standalone="no"?>
<!DOCTYPE svg PUBLIC "-//W3C//DTD SVG 1.1//EN" "http://www.w3.org/Graphics/SVG/1.1/DTD/svg11.dtd">
<svg width="100%" height="100%" viewBox="0 0 64 64" version="1.1" xmlns="http://www.w3.org/2000/svg" xmlns:xlink="http://www.w3.org/1999/xlink" xml:space="preserve" xmlns:serif="http://www.serif.com/" style="fill-rule:evenodd;clip-rule:evenodd;stroke-linejoin:round;stroke-miterlimit:2;">
    <g transform="matrix(9.63529,0,0,9.63529,-4345.79,-2817)">
        <path d="M454.295,298.979C454.086,298.736 453.852,298.477 453.612,298.211C453.103,297.647 452.562,297.048 452.191,296.522C452.033,296.295 451.912,296.052 451.831,295.796C451.751,295.543 451.71,295.278 451.71,295.003C451.71,294.274 452.006,293.614 452.484,293.136C452.961,292.659 453.621,292.363 454.35,292.363C455.079,292.363 455.739,292.659 456.217,293.136C456.695,293.614 456.99,294.274 456.99,295.003C456.99,295.277 456.948,295.545 456.867,295.8C456.786,296.056 456.666,296.299 456.509,296.522C456.138,297.048 455.597,297.647 455.088,298.211C454.847,298.478 454.614,298.736 454.405,298.98C454.379,299.01 454.333,299.014 454.304,298.988C454.3,298.986 454.297,298.982 454.295,298.979Z" style="fill:url(#_Linear1);"/>
    </g>
    <g transform="matrix(1,0,0,1,0,-0.554713)">
        <circle cx="32" cy="26.101" r="11.899" style="fill:rgb(247,141,30);"/>
    </g>
    <g transform="matrix(9.63529,0,0,9.63529,-4345.79,-2817)">
        <path d="M454.295,298.979C454.086,298.736 453.852,298.477 453.612,298.211C453.103,297.647 452.562,297.048 452.191,296.522C452.033,296.295 451.912,296.052 451.831,295.796C451.751,295.543 451.71,295.278 451.71,295.003C451.71,294.274 452.006,293.614 452.484,293.136C452.961,292.659 453.621,292.363 454.35,292.363C455.079,292.363 455.739,292.659 456.217,293.136C456.695,293.614 456.99,294.274 456.99,295.003C456.99,295.277 456.948,295.545 456.867,295.8C456.786,296.056 456.666,296.299 456.509,296.522C456.138,297.048 455.597,297.647 455.088,298.211C454.847,298.478 454.614,298.736 454.405,298.98C454.379,299.01 454.333,299.014 454.304,298.988C454.3,298.986 454.297,298.982 454.295,298.979ZM454.35,293.833C454.027,293.833 453.735,293.964 453.523,294.176C453.311,294.387 453.18,294.68 453.18,295.003C453.18,295.326 453.311,295.619 453.523,295.83C453.735,296.042 454.027,296.173 454.35,296.173C454.673,296.173 454.966,296.042 455.177,295.83C455.389,295.619 455.52,295.326 455.52,295.003C455.52,294.68 455.389,294.387 455.177,294.176C454.966,293.964 454.673,293.833 454.35,293.833ZM453.421,294.074C453.183,294.312 453.036,294.64 453.036,295.003C453.036,295.366 453.184,295.695 453.421,295.932C453.659,296.17 453.987,296.317 454.35,296.317C454.713,296.317 455.042,296.17 455.279,295.932C455.517,295.695 455.664,295.366 455.664,295.003C455.664,294.64 455.517,294.312 455.279,294.074C455.042,293.836 454.713,293.689 454.35,293.689C453.987,293.689 453.659,293.836 453.421,294.074ZM453.719,298.114C453.942,298.362 454.159,298.602 454.35,298.823C454.542,298.602 454.758,298.362 454.981,298.115C455.487,297.555 456.024,296.96 456.391,296.439C456.54,296.229 456.653,295.999 456.73,295.757C456.807,295.515 456.846,295.261 456.846,295.003C456.846,294.314 456.566,293.69 456.115,293.238C455.663,292.787 455.039,292.508 454.35,292.508C453.661,292.508 453.037,292.787 452.585,293.238C452.134,293.69 451.855,294.314 451.855,295.003C451.855,295.263 451.893,295.514 451.969,295.753C452.045,295.994 452.16,296.225 452.309,296.44C452.676,296.96 453.213,297.555 453.719,298.114Z" style="fill:rgb(180,236,54);"/>
    </g>
    <defs>
        <linearGradient id="_Linear1" x1="0" y1="0" x2="1" y2="0" gradientUnits="userSpaceOnUse" gradientTransform="matrix(5.28003,0,0,6.64225,451.71,295.684)"><stop offset="0" style="stop-color:rgb(133,213,51);stop-opacity:1"/><stop offset="1" style="stop-color:rgb(96,153,36);stop-opacity:1"/></linearGradient>
    </defs>
</svg>
