<?xml version="1.0" encoding="UTF-8" standalone="no"?>
<!DOCTYPE svg PUBLIC "-//W3C//DTD SVG 1.1//EN" "http://www.w3.org/Graphics/SVG/1.1/DTD/svg11.dtd">
<svg width="100%" height="100%" viewBox="0 0 64 64" version="1.1" xmlns="http://www.w3.org/2000/svg" xmlns:xlink="http://www.w3.org/1999/xlink" xml:space="preserve" xmlns:serif="http://www.serif.com/" style="fill-rule:evenodd;clip-rule:evenodd;stroke-linejoin:round;stroke-miterlimit:2;">
    <g transform="matrix(0.938702,0,0,1,1.84615,0)">
        <path d="M64,5.407C64,2.423 61.419,0 58.24,0L5.76,0C2.581,0 0,2.423 0,5.407L0,58.588C0,61.572 2.581,63.994 5.76,63.994L58.24,63.994C61.419,63.994 64,61.572 64,58.588L64,5.407Z" style="fill:url(#_Linear1);"/>
    </g>
    <path d="M8.272,29.785L13.564,27.015L32,41.6L47.964,33.6L55.533,38.031L55.718,50.892L7.841,50.646L8.272,29.785Z" style="fill:url(#_Linear2);"/>
    <path d="M8.524,29.517L8.524,6.871L55.718,6.871L55.718,37.886L48.155,33.825L32,41.332L14.186,27.015L8.524,29.517Z" style="fill:url(#_Linear3);"/>
    <g transform="matrix(1,0,0,1,0.196923,-0.344615)">
        <circle cx="40.746" cy="20.446" r="7.532" style="fill:rgb(255,201,18);"/>
    </g>
    <g transform="matrix(12.0268,0,0,12.0268,-5579.44,-1676.21)">
        <path d="M464.601,139.876L468.557,139.876C468.596,139.876 468.629,139.908 468.629,139.948L468.629,143.591C468.629,143.631 468.596,143.663 468.557,143.663L464.601,143.663C464.561,143.663 464.529,143.631 464.529,143.591L464.529,139.948C464.529,139.908 464.561,139.876 464.601,139.876ZM468.706,139.519L464.453,139.517C464.374,139.517 464.302,139.549 464.249,139.601C464.197,139.654 464.164,139.726 464.164,139.805L464.162,144.26C464.162,144.339 464.195,144.411 464.247,144.464C464.299,144.516 464.372,144.548 464.451,144.548L468.703,144.55C468.783,144.55 468.855,144.518 468.908,144.465C468.96,144.413 468.992,144.341 468.992,144.262L468.994,139.807C468.994,139.728 468.962,139.656 468.909,139.603C468.857,139.551 468.785,139.519 468.706,139.519ZM464.453,139.373C464.334,139.373 464.226,139.422 464.148,139.5C464.069,139.578 464.021,139.686 464.021,139.805L464.019,144.26C464.019,144.379 464.067,144.487 464.145,144.565C464.224,144.643 464.332,144.692 464.451,144.692L468.703,144.694C468.822,144.694 468.931,144.646 469.009,144.567C469.087,144.489 469.136,144.381 469.136,144.262L469.138,139.807C469.138,139.688 469.09,139.58 469.011,139.502C468.933,139.424 468.825,139.375 468.706,139.375L464.453,139.373ZM467.316,140.311C467.119,140.311 466.94,140.391 466.811,140.52C466.681,140.649 466.601,140.827 466.601,141.025C466.601,141.222 466.681,141.401 466.81,141.53C466.939,141.659 467.118,141.739 467.315,141.739C467.512,141.739 467.691,141.659 467.82,141.53C467.95,141.401 468.03,141.222 468.03,141.025C468.03,140.828 467.95,140.649 467.821,140.52C467.692,140.391 467.513,140.311 467.316,140.311ZM467.719,140.622C467.616,140.518 467.473,140.455 467.316,140.455C467.158,140.455 467.015,140.518 466.912,140.622C466.809,140.725 466.745,140.867 466.745,141.025C466.745,141.182 466.809,141.325 466.912,141.429C467.015,141.531 467.158,141.595 467.315,141.596L467.315,141.595L467.315,141.596C467.473,141.596 467.615,141.531 467.719,141.429C467.822,141.325 467.886,141.183 467.886,141.025C467.886,140.868 467.822,140.725 467.719,140.622ZM464.673,141.723L464.939,141.585C464.984,141.561 465.033,141.552 465.081,141.557C465.129,141.562 465.175,141.581 465.215,141.613L466.538,142.696C466.556,142.711 466.576,142.719 466.596,142.721L466.597,142.721C466.617,142.723 466.638,142.719 466.657,142.708L467.765,142.127C467.806,142.106 467.85,142.096 467.893,142.098C467.936,142.1 467.978,142.113 468.017,142.137L468.485,142.432L468.485,140.02L464.673,140.02L464.673,141.723ZM468.485,142.602L467.94,142.259C467.923,142.248 467.905,142.242 467.887,142.241C467.869,142.241 467.85,142.245 467.832,142.255L466.724,142.836C466.679,142.859 466.631,142.869 466.584,142.864L466.581,142.864C466.533,142.859 466.487,142.84 466.447,142.808L465.124,141.725C465.106,141.711 465.086,141.702 465.067,141.7C465.046,141.698 465.025,141.702 465.005,141.713L464.673,141.886L464.673,143.519L468.485,143.519L468.485,142.602Z" style="fill:rgb(230,230,230);"/>
    </g>
    <defs>
        <linearGradient id="_Linear1" x1="0" y1="0" x2="1" y2="0" gradientUnits="userSpaceOnUse" gradientTransform="matrix(64,0,0,63.9945,0,31.9972)"><stop offset="0" style="stop-color:rgb(204,204,204);stop-opacity:1"/><stop offset="1" style="stop-color:rgb(116,116,116);stop-opacity:1"/></linearGradient>
        <linearGradient id="_Linear2" x1="0" y1="0" x2="1" y2="0" gradientUnits="userSpaceOnUse" gradientTransform="matrix(47.8769,0,0,23.8769,7.84112,38.9539)"><stop offset="0" style="stop-color:rgb(134,214,51);stop-opacity:1"/><stop offset="1" style="stop-color:rgb(105,168,40);stop-opacity:1"/></linearGradient>
        <linearGradient id="_Linear3" x1="0" y1="0" x2="1" y2="0" gradientUnits="userSpaceOnUse" gradientTransform="matrix(47.1938,0,0,34.4615,8.5242,24.1016)"><stop offset="0" style="stop-color:rgb(32,159,198);stop-opacity:1"/><stop offset="1" style="stop-color:rgb(50,212,245);stop-opacity:1"/></linearGradient>
    </defs>
</svg>
