<?xml version="1.0" encoding="UTF-8" standalone="no"?>
<!DOCTYPE svg PUBLIC "-//W3C//DTD SVG 1.1//EN" "http://www.w3.org/Graphics/SVG/1.1/DTD/svg11.dtd">
<svg width="100%" height="100%" viewBox="0 0 64 64" version="1.1" xmlns="http://www.w3.org/2000/svg" xmlns:xlink="http://www.w3.org/1999/xlink" xml:space="preserve" xmlns:serif="http://www.serif.com/" style="fill-rule:evenodd;clip-rule:evenodd;stroke-linejoin:round;stroke-miterlimit:2;">
    <g transform="matrix(1.01438,0,0,1.01438,-0.460066,-0.460066)">
        <path d="M32,9.175L43.401,26.133L37.573,26.247L37.239,40.358L36.553,42.415L33.491,43.306L28.486,43.032L26.817,40.723L26.703,26.302L20.349,26.119L32,9.175Z" style="fill:rgb(125,186,46);"/>
    </g>
    <g transform="matrix(1.01438,0,0,1.01438,-0.460066,-0.460066)">
        <path d="M11.622,54.926L9.268,53.715L8.788,48.984L9.085,44.321L10.274,42.333L13.542,41.853L15.233,43.042L15.942,44.55L16.285,47.247L47.824,47.247L47.952,43.942L49.579,42.278L52.45,42.059L54.681,43.192L55.138,45.112L55.247,51.512L54.991,53.45L53.931,54.803L11.622,54.926Z" style="fill:rgb(125,186,46);"/>
    </g>
    <g transform="matrix(8.36785,0,0,8.36785,-3769.93,-3443.23)">
        <path d="M453.644,416.307L453.644,414.686L452.946,414.686C452.907,414.686 452.874,414.654 452.874,414.615C452.874,414.598 452.88,414.582 452.89,414.57L454.29,412.489C454.312,412.456 454.357,412.447 454.39,412.469C454.398,412.475 454.405,412.482 454.41,412.489L455.814,414.574C455.836,414.607 455.827,414.652 455.794,414.674C455.782,414.682 455.768,414.686 455.754,414.686L455.059,414.686L455.059,416.307C455.059,416.426 455.01,416.534 454.932,416.613C454.854,416.691 454.745,416.74 454.626,416.74L454.076,416.74C453.957,416.74 453.849,416.691 453.771,416.613C453.692,416.534 453.644,416.426 453.644,416.307ZM451.898,418.015L456.803,418.015C456.882,418.015 456.954,417.982 457.007,417.93C457.059,417.878 457.091,417.806 457.091,417.726L457.091,416.889C457.091,416.81 457.059,416.738 457.007,416.685C456.954,416.633 456.882,416.601 456.803,416.601L456.625,416.601C456.546,416.601 456.474,416.633 456.422,416.685L456.421,416.685C456.369,416.738 456.337,416.81 456.337,416.889L456.337,417.188C456.337,417.228 456.305,417.261 456.265,417.261L452.435,417.261C452.395,417.261 452.363,417.228 452.363,417.188L452.363,416.889C452.363,416.81 452.331,416.738 452.279,416.685C452.226,416.633 452.154,416.601 452.075,416.601L451.898,416.601C451.818,416.601 451.746,416.633 451.694,416.685C451.641,416.738 451.609,416.81 451.609,416.889L451.609,417.726C451.609,417.806 451.642,417.878 451.694,417.93C451.746,417.982 451.818,418.015 451.898,418.015ZM456.803,418.159C456.922,418.159 457.03,418.11 457.108,418.032L457.109,418.032C457.187,417.953 457.235,417.845 457.235,417.726L457.235,416.889C457.235,416.77 457.187,416.662 457.109,416.584C457.03,416.505 456.922,416.457 456.803,416.457L456.625,416.457C456.507,416.457 456.399,416.505 456.32,416.584L456.319,416.585C456.241,416.663 456.193,416.771 456.193,416.889L456.193,417.116L452.507,417.116L452.507,416.889C452.507,416.77 452.459,416.662 452.38,416.584C452.302,416.505 452.194,416.457 452.075,416.457L451.898,416.457C451.779,416.457 451.671,416.505 451.592,416.584L451.591,416.585C451.513,416.663 451.465,416.771 451.465,416.889L451.465,417.726C451.465,417.845 451.514,417.954 451.592,418.032C451.67,418.11 451.778,418.159 451.898,418.159L456.803,418.159ZM453.788,414.615L453.788,416.307C453.788,416.387 453.82,416.459 453.873,416.511C453.925,416.563 453.997,416.596 454.076,416.596L454.626,416.596C454.706,416.596 454.778,416.563 454.83,416.511C454.883,416.459 454.915,416.387 454.915,416.307L454.915,414.615C454.915,414.575 454.947,414.542 454.987,414.542L455.619,414.542L454.35,412.658L453.082,414.542L453.716,414.542C453.755,414.542 453.788,414.575 453.788,414.615Z" style="fill:rgb(100,150,37);"/>
    </g>
</svg>
