<svg viewBox="0 0 64 64" xmlns="http://www.w3.org/2000/svg" xml:space="preserve" style="fill-rule:evenodd;clip-rule:evenodd;stroke-linejoin:round;stroke-miterlimit:2"><path d="M1162.75 2384.05c6 0 10.88 4.88 10.88 10.88 0 6-4.88 10.88-10.88 10.88-6 0-10.88-4.88-10.88-10.88 0-6 4.88-10.88 10.88-10.88Zm-11.84 10.88c0 6.53 5.31 11.84 11.84 11.84s11.84-5.31 11.84-11.84-5.31-11.84-11.84-11.84-11.84 5.31-11.84 11.84Z" style="fill:#fff;fill-rule:nonzero" transform="translate(-3111.36 -6442.42) scale(2.70339)"/><path d="M1170.54 2387.34c.67.67 1.03 1.65 1.03 2.84 0 2.72-1.76 6.16-4.58 8.98-4.24 4.25-9.55 5.84-11.83 3.56-.67-.67-1.02-1.65-1.02-2.84 0-2.72 1.75-6.16 4.58-8.98 2.09-2.09 4.49-3.6 6.78-4.25 2.19-.62 3.98-.38 5.04.69Zm-12.5 2.88c-3 3-4.86 6.7-4.86 9.66 0 1.45.45 2.67 1.3 3.52 2.7 2.7 8.49 1.14 13.18-3.56 3-3 4.87-6.7 4.87-9.66 0-1.45-.46-2.67-1.31-3.52-1.32-1.32-3.45-1.65-5.98-.93-2.44.69-5 2.29-7.2 4.49Z" style="fill:#fff;fill-rule:nonzero" transform="translate(-3111.36 -6442.42) scale(2.70339)"/><path d="m1155.19 2403.44 16-16.01c.19-.18.19-.49 0-.67a.465.465 0 0 0-.67 0l-16 16a.477.477 0 1 0 .67.68Z" style="fill:#fff;fill-rule:nonzero" transform="translate(-3111.36 -6442.42) scale(2.70339)"/><path d="m1154.38 2387.24 16.06 16.06c.19.19.49.19.68 0 .19-.19.19-.49 0-.68l-16.06-16.06a.477.477 0 0 0-.68 0c-.19.19-.19.49 0 .68Z" style="fill:#fff;fill-rule:nonzero" transform="translate(-3111.36 -6442.42) scale(2.70339)"/><path d="M1170.54 2402.72c-1.06 1.07-2.85 1.32-5.04.69-2.29-.65-4.69-2.16-6.78-4.25-2.83-2.82-4.58-6.26-4.58-8.98 0-1.19.35-2.17 1.02-2.84 2.28-2.28 7.59-.68 11.83 3.56 2.82 2.82 4.58 6.26 4.58 8.98 0 1.19-.36 2.17-1.03 2.84Zm-2.88-12.5c-2.2-2.2-4.75-3.8-7.19-4.49-2.54-.72-4.66-.39-5.99.93-.85.85-1.3 2.07-1.3 3.52 0 2.96 1.86 6.66 4.86 9.66 4.69 4.7 10.48 6.26 13.18 3.56.85-.85 1.31-2.07 1.31-3.52 0-2.96-1.87-6.66-4.87-9.66Z" style="fill:#fff;fill-rule:nonzero" transform="translate(-3111.36 -6442.42) scale(2.70339)"/></svg>