<?xml version="1.0" encoding="UTF-8" standalone="no"?>
<!DOCTYPE svg PUBLIC "-//W3C//DTD SVG 1.1//EN" "http://www.w3.org/Graphics/SVG/1.1/DTD/svg11.dtd">
<svg width="100%" height="100%" viewBox="0 0 64 64" version="1.1" xmlns="http://www.w3.org/2000/svg" xmlns:xlink="http://www.w3.org/1999/xlink" xml:space="preserve" xmlns:serif="http://www.serif.com/" style="fill-rule:evenodd;clip-rule:evenodd;stroke-linejoin:round;stroke-miterlimit:2;">
    <g transform="matrix(1.18753,0,0,1.18753,-6.00083,-6.00083)">
        <path d="M12.609,58.385L50.319,58.347L52.376,57.966L53.633,55.757L53.519,49.053L53.061,45.472L48.91,41.815L43.158,39.644L39.653,37.968L38.739,33.473L38.777,32L40.415,30.083L42.548,25.741L43.501,19.646L43.621,14.294L42.903,10.783L40.859,7.632L35.773,5.837L30.593,5.619L25.429,6.399L22.542,8.146L21.372,10.877L20.51,14.928L20.328,18.554L20.663,22.942L22.034,27.696L24.685,31.719L25.081,33.73L24.655,36.442L23.984,38.605L20.632,39.611L16.183,41.074L13.806,42.78L11.887,44.609L10.668,47.229L10.546,51.587L10.515,56.097L11.551,57.651L12.609,58.385Z" style="fill:url(#_Linear1);"/>
    </g>
    <g transform="matrix(8.99255,0,0,8.99255,-972.121,-915.361)">
        <path d="M112.638,105.395C112.642,105.438 112.645,105.488 112.649,105.544C112.662,105.732 112.679,105.983 112.703,106.088L112.948,106.239C113.424,106.339 113.842,106.499 114.134,106.719C114.408,106.927 114.573,107.187 114.573,107.5L114.573,108.475C114.573,108.594 114.524,108.702 114.446,108.781C114.368,108.859 114.26,108.908 114.141,108.908L109.183,108.908C109.064,108.908 108.956,108.859 108.877,108.781L108.876,108.78C108.798,108.701 108.75,108.593 108.75,108.475L108.75,107.5C108.75,107.187 108.915,106.928 109.19,106.722C109.482,106.502 109.902,106.342 110.378,106.243L110.624,106.083C110.648,105.978 110.661,105.725 110.671,105.537C110.674,105.479 110.677,105.426 110.68,105.388C110.641,105.346 110.603,105.302 110.567,105.256C110.421,105.069 110.298,104.851 110.214,104.619C110.133,104.398 110.087,104.166 110.087,103.937L110.087,103.926C110.087,103.921 110.088,103.917 110.088,103.912C110.087,103.882 110.087,103.854 110.087,103.83C110.087,103.71 110.085,103.614 110.083,103.521C110.065,102.54 110.052,101.791 111.662,101.791C113.272,101.791 113.258,102.54 113.241,103.521C113.239,103.614 113.237,103.71 113.237,103.83C113.237,103.839 113.237,103.854 113.236,103.877L113.235,103.913C113.236,103.917 113.237,103.922 113.237,103.926L113.237,103.937C113.237,103.988 113.234,104.04 113.23,104.091L113.23,104.094C113.214,104.271 113.172,104.449 113.11,104.619C113.026,104.851 112.903,105.069 112.756,105.256C112.718,105.304 112.679,105.351 112.638,105.395ZM110.804,105.31L110.808,105.314C110.916,105.427 111.035,105.523 111.159,105.595C111.321,105.689 111.492,105.743 111.662,105.743C111.832,105.743 112.003,105.689 112.165,105.595C112.34,105.493 112.503,105.345 112.643,105.167C112.781,104.991 112.896,104.787 112.975,104.57C113.032,104.414 113.07,104.252 113.085,104.09L113.001,103.729C112.981,103.657 112.971,103.589 112.965,103.523C112.96,103.462 112.959,103.397 112.957,103.335C112.955,103.26 112.954,103.188 112.942,103.124C112.931,103.064 112.911,103.009 112.873,102.961L112.871,102.957C112.813,102.886 112.738,102.862 112.649,102.862C112.548,102.863 112.425,102.895 112.292,102.93L112.291,102.93C112.1,102.981 111.892,103.035 111.662,103.035C111.435,103.035 111.229,102.982 111.038,102.932C111.034,102.931 111.031,102.93 111.027,102.929C110.896,102.895 110.775,102.863 110.674,102.862C110.584,102.862 110.508,102.886 110.45,102.96C110.412,103.009 110.393,103.064 110.382,103.123C110.37,103.188 110.368,103.26 110.367,103.335C110.365,103.397 110.364,103.461 110.359,103.523C110.353,103.588 110.342,103.656 110.324,103.727L110.239,104.09C110.254,104.252 110.292,104.414 110.349,104.57C110.428,104.787 110.543,104.991 110.681,105.167C110.72,105.217 110.761,105.265 110.804,105.31ZM110.816,105.522L110.815,105.544C110.805,105.725 110.793,105.962 110.769,106.092L111.67,106.607L112.559,106.099C112.533,105.969 112.517,105.734 112.505,105.554L112.503,105.526C112.419,105.601 112.33,105.666 112.237,105.72C112.054,105.826 111.858,105.887 111.662,105.887C111.466,105.887 111.27,105.826 111.087,105.72C110.993,105.665 110.902,105.598 110.816,105.522ZM113.1,103.304C113.106,102.515 113.007,101.935 111.662,101.935C110.316,101.935 110.218,102.515 110.224,103.306C110.226,103.234 110.228,103.165 110.24,103.098C110.255,103.017 110.283,102.941 110.337,102.872C110.427,102.757 110.542,102.718 110.675,102.718C110.795,102.719 110.925,102.753 111.065,102.79L111.07,102.791C111.251,102.839 111.45,102.891 111.662,102.891C111.875,102.891 112.072,102.839 112.255,102.791C112.397,102.754 112.528,102.719 112.649,102.718C112.78,102.718 112.893,102.756 112.983,102.868L112.986,102.872C113.041,102.941 113.068,103.017 113.083,103.098C113.096,103.165 113.099,103.233 113.1,103.304ZM111.557,107.044L111.603,107.157C111.613,107.174 111.62,107.191 111.625,107.21C111.631,107.232 111.633,107.255 111.63,107.28L111.63,107.281C111.596,107.555 111.562,107.809 111.527,108.062C111.508,108.207 111.488,108.352 111.469,108.493L111.621,108.764L111.701,108.764L111.868,108.467C111.85,108.335 111.831,108.198 111.813,108.061C111.778,107.807 111.744,107.553 111.71,107.279C111.708,107.254 111.71,107.232 111.716,107.21C111.721,107.191 111.728,107.174 111.738,107.157L111.784,107.044L111.67,106.839L111.557,107.044ZM111.873,107.206L111.87,107.215L111.869,107.214C111.868,107.218 111.867,107.221 111.865,107.223C111.86,107.232 111.856,107.24 111.855,107.247C111.853,107.252 111.853,107.257 111.854,107.262C111.888,107.549 111.922,107.795 111.955,108.041L111.985,108.258C112.017,108.201 112.049,108.144 112.079,108.089C112.365,107.585 112.567,107.226 112.771,106.556L112.019,107.284C111.991,107.311 111.945,107.311 111.918,107.282C111.913,107.277 111.909,107.272 111.906,107.267L111.873,107.206ZM111.352,108.283L111.385,108.043C111.418,107.797 111.452,107.551 111.487,107.265L111.487,107.262C111.488,107.257 111.487,107.252 111.486,107.247C111.484,107.24 111.481,107.234 111.477,107.227C111.475,107.223 111.473,107.219 111.471,107.215L111.467,107.206L111.434,107.267C111.431,107.272 111.428,107.277 111.423,107.282C111.396,107.31 111.35,107.312 111.322,107.284L110.549,106.546C110.753,107.221 110.956,107.581 111.241,108.086L111.243,108.089C111.279,108.152 111.315,108.217 111.352,108.283ZM110.689,106.212L110.522,106.321L111.354,107.115L111.413,107.007L111.414,107.005L111.415,107.004L111.416,107.002L111.573,106.717L110.689,106.212ZM112.807,106.321L112.64,106.218L111.767,106.717L111.925,107.002L111.928,107.007L111.987,107.115L112.807,106.321ZM110.355,106.395C109.92,106.491 109.54,106.638 109.276,106.837C109.037,107.016 108.894,107.237 108.894,107.5L108.894,108.475C108.894,108.555 108.927,108.627 108.979,108.679C109.031,108.731 109.103,108.764 109.183,108.764L111.456,108.764L111.332,108.543L111.331,108.541L111.33,108.538C111.25,108.394 111.182,108.273 111.118,108.16L111.116,108.156C110.799,107.596 110.582,107.211 110.355,106.395ZM111.867,108.764L114.141,108.764C114.22,108.764 114.292,108.731 114.344,108.679C114.397,108.627 114.429,108.554 114.429,108.475L114.429,107.5C114.429,107.237 114.286,107.015 114.047,106.834C113.783,106.635 113.404,106.486 112.969,106.39C112.741,107.211 112.523,107.597 112.204,108.16C112.145,108.266 112.081,108.378 112.006,108.514L112.006,108.516L112.005,108.516L112.005,108.517L111.867,108.764Z" style="fill:rgb(0,113,185);"/>
    </g>
    <defs>
        <linearGradient id="_Linear1" x1="0" y1="0" x2="1" y2="0" gradientUnits="userSpaceOnUse" gradientTransform="matrix(43.1176,0,0,52.7663,10.5153,32.002)"><stop offset="0" style="stop-color:rgb(103,158,237);stop-opacity:1"/><stop offset="0.47" style="stop-color:rgb(98,169,235);stop-opacity:1"/><stop offset="1" style="stop-color:rgb(85,198,230);stop-opacity:1"/></linearGradient>
    </defs>
</svg>
