<svg viewBox="0 0 64 64" xmlns="http://www.w3.org/2000/svg" xml:space="preserve" style="fill-rule:evenodd;clip-rule:evenodd;stroke-linejoin:round;stroke-miterlimit:2"><circle cx="116.8" cy="88.1" r="22" style="fill:#c4d94c" transform="matrix(1.45455 0 0 1.45455 -137.891 -96.145)"/><path d="m5602.91 5649.58 501.41-291.61 501.4 291.61-501.4 287.42-501.41-287.42Z" style="fill:#6fbf4c" transform="matrix(.03375 0 0 .03338 -174.019 -156.501)"/><path d="M5511.05 5595.51v-291.62l593.27-344.06 593.26 344.06v291.62l-593.26-345.11-593.27 345.11Z" style="fill:#484848" transform="matrix(.03375 0 0 .03338 -174.019 -156.501)"/><path d="M5511.05 5595.51v-291.62l593.27-344.06 593.26 344.06v291.62l-593.26-345.11-593.27 345.11Z" style="fill:#484848" transform="matrix(.03375 0 0 -.03338 -174.019 220.501)"/></svg>